G04 #@! TF.GenerationSoftware,KiCad,Pcbnew,5.0.2+dfsg1-1~bpo9+1*
G04 #@! TF.CreationDate,2019-05-27T08:16:01+01:00*
G04 #@! TF.ProjectId,PSU,5053552e-6b69-4636-9164-5f7063625858,rev?*
G04 #@! TF.SameCoordinates,Original*
G04 #@! TF.FileFunction,Copper,L1,Top*
G04 #@! TF.FilePolarity,Positive*
%FSLAX46Y46*%
G04 Gerber Fmt 4.6, Leading zero omitted, Abs format (unit mm)*
G04 Created by KiCad (PCBNEW 5.0.2+dfsg1-1~bpo9+1) date Mon 27 May 2019 08:16:01 IST*
%MOMM*%
%LPD*%
G01*
G04 APERTURE LIST*
G04 #@! TA.AperFunction,ComponentPad*
%ADD10C,5.400000*%
G04 #@! TD*
G04 #@! TA.AperFunction,ComponentPad*
%ADD11C,1.600000*%
G04 #@! TD*
G04 #@! TA.AperFunction,ComponentPad*
%ADD12R,1.600000X1.600000*%
G04 #@! TD*
G04 #@! TA.AperFunction,ComponentPad*
%ADD13R,2.600000X2.600000*%
G04 #@! TD*
G04 #@! TA.AperFunction,ComponentPad*
%ADD14C,2.600000*%
G04 #@! TD*
G04 #@! TA.AperFunction,ComponentPad*
%ADD15R,1.700000X1.700000*%
G04 #@! TD*
G04 #@! TA.AperFunction,ComponentPad*
%ADD16O,1.700000X1.700000*%
G04 #@! TD*
G04 #@! TA.AperFunction,ComponentPad*
%ADD17O,2.200000X2.200000*%
G04 #@! TD*
G04 #@! TA.AperFunction,ComponentPad*
%ADD18R,2.200000X2.200000*%
G04 #@! TD*
G04 #@! TA.AperFunction,ComponentPad*
%ADD19O,2.000000X1.905000*%
G04 #@! TD*
G04 #@! TA.AperFunction,ComponentPad*
%ADD20R,2.000000X1.905000*%
G04 #@! TD*
G04 #@! TA.AperFunction,ComponentPad*
%ADD21R,1.905000X2.000000*%
G04 #@! TD*
G04 #@! TA.AperFunction,ComponentPad*
%ADD22O,1.905000X2.000000*%
G04 #@! TD*
G04 #@! TA.AperFunction,ComponentPad*
%ADD23O,1.600000X1.600000*%
G04 #@! TD*
G04 #@! TA.AperFunction,ComponentPad*
%ADD24R,1.676400X1.676400*%
G04 #@! TD*
G04 #@! TA.AperFunction,ComponentPad*
%ADD25C,1.676400*%
G04 #@! TD*
G04 #@! TA.AperFunction,Conductor*
%ADD26C,0.250000*%
G04 #@! TD*
G04 #@! TA.AperFunction,Conductor*
%ADD27C,0.500000*%
G04 #@! TD*
G04 APERTURE END LIST*
D10*
G04 #@! TO.P,REF\002A\002A,1*
G04 #@! TO.N,N/C*
X43180000Y-90170000D03*
G04 #@! TD*
G04 #@! TO.P,REF\002A\002A,1*
G04 #@! TO.N,N/C*
X127000000Y-90170000D03*
G04 #@! TD*
G04 #@! TO.P,REF\002A\002A,1*
G04 #@! TO.N,N/C*
X127000000Y-36830000D03*
G04 #@! TD*
D11*
G04 #@! TO.P,C3,2*
G04 #@! TO.N,GND*
X67310000Y-71850000D03*
D12*
G04 #@! TO.P,C3,1*
G04 #@! TO.N,Net-(C3-Pad1)*
X67310000Y-69850000D03*
G04 #@! TD*
G04 #@! TO.P,C1,1*
G04 #@! TO.N,+15V*
X59690000Y-85090000D03*
D11*
G04 #@! TO.P,C1,2*
G04 #@! TO.N,GND*
X59690000Y-87090000D03*
G04 #@! TD*
D12*
G04 #@! TO.P,C4,1*
G04 #@! TO.N,Net-(C4-Pad1)*
X113030000Y-50800000D03*
D11*
G04 #@! TO.P,C4,2*
G04 #@! TO.N,GND*
X113030000Y-48300000D03*
G04 #@! TD*
G04 #@! TO.P,C2,1*
G04 #@! TO.N,+15V*
X59690000Y-80010000D03*
G04 #@! TO.P,C2,2*
G04 #@! TO.N,GND*
X59690000Y-75010000D03*
G04 #@! TD*
D13*
G04 #@! TO.P,J2,1*
G04 #@! TO.N,+15V*
X52070000Y-83820000D03*
D14*
G04 #@! TO.P,J2,2*
G04 #@! TO.N,GND*
X46070000Y-83820000D03*
G04 #@! TO.P,J2,3*
X49070000Y-88520000D03*
G04 #@! TD*
D15*
G04 #@! TO.P,J4,1*
G04 #@! TO.N,+5V*
X100330000Y-52070000D03*
D16*
G04 #@! TO.P,J4,2*
G04 #@! TO.N,GND*
X97790000Y-52070000D03*
G04 #@! TO.P,J4,3*
G04 #@! TO.N,Net-(J4-Pad3)*
X95250000Y-52070000D03*
G04 #@! TO.P,J4,4*
G04 #@! TO.N,Net-(J4-Pad4)*
X92710000Y-52070000D03*
G04 #@! TO.P,J4,5*
G04 #@! TO.N,Net-(J4-Pad5)*
X90170000Y-52070000D03*
G04 #@! TO.P,J4,6*
G04 #@! TO.N,Net-(C4-Pad1)*
X87630000Y-52070000D03*
G04 #@! TD*
G04 #@! TO.P,J6,8*
G04 #@! TO.N,Net-(J6-Pad8)*
X116840000Y-86360000D03*
G04 #@! TO.P,J6,7*
G04 #@! TO.N,Net-(J6-Pad7)*
X116840000Y-83820000D03*
G04 #@! TO.P,J6,6*
G04 #@! TO.N,Net-(J6-Pad6)*
X116840000Y-81280000D03*
G04 #@! TO.P,J6,5*
G04 #@! TO.N,Net-(J6-Pad5)*
X116840000Y-78740000D03*
G04 #@! TO.P,J6,4*
G04 #@! TO.N,Net-(J6-Pad4)*
X116840000Y-76200000D03*
G04 #@! TO.P,J6,3*
G04 #@! TO.N,Net-(J6-Pad3)*
X116840000Y-73660000D03*
G04 #@! TO.P,J6,2*
G04 #@! TO.N,Net-(J6-Pad2)*
X116840000Y-71120000D03*
D15*
G04 #@! TO.P,J6,1*
G04 #@! TO.N,Net-(J6-Pad1)*
X116840000Y-68580000D03*
G04 #@! TD*
G04 #@! TO.P,J5,1*
G04 #@! TO.N,+5V*
X81280000Y-68580000D03*
D16*
G04 #@! TO.P,J5,2*
G04 #@! TO.N,GND*
X81280000Y-71120000D03*
G04 #@! TO.P,J5,3*
G04 #@! TO.N,Net-(J5-Pad3)*
X81280000Y-73660000D03*
G04 #@! TO.P,J5,4*
G04 #@! TO.N,Net-(J5-Pad4)*
X81280000Y-76200000D03*
G04 #@! TO.P,J5,5*
G04 #@! TO.N,Net-(J4-Pad4)*
X81280000Y-78740000D03*
G04 #@! TO.P,J5,6*
G04 #@! TO.N,Net-(J4-Pad3)*
X81280000Y-81280000D03*
G04 #@! TO.P,J5,7*
G04 #@! TO.N,Net-(J5-Pad7)*
X81280000Y-83820000D03*
G04 #@! TO.P,J5,8*
G04 #@! TO.N,Net-(J5-Pad8)*
X81280000Y-86360000D03*
G04 #@! TD*
D17*
G04 #@! TO.P,D2,2*
G04 #@! TO.N,GND*
X97790000Y-57150000D03*
D18*
G04 #@! TO.P,D2,1*
G04 #@! TO.N,Net-(C4-Pad1)*
X87630000Y-57150000D03*
G04 #@! TD*
G04 #@! TO.P,D1,1*
G04 #@! TO.N,+5V*
X73660000Y-63500000D03*
D17*
G04 #@! TO.P,D1,2*
G04 #@! TO.N,Net-(C3-Pad1)*
X63500000Y-63500000D03*
G04 #@! TD*
D19*
G04 #@! TO.P,U1,3*
G04 #@! TO.N,Net-(C3-Pad1)*
X54610000Y-63500000D03*
G04 #@! TO.P,U1,2*
G04 #@! TO.N,GND*
X54610000Y-66040000D03*
D20*
G04 #@! TO.P,U1,1*
G04 #@! TO.N,+15V*
X54610000Y-68580000D03*
G04 #@! TD*
D21*
G04 #@! TO.P,Q1,1*
G04 #@! TO.N,Net-(Q1-Pad1)*
X69850000Y-52070000D03*
D22*
G04 #@! TO.P,Q1,2*
G04 #@! TO.N,Net-(J4-Pad5)*
X72390000Y-52070000D03*
G04 #@! TO.P,Q1,3*
G04 #@! TO.N,+15V*
X74930000Y-52070000D03*
G04 #@! TD*
D11*
G04 #@! TO.P,R1,1*
G04 #@! TO.N,Net-(J4-Pad5)*
X77470000Y-57150000D03*
D23*
G04 #@! TO.P,R1,2*
G04 #@! TO.N,Net-(Q1-Pad1)*
X69850000Y-57150000D03*
G04 #@! TD*
D14*
G04 #@! TO.P,J3,2*
G04 #@! TO.N,GND*
X124460000Y-48340000D03*
D13*
G04 #@! TO.P,J3,1*
G04 #@! TO.N,Net-(C4-Pad1)*
X124460000Y-53340000D03*
G04 #@! TD*
G04 #@! TO.P,J1,1*
G04 #@! TO.N,+15V*
X57150000Y-49530000D03*
D14*
G04 #@! TO.P,J1,2*
G04 #@! TO.N,GND*
X52150000Y-49530000D03*
G04 #@! TD*
D24*
G04 #@! TO.P,U2,1*
G04 #@! TO.N,Net-(J5-Pad3)*
X95250000Y-78740000D03*
D25*
G04 #@! TO.P,U2,2*
G04 #@! TO.N,Net-(J5-Pad7)*
X95250000Y-81280000D03*
G04 #@! TO.P,U2,3*
G04 #@! TO.N,Net-(U2-Pad3)*
X95250000Y-83820000D03*
G04 #@! TO.P,U2,4*
G04 #@! TO.N,GND*
X95250000Y-86360000D03*
G04 #@! TO.P,U2,5*
G04 #@! TO.N,Net-(Q1-Pad1)*
X102870000Y-86360000D03*
G04 #@! TO.P,U2,6*
G04 #@! TO.N,GND*
X102870000Y-83820000D03*
G04 #@! TO.P,U2,7*
G04 #@! TO.N,Net-(J6-Pad6)*
X102870000Y-81280000D03*
G04 #@! TO.P,U2,8*
G04 #@! TO.N,+5V*
X102870000Y-78740000D03*
G04 #@! TD*
D10*
G04 #@! TO.P,REF\002A\002A,1*
G04 #@! TO.N,N/C*
X43180000Y-36830000D03*
G04 #@! TD*
D26*
G04 #@! TO.N,Net-(Q1-Pad1)*
X69850000Y-57150000D02*
X69850000Y-86360000D01*
X69850000Y-86360000D02*
X73660000Y-90170000D01*
X73660000Y-90170000D02*
X99060000Y-90170000D01*
X99060000Y-90170000D02*
X102870000Y-86360000D01*
D27*
G04 #@! TO.N,+5V*
X102870000Y-78740000D02*
X102870000Y-54610000D01*
X102870000Y-54610000D02*
X100330000Y-52070000D01*
X102870000Y-78740000D02*
X99060000Y-82550000D01*
X99060000Y-82550000D02*
X99060000Y-86360000D01*
X99060000Y-86360000D02*
X96520000Y-88900000D01*
X96520000Y-88900000D02*
X78740000Y-88900000D01*
X78740000Y-88900000D02*
X77470000Y-87630000D01*
X79930000Y-68580000D02*
X81280000Y-68580000D01*
X77470000Y-71040000D02*
X79930000Y-68580000D01*
X77470000Y-87630000D02*
X77470000Y-71040000D01*
G04 #@! TO.N,+15V*
X57150000Y-49530000D02*
X57150000Y-66040000D01*
X57150000Y-66040000D02*
X54610000Y-68580000D01*
D26*
G04 #@! TO.N,Net-(C4-Pad1)*
X87630000Y-52070000D02*
X87630000Y-50800000D01*
X113030000Y-50800000D02*
X111760000Y-50800000D01*
X111760000Y-50800000D02*
X110490000Y-49530000D01*
X90170000Y-49530000D02*
X87630000Y-52070000D01*
X110490000Y-49530000D02*
X90170000Y-49530000D01*
G04 #@! TO.N,Net-(J4-Pad3)*
X95250000Y-67310000D02*
X95250000Y-52070000D01*
X81280000Y-81280000D02*
X95250000Y-67310000D01*
G04 #@! TO.N,Net-(J4-Pad4)*
X92710000Y-67310000D02*
X92710000Y-52070000D01*
X81280000Y-78740000D02*
X92710000Y-67310000D01*
G04 #@! TD*
M02*
