G04 #@! TF.GenerationSoftware,KiCad,Pcbnew,5.0.2+dfsg1-1~bpo9+1*
G04 #@! TF.CreationDate,2019-06-13T13:05:59+01:00*
G04 #@! TF.ProjectId,PSU,5053552e-6b69-4636-9164-5f7063625858,rev?*
G04 #@! TF.SameCoordinates,Original*
G04 #@! TF.FileFunction,Copper,L2,Bot*
G04 #@! TF.FilePolarity,Positive*
%FSLAX46Y46*%
G04 Gerber Fmt 4.6, Leading zero omitted, Abs format (unit mm)*
G04 Created by KiCad (PCBNEW 5.0.2+dfsg1-1~bpo9+1) date Thu 13 Jun 2019 13:05:59 IST*
%MOMM*%
%LPD*%
G01*
G04 APERTURE LIST*
G04 #@! TA.AperFunction,ComponentPad*
%ADD10C,5.400000*%
G04 #@! TD*
G04 #@! TA.AperFunction,ComponentPad*
%ADD11R,2.600000X2.600000*%
G04 #@! TD*
G04 #@! TA.AperFunction,ComponentPad*
%ADD12C,2.600000*%
G04 #@! TD*
G04 #@! TA.AperFunction,ComponentPad*
%ADD13C,1.600000*%
G04 #@! TD*
G04 #@! TA.AperFunction,ComponentPad*
%ADD14R,1.600000X1.600000*%
G04 #@! TD*
G04 #@! TA.AperFunction,ComponentPad*
%ADD15R,1.700000X1.700000*%
G04 #@! TD*
G04 #@! TA.AperFunction,ComponentPad*
%ADD16O,1.700000X1.700000*%
G04 #@! TD*
G04 #@! TA.AperFunction,ComponentPad*
%ADD17O,2.200000X2.200000*%
G04 #@! TD*
G04 #@! TA.AperFunction,ComponentPad*
%ADD18R,2.200000X2.200000*%
G04 #@! TD*
G04 #@! TA.AperFunction,ComponentPad*
%ADD19O,1.905000X2.000000*%
G04 #@! TD*
G04 #@! TA.AperFunction,ComponentPad*
%ADD20R,1.905000X2.000000*%
G04 #@! TD*
G04 #@! TA.AperFunction,ComponentPad*
%ADD21O,1.600000X1.600000*%
G04 #@! TD*
G04 #@! TA.AperFunction,ComponentPad*
%ADD22R,1.676400X1.676400*%
G04 #@! TD*
G04 #@! TA.AperFunction,ComponentPad*
%ADD23C,1.676400*%
G04 #@! TD*
G04 #@! TA.AperFunction,Conductor*
%ADD24C,0.250000*%
G04 #@! TD*
G04 #@! TA.AperFunction,Conductor*
%ADD25C,0.500000*%
G04 #@! TD*
G04 #@! TA.AperFunction,Conductor*
%ADD26C,0.254000*%
G04 #@! TD*
G04 APERTURE END LIST*
D10*
G04 #@! TO.P,REF4,1*
G04 #@! TO.N,N/C*
X126746000Y-36830000D03*
G04 #@! TD*
G04 #@! TO.P,REF3,1*
G04 #@! TO.N,N/C*
X126746000Y-90678000D03*
G04 #@! TD*
G04 #@! TO.P,REF2,1*
G04 #@! TO.N,N/C*
X42672000Y-90678000D03*
G04 #@! TD*
D11*
G04 #@! TO.P,J2,1*
G04 #@! TO.N,+15V*
X58166000Y-44450000D03*
D12*
G04 #@! TO.P,J2,2*
G04 #@! TO.N,GND*
X58166000Y-38450000D03*
G04 #@! TO.P,J2,3*
X53466000Y-41450000D03*
G04 #@! TD*
D13*
G04 #@! TO.P,C3,2*
G04 #@! TO.N,GND*
X86646000Y-43942000D03*
D14*
G04 #@! TO.P,C3,1*
G04 #@! TO.N,+5V*
X88646000Y-43942000D03*
G04 #@! TD*
G04 #@! TO.P,C1,1*
G04 #@! TO.N,+15V*
X69850000Y-44450000D03*
D13*
G04 #@! TO.P,C1,2*
G04 #@! TO.N,GND*
X67850000Y-44450000D03*
G04 #@! TD*
D14*
G04 #@! TO.P,C4,1*
G04 #@! TO.N,Net-(C4-Pad1)*
X126492000Y-59690000D03*
D13*
G04 #@! TO.P,C4,2*
G04 #@! TO.N,GND*
X123992000Y-59690000D03*
G04 #@! TD*
G04 #@! TO.P,C2,1*
G04 #@! TO.N,+15V*
X75829600Y-50225700D03*
G04 #@! TO.P,C2,2*
G04 #@! TO.N,GND*
X80829600Y-50225700D03*
G04 #@! TD*
D15*
G04 #@! TO.P,J4,1*
G04 #@! TO.N,+5V*
X55626000Y-64770000D03*
D16*
G04 #@! TO.P,J4,2*
G04 #@! TO.N,GND*
X55626000Y-67310000D03*
G04 #@! TO.P,J4,3*
G04 #@! TO.N,Net-(J4-Pad3)*
X55626000Y-69850000D03*
G04 #@! TO.P,J4,4*
G04 #@! TO.N,Net-(J4-Pad4)*
X55626000Y-72390000D03*
G04 #@! TO.P,J4,5*
G04 #@! TO.N,Net-(J4-Pad5)*
X55626000Y-74930000D03*
G04 #@! TO.P,J4,6*
G04 #@! TO.N,Net-(C4-Pad1)*
X55626000Y-77470000D03*
G04 #@! TD*
G04 #@! TO.P,J6,8*
G04 #@! TO.N,Net-(J6-Pad8)*
X91441000Y-89806300D03*
G04 #@! TO.P,J6,7*
G04 #@! TO.N,Net-(J6-Pad7)*
X93981000Y-89806300D03*
G04 #@! TO.P,J6,6*
G04 #@! TO.N,Net-(J6-Pad6)*
X96521000Y-89806300D03*
G04 #@! TO.P,J6,5*
G04 #@! TO.N,Net-(J6-Pad5)*
X99061000Y-89806300D03*
G04 #@! TO.P,J6,4*
G04 #@! TO.N,Net-(J6-Pad4)*
X101601000Y-89806300D03*
G04 #@! TO.P,J6,3*
G04 #@! TO.N,Net-(J6-Pad3)*
X104141000Y-89806300D03*
G04 #@! TO.P,J6,2*
G04 #@! TO.N,Net-(J6-Pad2)*
X106681000Y-89806300D03*
D15*
G04 #@! TO.P,J6,1*
G04 #@! TO.N,Net-(J6-Pad1)*
X109221000Y-89806300D03*
G04 #@! TD*
G04 #@! TO.P,J5,1*
G04 #@! TO.N,+5V*
X109221000Y-54246300D03*
D16*
G04 #@! TO.P,J5,2*
G04 #@! TO.N,GND*
X106681000Y-54246300D03*
G04 #@! TO.P,J5,3*
G04 #@! TO.N,Net-(J5-Pad3)*
X104141000Y-54246300D03*
G04 #@! TO.P,J5,4*
G04 #@! TO.N,Net-(J5-Pad4)*
X101601000Y-54246300D03*
G04 #@! TO.P,J5,5*
G04 #@! TO.N,Net-(J4-Pad4)*
X99061000Y-54246300D03*
G04 #@! TO.P,J5,6*
G04 #@! TO.N,Net-(J4-Pad3)*
X96521000Y-54246300D03*
G04 #@! TO.P,J5,7*
G04 #@! TO.N,Net-(J5-Pad7)*
X93981000Y-54246300D03*
G04 #@! TO.P,J5,8*
G04 #@! TO.N,Net-(J5-Pad8)*
X91441000Y-54246300D03*
G04 #@! TD*
D17*
G04 #@! TO.P,D2,2*
G04 #@! TO.N,GND*
X117094000Y-44196000D03*
D18*
G04 #@! TO.P,D2,1*
G04 #@! TO.N,Net-(C4-Pad1)*
X117094000Y-54356000D03*
G04 #@! TD*
D19*
G04 #@! TO.P,U1,3*
G04 #@! TO.N,+5V*
X80655600Y-44637700D03*
G04 #@! TO.P,U1,2*
G04 #@! TO.N,GND*
X78115600Y-44637700D03*
D20*
G04 #@! TO.P,U1,1*
G04 #@! TO.N,+15V*
X75575600Y-44637700D03*
G04 #@! TD*
G04 #@! TO.P,Q1,1*
G04 #@! TO.N,Net-(Q1-Pad1)*
X99354000Y-44738400D03*
D19*
G04 #@! TO.P,Q1,2*
G04 #@! TO.N,Net-(J4-Pad5)*
X101894000Y-44738400D03*
G04 #@! TO.P,Q1,3*
G04 #@! TO.N,+15V*
X104434000Y-44738400D03*
G04 #@! TD*
D13*
G04 #@! TO.P,R1,1*
G04 #@! TO.N,Net-(J4-Pad5)*
X106974000Y-49818400D03*
D21*
G04 #@! TO.P,R1,2*
G04 #@! TO.N,Net-(Q1-Pad1)*
X99354000Y-49818400D03*
G04 #@! TD*
D12*
G04 #@! TO.P,J3,2*
G04 #@! TO.N,GND*
X124460000Y-46308000D03*
D11*
G04 #@! TO.P,J3,1*
G04 #@! TO.N,Net-(C4-Pad1)*
X124460000Y-51308000D03*
G04 #@! TD*
G04 #@! TO.P,J1,1*
G04 #@! TO.N,+15V*
X44196000Y-51562000D03*
D12*
G04 #@! TO.P,J1,2*
G04 #@! TO.N,GND*
X44196000Y-46562000D03*
G04 #@! TD*
D22*
G04 #@! TO.P,U2,1*
G04 #@! TO.N,Net-(J5-Pad3)*
X64516000Y-77978000D03*
D23*
G04 #@! TO.P,U2,2*
G04 #@! TO.N,Net-(J5-Pad7)*
X64516000Y-80518000D03*
G04 #@! TO.P,U2,3*
G04 #@! TO.N,Net-(U2-Pad3)*
X64516000Y-83058000D03*
G04 #@! TO.P,U2,4*
G04 #@! TO.N,GND*
X64516000Y-85598000D03*
G04 #@! TO.P,U2,5*
G04 #@! TO.N,Net-(Q1-Pad1)*
X72136000Y-85598000D03*
G04 #@! TO.P,U2,6*
G04 #@! TO.N,GND*
X72136000Y-83058000D03*
G04 #@! TO.P,U2,7*
G04 #@! TO.N,Net-(J6-Pad6)*
X72136000Y-80518000D03*
G04 #@! TO.P,U2,8*
G04 #@! TO.N,+5V*
X72136000Y-77978000D03*
G04 #@! TD*
D10*
G04 #@! TO.P,REF1,1*
G04 #@! TO.N,N/C*
X42926000Y-36830000D03*
G04 #@! TD*
D24*
G04 #@! TO.N,Net-(J5-Pad7)*
X64516000Y-80518000D02*
X65786000Y-79248000D01*
X65786000Y-79248000D02*
X72576800Y-79248000D01*
X72576800Y-79248000D02*
X93981000Y-57843800D01*
X93981000Y-57843800D02*
X93981000Y-54246300D01*
D25*
G04 #@! TO.N,GND*
X64516000Y-85598000D02*
X61907200Y-85598000D01*
X61907200Y-85598000D02*
X54325700Y-78016500D01*
X54325700Y-78016500D02*
X54325700Y-67310000D01*
X54325700Y-67310000D02*
X53466000Y-66450300D01*
X53466000Y-66450300D02*
X53466000Y-46562000D01*
X55626000Y-67310000D02*
X54325700Y-67310000D01*
X86646000Y-46096900D02*
X97830700Y-46096900D01*
X97830700Y-46096900D02*
X104679800Y-52946000D01*
X104679800Y-52946000D02*
X106681000Y-52946000D01*
X80829600Y-47351700D02*
X85391200Y-47351700D01*
X85391200Y-47351700D02*
X86646000Y-46096900D01*
X86646000Y-46096900D02*
X86646000Y-43942000D01*
X106681000Y-54246300D02*
X106681000Y-52946000D01*
X117094000Y-44196000D02*
X115543700Y-44196000D01*
X115543700Y-44196000D02*
X106793700Y-52946000D01*
X106793700Y-52946000D02*
X106681000Y-52946000D01*
X80829600Y-47351700D02*
X78115600Y-44637700D01*
X80829600Y-50225700D02*
X80829600Y-47351700D01*
X53466000Y-41450000D02*
X55166000Y-41450000D01*
X55166000Y-41450000D02*
X58166000Y-38450000D01*
X53466000Y-46562000D02*
X53466000Y-41450000D01*
X67850000Y-43362500D02*
X63078500Y-43362500D01*
X63078500Y-43362500D02*
X58166000Y-38450000D01*
X78115600Y-43187400D02*
X68025100Y-43187400D01*
X68025100Y-43187400D02*
X67850000Y-43362500D01*
X67850000Y-43362500D02*
X67850000Y-44450000D01*
X124425000Y-48305000D02*
X124460000Y-48270000D01*
X124460000Y-48270000D02*
X124460000Y-46308000D01*
X124425000Y-48305000D02*
X124430000Y-48310000D01*
X124420000Y-48300000D02*
X124425000Y-48305000D01*
X53466000Y-46562000D02*
X44196000Y-46562000D01*
X78115600Y-44637700D02*
X78115600Y-43187400D01*
X124430000Y-48310000D02*
X124214900Y-48310000D01*
X124214900Y-48310000D02*
X122675200Y-49849700D01*
X122675200Y-49849700D02*
X122675200Y-58373200D01*
X122675200Y-58373200D02*
X123992000Y-59690000D01*
X124430000Y-48310000D02*
X124460000Y-48340000D01*
D24*
G04 #@! TO.N,Net-(Q1-Pad1)*
X99354000Y-49818400D02*
X99354000Y-50943700D01*
X72136000Y-85598000D02*
X97791000Y-59943000D01*
X97791000Y-59943000D02*
X97791000Y-52506700D01*
X97791000Y-52506700D02*
X99354000Y-50943700D01*
D25*
G04 #@! TO.N,+5V*
X55626000Y-64770000D02*
X56926300Y-64770000D01*
X72136000Y-77978000D02*
X70134300Y-77978000D01*
X70134300Y-77978000D02*
X56926300Y-64770000D01*
G04 #@! TO.N,+15V*
X58166000Y-44450000D02*
X59916300Y-44450000D01*
X59916300Y-44450000D02*
X61195400Y-45729100D01*
X61195400Y-45729100D02*
X68570900Y-45729100D01*
X68570900Y-45729100D02*
X69850000Y-44450000D01*
X75575600Y-44637700D02*
X75575600Y-49971700D01*
X75575600Y-49971700D02*
X75829600Y-50225700D01*
G04 #@! TD*
D26*
G04 #@! TO.N,GND*
G36*
X123918723Y-34940874D02*
X123411000Y-36166627D01*
X123411000Y-37493373D01*
X123918723Y-38719126D01*
X124856874Y-39657277D01*
X126082627Y-40165000D01*
X127409373Y-40165000D01*
X128635126Y-39657277D01*
X129363000Y-38929403D01*
X129363001Y-88578598D01*
X128635126Y-87850723D01*
X127409373Y-87343000D01*
X126082627Y-87343000D01*
X124856874Y-87850723D01*
X123918723Y-88788874D01*
X123411000Y-90014627D01*
X123411000Y-91341373D01*
X123918723Y-92567126D01*
X124646597Y-93295000D01*
X44771403Y-93295000D01*
X45499277Y-92567126D01*
X46007000Y-91341373D01*
X46007000Y-90014627D01*
X45920709Y-89806300D01*
X89926908Y-89806300D01*
X90042161Y-90385718D01*
X90370375Y-90876925D01*
X90861582Y-91205139D01*
X91294744Y-91291300D01*
X91587256Y-91291300D01*
X92020418Y-91205139D01*
X92511625Y-90876925D01*
X92711000Y-90578539D01*
X92910375Y-90876925D01*
X93401582Y-91205139D01*
X93834744Y-91291300D01*
X94127256Y-91291300D01*
X94560418Y-91205139D01*
X95051625Y-90876925D01*
X95251000Y-90578539D01*
X95450375Y-90876925D01*
X95941582Y-91205139D01*
X96374744Y-91291300D01*
X96667256Y-91291300D01*
X97100418Y-91205139D01*
X97591625Y-90876925D01*
X97791000Y-90578539D01*
X97990375Y-90876925D01*
X98481582Y-91205139D01*
X98914744Y-91291300D01*
X99207256Y-91291300D01*
X99640418Y-91205139D01*
X100131625Y-90876925D01*
X100331000Y-90578539D01*
X100530375Y-90876925D01*
X101021582Y-91205139D01*
X101454744Y-91291300D01*
X101747256Y-91291300D01*
X102180418Y-91205139D01*
X102671625Y-90876925D01*
X102871000Y-90578539D01*
X103070375Y-90876925D01*
X103561582Y-91205139D01*
X103994744Y-91291300D01*
X104287256Y-91291300D01*
X104720418Y-91205139D01*
X105211625Y-90876925D01*
X105411000Y-90578539D01*
X105610375Y-90876925D01*
X106101582Y-91205139D01*
X106534744Y-91291300D01*
X106827256Y-91291300D01*
X107260418Y-91205139D01*
X107751625Y-90876925D01*
X107763816Y-90858681D01*
X107772843Y-90904065D01*
X107913191Y-91114109D01*
X108123235Y-91254457D01*
X108371000Y-91303740D01*
X110071000Y-91303740D01*
X110318765Y-91254457D01*
X110528809Y-91114109D01*
X110669157Y-90904065D01*
X110718440Y-90656300D01*
X110718440Y-88956300D01*
X110669157Y-88708535D01*
X110528809Y-88498491D01*
X110318765Y-88358143D01*
X110071000Y-88308860D01*
X108371000Y-88308860D01*
X108123235Y-88358143D01*
X107913191Y-88498491D01*
X107772843Y-88708535D01*
X107763816Y-88753919D01*
X107751625Y-88735675D01*
X107260418Y-88407461D01*
X106827256Y-88321300D01*
X106534744Y-88321300D01*
X106101582Y-88407461D01*
X105610375Y-88735675D01*
X105411000Y-89034061D01*
X105211625Y-88735675D01*
X104720418Y-88407461D01*
X104287256Y-88321300D01*
X103994744Y-88321300D01*
X103561582Y-88407461D01*
X103070375Y-88735675D01*
X102871000Y-89034061D01*
X102671625Y-88735675D01*
X102180418Y-88407461D01*
X101747256Y-88321300D01*
X101454744Y-88321300D01*
X101021582Y-88407461D01*
X100530375Y-88735675D01*
X100331000Y-89034061D01*
X100131625Y-88735675D01*
X99640418Y-88407461D01*
X99207256Y-88321300D01*
X98914744Y-88321300D01*
X98481582Y-88407461D01*
X97990375Y-88735675D01*
X97791000Y-89034061D01*
X97591625Y-88735675D01*
X97100418Y-88407461D01*
X96667256Y-88321300D01*
X96374744Y-88321300D01*
X95941582Y-88407461D01*
X95450375Y-88735675D01*
X95251000Y-89034061D01*
X95051625Y-88735675D01*
X94560418Y-88407461D01*
X94127256Y-88321300D01*
X93834744Y-88321300D01*
X93401582Y-88407461D01*
X92910375Y-88735675D01*
X92711000Y-89034061D01*
X92511625Y-88735675D01*
X92020418Y-88407461D01*
X91587256Y-88321300D01*
X91294744Y-88321300D01*
X90861582Y-88407461D01*
X90370375Y-88735675D01*
X90042161Y-89226882D01*
X89926908Y-89806300D01*
X45920709Y-89806300D01*
X45499277Y-88788874D01*
X44561126Y-87850723D01*
X43335373Y-87343000D01*
X42008627Y-87343000D01*
X40782874Y-87850723D01*
X40309000Y-88324597D01*
X40309000Y-86633413D01*
X63660192Y-86633413D01*
X63739017Y-86883490D01*
X64290097Y-87082977D01*
X64875569Y-87056389D01*
X65292983Y-86883490D01*
X65371808Y-86633413D01*
X64516000Y-85777605D01*
X63660192Y-86633413D01*
X40309000Y-86633413D01*
X40309000Y-85372097D01*
X63031023Y-85372097D01*
X63057611Y-85957569D01*
X63230510Y-86374983D01*
X63480587Y-86453808D01*
X64336395Y-85598000D01*
X64695605Y-85598000D01*
X65551413Y-86453808D01*
X65801490Y-86374983D01*
X66000977Y-85823903D01*
X65974389Y-85238431D01*
X65801490Y-84821017D01*
X65551413Y-84742192D01*
X64695605Y-85598000D01*
X64336395Y-85598000D01*
X63480587Y-84742192D01*
X63230510Y-84821017D01*
X63031023Y-85372097D01*
X40309000Y-85372097D01*
X40309000Y-69850000D01*
X54111908Y-69850000D01*
X54227161Y-70429418D01*
X54555375Y-70920625D01*
X54853761Y-71120000D01*
X54555375Y-71319375D01*
X54227161Y-71810582D01*
X54111908Y-72390000D01*
X54227161Y-72969418D01*
X54555375Y-73460625D01*
X54853761Y-73660000D01*
X54555375Y-73859375D01*
X54227161Y-74350582D01*
X54111908Y-74930000D01*
X54227161Y-75509418D01*
X54555375Y-76000625D01*
X54853761Y-76200000D01*
X54555375Y-76399375D01*
X54227161Y-76890582D01*
X54111908Y-77470000D01*
X54227161Y-78049418D01*
X54555375Y-78540625D01*
X55046582Y-78868839D01*
X55479744Y-78955000D01*
X55772256Y-78955000D01*
X56205418Y-78868839D01*
X56696625Y-78540625D01*
X57024839Y-78049418D01*
X57140092Y-77470000D01*
X57024839Y-76890582D01*
X56696625Y-76399375D01*
X56398239Y-76200000D01*
X56696625Y-76000625D01*
X57024839Y-75509418D01*
X57140092Y-74930000D01*
X57024839Y-74350582D01*
X56696625Y-73859375D01*
X56398239Y-73660000D01*
X56696625Y-73460625D01*
X57024839Y-72969418D01*
X57140092Y-72390000D01*
X57024839Y-71810582D01*
X56696625Y-71319375D01*
X56398239Y-71120000D01*
X56696625Y-70920625D01*
X57024839Y-70429418D01*
X57140092Y-69850000D01*
X57024839Y-69270582D01*
X56696625Y-68779375D01*
X56377522Y-68566157D01*
X56507358Y-68505183D01*
X56897645Y-68076924D01*
X57067476Y-67666890D01*
X56946155Y-67437000D01*
X55753000Y-67437000D01*
X55753000Y-67457000D01*
X55499000Y-67457000D01*
X55499000Y-67437000D01*
X54305845Y-67437000D01*
X54184524Y-67666890D01*
X54354355Y-68076924D01*
X54744642Y-68505183D01*
X54874478Y-68566157D01*
X54555375Y-68779375D01*
X54227161Y-69270582D01*
X54111908Y-69850000D01*
X40309000Y-69850000D01*
X40309000Y-63920000D01*
X54128560Y-63920000D01*
X54128560Y-65620000D01*
X54177843Y-65867765D01*
X54318191Y-66077809D01*
X54528235Y-66218157D01*
X54631708Y-66238739D01*
X54354355Y-66543076D01*
X54184524Y-66953110D01*
X54305845Y-67183000D01*
X55499000Y-67183000D01*
X55499000Y-67163000D01*
X55753000Y-67163000D01*
X55753000Y-67183000D01*
X56946155Y-67183000D01*
X57067476Y-66953110D01*
X56897645Y-66543076D01*
X56620292Y-66238739D01*
X56723765Y-66218157D01*
X56933809Y-66077809D01*
X56953324Y-66048602D01*
X69392721Y-78488000D01*
X66001640Y-78488000D01*
X66001640Y-77139800D01*
X65952357Y-76892035D01*
X65812009Y-76681991D01*
X65601965Y-76541643D01*
X65354200Y-76492360D01*
X63677800Y-76492360D01*
X63430035Y-76541643D01*
X63219991Y-76681991D01*
X63079643Y-76892035D01*
X63030360Y-77139800D01*
X63030360Y-78816200D01*
X63079643Y-79063965D01*
X63219991Y-79274009D01*
X63430035Y-79414357D01*
X63518605Y-79431975D01*
X63267081Y-79683499D01*
X63042800Y-80224962D01*
X63042800Y-80811038D01*
X63267081Y-81352501D01*
X63681499Y-81766919D01*
X63732393Y-81788000D01*
X63681499Y-81809081D01*
X63267081Y-82223499D01*
X63042800Y-82764962D01*
X63042800Y-83351038D01*
X63267081Y-83892501D01*
X63681499Y-84306919D01*
X63733933Y-84328638D01*
X63660192Y-84562587D01*
X64516000Y-85418395D01*
X65371808Y-84562587D01*
X65298067Y-84328638D01*
X65350501Y-84306919D01*
X65764919Y-83892501D01*
X65989200Y-83351038D01*
X65989200Y-82832097D01*
X70651023Y-82832097D01*
X70677611Y-83417569D01*
X70850510Y-83834983D01*
X71100587Y-83913808D01*
X71956395Y-83058000D01*
X71100587Y-82202192D01*
X70850510Y-82281017D01*
X70651023Y-82832097D01*
X65989200Y-82832097D01*
X65989200Y-82764962D01*
X65764919Y-82223499D01*
X65350501Y-81809081D01*
X65299607Y-81788000D01*
X65350501Y-81766919D01*
X65764919Y-81352501D01*
X65989200Y-80811038D01*
X65989200Y-80224962D01*
X65958341Y-80150461D01*
X66100802Y-80008000D01*
X70752668Y-80008000D01*
X70662800Y-80224962D01*
X70662800Y-80811038D01*
X70887081Y-81352501D01*
X71301499Y-81766919D01*
X71353933Y-81788638D01*
X71280192Y-82022587D01*
X72136000Y-82878395D01*
X72991808Y-82022587D01*
X72918067Y-81788638D01*
X72970501Y-81766919D01*
X73384919Y-81352501D01*
X73609200Y-80811038D01*
X73609200Y-80224962D01*
X73384919Y-79683499D01*
X73300511Y-79599091D01*
X94465473Y-58434129D01*
X94528929Y-58391729D01*
X94696904Y-58140337D01*
X94741000Y-57918652D01*
X94741000Y-57918647D01*
X94755888Y-57843800D01*
X94741000Y-57768953D01*
X94741000Y-55524478D01*
X95051625Y-55316925D01*
X95251000Y-55018539D01*
X95450375Y-55316925D01*
X95941582Y-55645139D01*
X96374744Y-55731300D01*
X96667256Y-55731300D01*
X97031001Y-55658947D01*
X97031000Y-59628198D01*
X73610305Y-83048894D01*
X73594389Y-82698431D01*
X73421490Y-82281017D01*
X73171413Y-82202192D01*
X72315605Y-83058000D01*
X72329748Y-83072143D01*
X72150143Y-83251748D01*
X72136000Y-83237605D01*
X71280192Y-84093413D01*
X71353933Y-84327362D01*
X71301499Y-84349081D01*
X70887081Y-84763499D01*
X70662800Y-85304962D01*
X70662800Y-85891038D01*
X70887081Y-86432501D01*
X71301499Y-86846919D01*
X71842962Y-87071200D01*
X72429038Y-87071200D01*
X72970501Y-86846919D01*
X73384919Y-86432501D01*
X73609200Y-85891038D01*
X73609200Y-85304962D01*
X73578341Y-85230461D01*
X98111057Y-60697745D01*
X123163861Y-60697745D01*
X123237995Y-60943864D01*
X123775223Y-61136965D01*
X124345454Y-61109778D01*
X124746005Y-60943864D01*
X124820139Y-60697745D01*
X123992000Y-59869605D01*
X123163861Y-60697745D01*
X98111057Y-60697745D01*
X98275473Y-60533329D01*
X98338929Y-60490929D01*
X98506904Y-60239537D01*
X98551000Y-60017852D01*
X98551000Y-60017847D01*
X98565888Y-59943000D01*
X98551000Y-59868153D01*
X98551000Y-59473223D01*
X122545035Y-59473223D01*
X122572222Y-60043454D01*
X122738136Y-60444005D01*
X122984255Y-60518139D01*
X123812395Y-59690000D01*
X124171605Y-59690000D01*
X124999745Y-60518139D01*
X125047307Y-60503813D01*
X125093843Y-60737765D01*
X125234191Y-60947809D01*
X125444235Y-61088157D01*
X125692000Y-61137440D01*
X127292000Y-61137440D01*
X127539765Y-61088157D01*
X127749809Y-60947809D01*
X127890157Y-60737765D01*
X127939440Y-60490000D01*
X127939440Y-58890000D01*
X127890157Y-58642235D01*
X127749809Y-58432191D01*
X127539765Y-58291843D01*
X127292000Y-58242560D01*
X125692000Y-58242560D01*
X125444235Y-58291843D01*
X125234191Y-58432191D01*
X125093843Y-58642235D01*
X125047307Y-58876187D01*
X124999745Y-58861861D01*
X124171605Y-59690000D01*
X123812395Y-59690000D01*
X122984255Y-58861861D01*
X122738136Y-58935995D01*
X122545035Y-59473223D01*
X98551000Y-59473223D01*
X98551000Y-58682255D01*
X123163861Y-58682255D01*
X123992000Y-59510395D01*
X124820139Y-58682255D01*
X124746005Y-58436136D01*
X124208777Y-58243035D01*
X123638546Y-58270222D01*
X123237995Y-58436136D01*
X123163861Y-58682255D01*
X98551000Y-58682255D01*
X98551000Y-55658947D01*
X98914744Y-55731300D01*
X99207256Y-55731300D01*
X99640418Y-55645139D01*
X100131625Y-55316925D01*
X100331000Y-55018539D01*
X100530375Y-55316925D01*
X101021582Y-55645139D01*
X101454744Y-55731300D01*
X101747256Y-55731300D01*
X102180418Y-55645139D01*
X102671625Y-55316925D01*
X102871000Y-55018539D01*
X103070375Y-55316925D01*
X103561582Y-55645139D01*
X103994744Y-55731300D01*
X104287256Y-55731300D01*
X104720418Y-55645139D01*
X105211625Y-55316925D01*
X105424843Y-54997822D01*
X105485817Y-55127658D01*
X105914076Y-55517945D01*
X106324110Y-55687776D01*
X106554000Y-55566455D01*
X106554000Y-54373300D01*
X106534000Y-54373300D01*
X106534000Y-54119300D01*
X106554000Y-54119300D01*
X106554000Y-52926145D01*
X106808000Y-52926145D01*
X106808000Y-54119300D01*
X106828000Y-54119300D01*
X106828000Y-54373300D01*
X106808000Y-54373300D01*
X106808000Y-55566455D01*
X107037890Y-55687776D01*
X107447924Y-55517945D01*
X107752261Y-55240592D01*
X107772843Y-55344065D01*
X107913191Y-55554109D01*
X108123235Y-55694457D01*
X108371000Y-55743740D01*
X110071000Y-55743740D01*
X110318765Y-55694457D01*
X110528809Y-55554109D01*
X110669157Y-55344065D01*
X110718440Y-55096300D01*
X110718440Y-53396300D01*
X110690533Y-53256000D01*
X115346560Y-53256000D01*
X115346560Y-55456000D01*
X115395843Y-55703765D01*
X115536191Y-55913809D01*
X115746235Y-56054157D01*
X115994000Y-56103440D01*
X118194000Y-56103440D01*
X118441765Y-56054157D01*
X118651809Y-55913809D01*
X118792157Y-55703765D01*
X118841440Y-55456000D01*
X118841440Y-53256000D01*
X118792157Y-53008235D01*
X118651809Y-52798191D01*
X118441765Y-52657843D01*
X118194000Y-52608560D01*
X115994000Y-52608560D01*
X115746235Y-52657843D01*
X115536191Y-52798191D01*
X115395843Y-53008235D01*
X115346560Y-53256000D01*
X110690533Y-53256000D01*
X110669157Y-53148535D01*
X110528809Y-52938491D01*
X110318765Y-52798143D01*
X110071000Y-52748860D01*
X108371000Y-52748860D01*
X108123235Y-52798143D01*
X107913191Y-52938491D01*
X107772843Y-53148535D01*
X107752261Y-53252008D01*
X107447924Y-52974655D01*
X107037890Y-52804824D01*
X106808000Y-52926145D01*
X106554000Y-52926145D01*
X106324110Y-52804824D01*
X105914076Y-52974655D01*
X105485817Y-53364942D01*
X105424843Y-53494778D01*
X105211625Y-53175675D01*
X104720418Y-52847461D01*
X104287256Y-52761300D01*
X103994744Y-52761300D01*
X103561582Y-52847461D01*
X103070375Y-53175675D01*
X102871000Y-53474061D01*
X102671625Y-53175675D01*
X102180418Y-52847461D01*
X101747256Y-52761300D01*
X101454744Y-52761300D01*
X101021582Y-52847461D01*
X100530375Y-53175675D01*
X100331000Y-53474061D01*
X100131625Y-53175675D01*
X99640418Y-52847461D01*
X99207256Y-52761300D01*
X98914744Y-52761300D01*
X98551000Y-52833653D01*
X98551000Y-52821501D01*
X99838473Y-51534029D01*
X99901929Y-51491629D01*
X100061109Y-51253400D01*
X100069904Y-51240238D01*
X100092222Y-51128037D01*
X100109896Y-51039186D01*
X100388577Y-50852977D01*
X100705740Y-50378309D01*
X100817113Y-49818400D01*
X100760336Y-49532961D01*
X105539000Y-49532961D01*
X105539000Y-50103839D01*
X105757466Y-50631262D01*
X106161138Y-51034934D01*
X106688561Y-51253400D01*
X107259439Y-51253400D01*
X107786862Y-51034934D01*
X108190534Y-50631262D01*
X108409000Y-50103839D01*
X108409000Y-50008000D01*
X122512560Y-50008000D01*
X122512560Y-52608000D01*
X122561843Y-52855765D01*
X122702191Y-53065809D01*
X122912235Y-53206157D01*
X123160000Y-53255440D01*
X125760000Y-53255440D01*
X126007765Y-53206157D01*
X126217809Y-53065809D01*
X126358157Y-52855765D01*
X126407440Y-52608000D01*
X126407440Y-50008000D01*
X126358157Y-49760235D01*
X126217809Y-49550191D01*
X126007765Y-49409843D01*
X125760000Y-49360560D01*
X123160000Y-49360560D01*
X122912235Y-49409843D01*
X122702191Y-49550191D01*
X122561843Y-49760235D01*
X122512560Y-50008000D01*
X108409000Y-50008000D01*
X108409000Y-49532961D01*
X108190534Y-49005538D01*
X107786862Y-48601866D01*
X107259439Y-48383400D01*
X106688561Y-48383400D01*
X106161138Y-48601866D01*
X105757466Y-49005538D01*
X105539000Y-49532961D01*
X100760336Y-49532961D01*
X100705740Y-49258491D01*
X100388577Y-48783823D01*
X99913909Y-48466660D01*
X99495333Y-48383400D01*
X99212667Y-48383400D01*
X98794091Y-48466660D01*
X98319423Y-48783823D01*
X98002260Y-49258491D01*
X97890887Y-49818400D01*
X98002260Y-50378309D01*
X98319423Y-50852977D01*
X98349695Y-50873204D01*
X97306528Y-51916371D01*
X97243072Y-51958771D01*
X97200672Y-52022227D01*
X97200671Y-52022228D01*
X97075097Y-52210163D01*
X97016112Y-52506700D01*
X97031001Y-52581552D01*
X97031001Y-52833653D01*
X96667256Y-52761300D01*
X96374744Y-52761300D01*
X95941582Y-52847461D01*
X95450375Y-53175675D01*
X95251000Y-53474061D01*
X95051625Y-53175675D01*
X94560418Y-52847461D01*
X94127256Y-52761300D01*
X93834744Y-52761300D01*
X93401582Y-52847461D01*
X92910375Y-53175675D01*
X92711000Y-53474061D01*
X92511625Y-53175675D01*
X92020418Y-52847461D01*
X91587256Y-52761300D01*
X91294744Y-52761300D01*
X90861582Y-52847461D01*
X90370375Y-53175675D01*
X90042161Y-53666882D01*
X89926908Y-54246300D01*
X90042161Y-54825718D01*
X90370375Y-55316925D01*
X90861582Y-55645139D01*
X91294744Y-55731300D01*
X91587256Y-55731300D01*
X92020418Y-55645139D01*
X92511625Y-55316925D01*
X92711000Y-55018539D01*
X92910375Y-55316925D01*
X93221001Y-55524478D01*
X93221000Y-57528998D01*
X73449818Y-77300180D01*
X73384919Y-77143499D01*
X72970501Y-76729081D01*
X72429038Y-76504800D01*
X71842962Y-76504800D01*
X71301499Y-76729081D01*
X70937580Y-77093000D01*
X70500879Y-77093000D01*
X57613725Y-64205847D01*
X57564349Y-64131951D01*
X57271610Y-63936348D01*
X57120722Y-63906335D01*
X57074157Y-63672235D01*
X56933809Y-63462191D01*
X56723765Y-63321843D01*
X56476000Y-63272560D01*
X54776000Y-63272560D01*
X54528235Y-63321843D01*
X54318191Y-63462191D01*
X54177843Y-63672235D01*
X54128560Y-63920000D01*
X40309000Y-63920000D01*
X40309000Y-50262000D01*
X42248560Y-50262000D01*
X42248560Y-52862000D01*
X42297843Y-53109765D01*
X42438191Y-53319809D01*
X42648235Y-53460157D01*
X42896000Y-53509440D01*
X45496000Y-53509440D01*
X45743765Y-53460157D01*
X45953809Y-53319809D01*
X46094157Y-53109765D01*
X46143440Y-52862000D01*
X46143440Y-50262000D01*
X46094157Y-50014235D01*
X45953809Y-49804191D01*
X45743765Y-49663843D01*
X45496000Y-49614560D01*
X42896000Y-49614560D01*
X42648235Y-49663843D01*
X42438191Y-49804191D01*
X42297843Y-50014235D01*
X42248560Y-50262000D01*
X40309000Y-50262000D01*
X40309000Y-47931459D01*
X43006146Y-47931459D01*
X43141504Y-48229455D01*
X43859880Y-48506066D01*
X44629427Y-48486710D01*
X45250496Y-48229455D01*
X45385854Y-47931459D01*
X44196000Y-46741605D01*
X43006146Y-47931459D01*
X40309000Y-47931459D01*
X40309000Y-46225880D01*
X42251934Y-46225880D01*
X42271290Y-46995427D01*
X42528545Y-47616496D01*
X42826541Y-47751854D01*
X44016395Y-46562000D01*
X44375605Y-46562000D01*
X45565459Y-47751854D01*
X45863455Y-47616496D01*
X46140066Y-46898120D01*
X46120710Y-46128573D01*
X45863455Y-45507504D01*
X45565459Y-45372146D01*
X44375605Y-46562000D01*
X44016395Y-46562000D01*
X42826541Y-45372146D01*
X42528545Y-45507504D01*
X42251934Y-46225880D01*
X40309000Y-46225880D01*
X40309000Y-45192541D01*
X43006146Y-45192541D01*
X44196000Y-46382395D01*
X45385854Y-45192541D01*
X45250496Y-44894545D01*
X44532120Y-44617934D01*
X43762573Y-44637290D01*
X43141504Y-44894545D01*
X43006146Y-45192541D01*
X40309000Y-45192541D01*
X40309000Y-42819459D01*
X52276146Y-42819459D01*
X52411504Y-43117455D01*
X53129880Y-43394066D01*
X53899427Y-43374710D01*
X54441925Y-43150000D01*
X56218560Y-43150000D01*
X56218560Y-45750000D01*
X56267843Y-45997765D01*
X56408191Y-46207809D01*
X56618235Y-46348157D01*
X56866000Y-46397440D01*
X59466000Y-46397440D01*
X59713765Y-46348157D01*
X59923809Y-46207809D01*
X60064157Y-45997765D01*
X60088766Y-45874045D01*
X60507977Y-46293256D01*
X60557351Y-46367149D01*
X60631244Y-46416523D01*
X60631245Y-46416524D01*
X60737625Y-46487605D01*
X60850090Y-46562752D01*
X61108235Y-46614100D01*
X61108239Y-46614100D01*
X61195400Y-46631437D01*
X61282561Y-46614100D01*
X68483739Y-46614100D01*
X68570900Y-46631437D01*
X68658061Y-46614100D01*
X68658065Y-46614100D01*
X68916210Y-46562752D01*
X69208949Y-46367149D01*
X69258325Y-46293253D01*
X69654138Y-45897440D01*
X70650000Y-45897440D01*
X70897765Y-45848157D01*
X71107809Y-45707809D01*
X71248157Y-45497765D01*
X71297440Y-45250000D01*
X71297440Y-43650000D01*
X71294994Y-43637700D01*
X73975660Y-43637700D01*
X73975660Y-45637700D01*
X74024943Y-45885465D01*
X74165291Y-46095509D01*
X74375335Y-46235857D01*
X74623100Y-46285140D01*
X74690600Y-46285140D01*
X74690601Y-49335303D01*
X74613066Y-49412838D01*
X74394600Y-49940261D01*
X74394600Y-50511139D01*
X74613066Y-51038562D01*
X75016738Y-51442234D01*
X75544161Y-51660700D01*
X76115039Y-51660700D01*
X76642462Y-51442234D01*
X76851251Y-51233445D01*
X80001461Y-51233445D01*
X80075595Y-51479564D01*
X80612823Y-51672665D01*
X81183054Y-51645478D01*
X81583605Y-51479564D01*
X81657739Y-51233445D01*
X80829600Y-50405305D01*
X80001461Y-51233445D01*
X76851251Y-51233445D01*
X77046134Y-51038562D01*
X77264600Y-50511139D01*
X77264600Y-50008923D01*
X79382635Y-50008923D01*
X79409822Y-50579154D01*
X79575736Y-50979705D01*
X79821855Y-51053839D01*
X80649995Y-50225700D01*
X81009205Y-50225700D01*
X81837345Y-51053839D01*
X82083464Y-50979705D01*
X82276565Y-50442477D01*
X82249378Y-49872246D01*
X82083464Y-49471695D01*
X81837345Y-49397561D01*
X81009205Y-50225700D01*
X80649995Y-50225700D01*
X79821855Y-49397561D01*
X79575736Y-49471695D01*
X79382635Y-50008923D01*
X77264600Y-50008923D01*
X77264600Y-49940261D01*
X77046134Y-49412838D01*
X76851251Y-49217955D01*
X80001461Y-49217955D01*
X80829600Y-50046095D01*
X81657739Y-49217955D01*
X81583605Y-48971836D01*
X81046377Y-48778735D01*
X80476146Y-48805922D01*
X80075595Y-48971836D01*
X80001461Y-49217955D01*
X76851251Y-49217955D01*
X76642462Y-49009166D01*
X76460600Y-48933836D01*
X76460600Y-47677459D01*
X123270146Y-47677459D01*
X123405504Y-47975455D01*
X124123880Y-48252066D01*
X124893427Y-48232710D01*
X125514496Y-47975455D01*
X125649854Y-47677459D01*
X124460000Y-46487605D01*
X123270146Y-47677459D01*
X76460600Y-47677459D01*
X76460600Y-46285140D01*
X76528100Y-46285140D01*
X76775865Y-46235857D01*
X76985909Y-46095509D01*
X77122855Y-45890557D01*
X77248676Y-46013673D01*
X77742620Y-46228263D01*
X77988600Y-46108294D01*
X77988600Y-44764700D01*
X77968600Y-44764700D01*
X77968600Y-44510700D01*
X77988600Y-44510700D01*
X77988600Y-43167106D01*
X78242600Y-43167106D01*
X78242600Y-44510700D01*
X78262600Y-44510700D01*
X78262600Y-44764700D01*
X78242600Y-44764700D01*
X78242600Y-46108294D01*
X78488580Y-46228263D01*
X78982524Y-46013673D01*
X79376441Y-45628226D01*
X79511077Y-45829723D01*
X80036190Y-46180591D01*
X80655600Y-46303800D01*
X81275011Y-46180591D01*
X81800123Y-45829723D01*
X82150991Y-45304610D01*
X82243100Y-44841549D01*
X82243100Y-44433850D01*
X82150991Y-43970789D01*
X81986910Y-43725223D01*
X85199035Y-43725223D01*
X85226222Y-44295454D01*
X85392136Y-44696005D01*
X85638255Y-44770139D01*
X86466395Y-43942000D01*
X85638255Y-43113861D01*
X85392136Y-43187995D01*
X85199035Y-43725223D01*
X81986910Y-43725223D01*
X81800123Y-43445677D01*
X81275010Y-43094809D01*
X80655600Y-42971600D01*
X80036189Y-43094809D01*
X79511077Y-43445677D01*
X79376441Y-43647174D01*
X78982524Y-43261727D01*
X78488580Y-43047137D01*
X78242600Y-43167106D01*
X77988600Y-43167106D01*
X77742620Y-43047137D01*
X77248676Y-43261727D01*
X77122855Y-43384843D01*
X76985909Y-43179891D01*
X76775865Y-43039543D01*
X76528100Y-42990260D01*
X74623100Y-42990260D01*
X74375335Y-43039543D01*
X74165291Y-43179891D01*
X74024943Y-43389935D01*
X73975660Y-43637700D01*
X71294994Y-43637700D01*
X71248157Y-43402235D01*
X71107809Y-43192191D01*
X70897765Y-43051843D01*
X70650000Y-43002560D01*
X69050000Y-43002560D01*
X68802235Y-43051843D01*
X68592484Y-43191995D01*
X68066777Y-43003035D01*
X67496546Y-43030222D01*
X67095995Y-43196136D01*
X67021861Y-43442255D01*
X67850000Y-44270395D01*
X67864142Y-44256252D01*
X68043748Y-44435858D01*
X68029605Y-44450000D01*
X68043748Y-44464142D01*
X67864143Y-44643748D01*
X67850000Y-44629605D01*
X67835858Y-44643748D01*
X67656253Y-44464143D01*
X67670395Y-44450000D01*
X66842255Y-43621861D01*
X66596136Y-43695995D01*
X66403035Y-44233223D01*
X66430222Y-44803454D01*
X66447058Y-44844100D01*
X61561979Y-44844100D01*
X60603725Y-43885847D01*
X60554349Y-43811951D01*
X60261610Y-43616348D01*
X60113440Y-43586875D01*
X60113440Y-43150000D01*
X60070527Y-42934255D01*
X85817861Y-42934255D01*
X86646000Y-43762395D01*
X86660142Y-43748252D01*
X86839748Y-43927858D01*
X86825605Y-43942000D01*
X86839748Y-43956143D01*
X86660142Y-44135748D01*
X86646000Y-44121605D01*
X85817861Y-44949745D01*
X85891995Y-45195864D01*
X86429223Y-45388965D01*
X86999454Y-45361778D01*
X87389067Y-45200395D01*
X87598235Y-45340157D01*
X87846000Y-45389440D01*
X89446000Y-45389440D01*
X89693765Y-45340157D01*
X89903809Y-45199809D01*
X90044157Y-44989765D01*
X90093440Y-44742000D01*
X90093440Y-43738400D01*
X97754060Y-43738400D01*
X97754060Y-45738400D01*
X97803343Y-45986165D01*
X97943691Y-46196209D01*
X98153735Y-46336557D01*
X98401500Y-46385840D01*
X100306500Y-46385840D01*
X100554265Y-46336557D01*
X100764309Y-46196209D01*
X100882509Y-46019312D01*
X101274590Y-46281291D01*
X101894000Y-46404500D01*
X102513411Y-46281291D01*
X103038523Y-45930423D01*
X103164000Y-45742633D01*
X103289477Y-45930423D01*
X103814590Y-46281291D01*
X104434000Y-46404500D01*
X105053411Y-46281291D01*
X105516478Y-45971880D01*
X122515934Y-45971880D01*
X122535290Y-46741427D01*
X122792545Y-47362496D01*
X123090541Y-47497854D01*
X124280395Y-46308000D01*
X124639605Y-46308000D01*
X125829459Y-47497854D01*
X126127455Y-47362496D01*
X126404066Y-46644120D01*
X126384710Y-45874573D01*
X126127455Y-45253504D01*
X125829459Y-45118146D01*
X124639605Y-46308000D01*
X124280395Y-46308000D01*
X123090541Y-45118146D01*
X122792545Y-45253504D01*
X122515934Y-45971880D01*
X105516478Y-45971880D01*
X105578523Y-45930423D01*
X105929391Y-45405310D01*
X106021500Y-44942249D01*
X106021500Y-44592123D01*
X115404817Y-44592123D01*
X115684988Y-45208392D01*
X116179668Y-45670534D01*
X116697878Y-45885175D01*
X116967000Y-45767125D01*
X116967000Y-44323000D01*
X117221000Y-44323000D01*
X117221000Y-45767125D01*
X117490122Y-45885175D01*
X118008332Y-45670534D01*
X118503012Y-45208392D01*
X118625692Y-44938541D01*
X123270146Y-44938541D01*
X124460000Y-46128395D01*
X125649854Y-44938541D01*
X125514496Y-44640545D01*
X124796120Y-44363934D01*
X124026573Y-44383290D01*
X123405504Y-44640545D01*
X123270146Y-44938541D01*
X118625692Y-44938541D01*
X118783183Y-44592123D01*
X118665604Y-44323000D01*
X117221000Y-44323000D01*
X116967000Y-44323000D01*
X115522396Y-44323000D01*
X115404817Y-44592123D01*
X106021500Y-44592123D01*
X106021500Y-44534550D01*
X105929391Y-44071489D01*
X105747906Y-43799877D01*
X115404817Y-43799877D01*
X115522396Y-44069000D01*
X116967000Y-44069000D01*
X116967000Y-42624875D01*
X117221000Y-42624875D01*
X117221000Y-44069000D01*
X118665604Y-44069000D01*
X118783183Y-43799877D01*
X118503012Y-43183608D01*
X118008332Y-42721466D01*
X117490122Y-42506825D01*
X117221000Y-42624875D01*
X116967000Y-42624875D01*
X116697878Y-42506825D01*
X116179668Y-42721466D01*
X115684988Y-43183608D01*
X115404817Y-43799877D01*
X105747906Y-43799877D01*
X105578523Y-43546377D01*
X105053410Y-43195509D01*
X104434000Y-43072300D01*
X103814589Y-43195509D01*
X103289477Y-43546377D01*
X103164000Y-43734167D01*
X103038523Y-43546377D01*
X102513410Y-43195509D01*
X101894000Y-43072300D01*
X101274589Y-43195509D01*
X100882509Y-43457488D01*
X100764309Y-43280591D01*
X100554265Y-43140243D01*
X100306500Y-43090960D01*
X98401500Y-43090960D01*
X98153735Y-43140243D01*
X97943691Y-43280591D01*
X97803343Y-43490635D01*
X97754060Y-43738400D01*
X90093440Y-43738400D01*
X90093440Y-43142000D01*
X90044157Y-42894235D01*
X89903809Y-42684191D01*
X89693765Y-42543843D01*
X89446000Y-42494560D01*
X87846000Y-42494560D01*
X87598235Y-42543843D01*
X87388484Y-42683995D01*
X86862777Y-42495035D01*
X86292546Y-42522222D01*
X85891995Y-42688136D01*
X85817861Y-42934255D01*
X60070527Y-42934255D01*
X60064157Y-42902235D01*
X59923809Y-42692191D01*
X59713765Y-42551843D01*
X59466000Y-42502560D01*
X56866000Y-42502560D01*
X56618235Y-42551843D01*
X56408191Y-42692191D01*
X56267843Y-42902235D01*
X56218560Y-43150000D01*
X54441925Y-43150000D01*
X54520496Y-43117455D01*
X54655854Y-42819459D01*
X53466000Y-41629605D01*
X52276146Y-42819459D01*
X40309000Y-42819459D01*
X40309000Y-41113880D01*
X51521934Y-41113880D01*
X51541290Y-41883427D01*
X51798545Y-42504496D01*
X52096541Y-42639854D01*
X53286395Y-41450000D01*
X53645605Y-41450000D01*
X54835459Y-42639854D01*
X55133455Y-42504496D01*
X55410066Y-41786120D01*
X55390710Y-41016573D01*
X55133455Y-40395504D01*
X54835459Y-40260146D01*
X53645605Y-41450000D01*
X53286395Y-41450000D01*
X52096541Y-40260146D01*
X51798545Y-40395504D01*
X51521934Y-41113880D01*
X40309000Y-41113880D01*
X40309000Y-38929403D01*
X41036874Y-39657277D01*
X42262627Y-40165000D01*
X43589373Y-40165000D01*
X43793275Y-40080541D01*
X52276146Y-40080541D01*
X53466000Y-41270395D01*
X54655854Y-40080541D01*
X54537264Y-39819459D01*
X56976146Y-39819459D01*
X57111504Y-40117455D01*
X57829880Y-40394066D01*
X58599427Y-40374710D01*
X59220496Y-40117455D01*
X59355854Y-39819459D01*
X58166000Y-38629605D01*
X56976146Y-39819459D01*
X54537264Y-39819459D01*
X54520496Y-39782545D01*
X53802120Y-39505934D01*
X53032573Y-39525290D01*
X52411504Y-39782545D01*
X52276146Y-40080541D01*
X43793275Y-40080541D01*
X44815126Y-39657277D01*
X45753277Y-38719126D01*
X46003977Y-38113880D01*
X56221934Y-38113880D01*
X56241290Y-38883427D01*
X56498545Y-39504496D01*
X56796541Y-39639854D01*
X57986395Y-38450000D01*
X58345605Y-38450000D01*
X59535459Y-39639854D01*
X59833455Y-39504496D01*
X60110066Y-38786120D01*
X60090710Y-38016573D01*
X59833455Y-37395504D01*
X59535459Y-37260146D01*
X58345605Y-38450000D01*
X57986395Y-38450000D01*
X56796541Y-37260146D01*
X56498545Y-37395504D01*
X56221934Y-38113880D01*
X46003977Y-38113880D01*
X46261000Y-37493373D01*
X46261000Y-37080541D01*
X56976146Y-37080541D01*
X58166000Y-38270395D01*
X59355854Y-37080541D01*
X59220496Y-36782545D01*
X58502120Y-36505934D01*
X57732573Y-36525290D01*
X57111504Y-36782545D01*
X56976146Y-37080541D01*
X46261000Y-37080541D01*
X46261000Y-36166627D01*
X45753277Y-34940874D01*
X45025403Y-34213000D01*
X124646597Y-34213000D01*
X123918723Y-34940874D01*
X123918723Y-34940874D01*
G37*
X123918723Y-34940874D02*
X123411000Y-36166627D01*
X123411000Y-37493373D01*
X123918723Y-38719126D01*
X124856874Y-39657277D01*
X126082627Y-40165000D01*
X127409373Y-40165000D01*
X128635126Y-39657277D01*
X129363000Y-38929403D01*
X129363001Y-88578598D01*
X128635126Y-87850723D01*
X127409373Y-87343000D01*
X126082627Y-87343000D01*
X124856874Y-87850723D01*
X123918723Y-88788874D01*
X123411000Y-90014627D01*
X123411000Y-91341373D01*
X123918723Y-92567126D01*
X124646597Y-93295000D01*
X44771403Y-93295000D01*
X45499277Y-92567126D01*
X46007000Y-91341373D01*
X46007000Y-90014627D01*
X45920709Y-89806300D01*
X89926908Y-89806300D01*
X90042161Y-90385718D01*
X90370375Y-90876925D01*
X90861582Y-91205139D01*
X91294744Y-91291300D01*
X91587256Y-91291300D01*
X92020418Y-91205139D01*
X92511625Y-90876925D01*
X92711000Y-90578539D01*
X92910375Y-90876925D01*
X93401582Y-91205139D01*
X93834744Y-91291300D01*
X94127256Y-91291300D01*
X94560418Y-91205139D01*
X95051625Y-90876925D01*
X95251000Y-90578539D01*
X95450375Y-90876925D01*
X95941582Y-91205139D01*
X96374744Y-91291300D01*
X96667256Y-91291300D01*
X97100418Y-91205139D01*
X97591625Y-90876925D01*
X97791000Y-90578539D01*
X97990375Y-90876925D01*
X98481582Y-91205139D01*
X98914744Y-91291300D01*
X99207256Y-91291300D01*
X99640418Y-91205139D01*
X100131625Y-90876925D01*
X100331000Y-90578539D01*
X100530375Y-90876925D01*
X101021582Y-91205139D01*
X101454744Y-91291300D01*
X101747256Y-91291300D01*
X102180418Y-91205139D01*
X102671625Y-90876925D01*
X102871000Y-90578539D01*
X103070375Y-90876925D01*
X103561582Y-91205139D01*
X103994744Y-91291300D01*
X104287256Y-91291300D01*
X104720418Y-91205139D01*
X105211625Y-90876925D01*
X105411000Y-90578539D01*
X105610375Y-90876925D01*
X106101582Y-91205139D01*
X106534744Y-91291300D01*
X106827256Y-91291300D01*
X107260418Y-91205139D01*
X107751625Y-90876925D01*
X107763816Y-90858681D01*
X107772843Y-90904065D01*
X107913191Y-91114109D01*
X108123235Y-91254457D01*
X108371000Y-91303740D01*
X110071000Y-91303740D01*
X110318765Y-91254457D01*
X110528809Y-91114109D01*
X110669157Y-90904065D01*
X110718440Y-90656300D01*
X110718440Y-88956300D01*
X110669157Y-88708535D01*
X110528809Y-88498491D01*
X110318765Y-88358143D01*
X110071000Y-88308860D01*
X108371000Y-88308860D01*
X108123235Y-88358143D01*
X107913191Y-88498491D01*
X107772843Y-88708535D01*
X107763816Y-88753919D01*
X107751625Y-88735675D01*
X107260418Y-88407461D01*
X106827256Y-88321300D01*
X106534744Y-88321300D01*
X106101582Y-88407461D01*
X105610375Y-88735675D01*
X105411000Y-89034061D01*
X105211625Y-88735675D01*
X104720418Y-88407461D01*
X104287256Y-88321300D01*
X103994744Y-88321300D01*
X103561582Y-88407461D01*
X103070375Y-88735675D01*
X102871000Y-89034061D01*
X102671625Y-88735675D01*
X102180418Y-88407461D01*
X101747256Y-88321300D01*
X101454744Y-88321300D01*
X101021582Y-88407461D01*
X100530375Y-88735675D01*
X100331000Y-89034061D01*
X100131625Y-88735675D01*
X99640418Y-88407461D01*
X99207256Y-88321300D01*
X98914744Y-88321300D01*
X98481582Y-88407461D01*
X97990375Y-88735675D01*
X97791000Y-89034061D01*
X97591625Y-88735675D01*
X97100418Y-88407461D01*
X96667256Y-88321300D01*
X96374744Y-88321300D01*
X95941582Y-88407461D01*
X95450375Y-88735675D01*
X95251000Y-89034061D01*
X95051625Y-88735675D01*
X94560418Y-88407461D01*
X94127256Y-88321300D01*
X93834744Y-88321300D01*
X93401582Y-88407461D01*
X92910375Y-88735675D01*
X92711000Y-89034061D01*
X92511625Y-88735675D01*
X92020418Y-88407461D01*
X91587256Y-88321300D01*
X91294744Y-88321300D01*
X90861582Y-88407461D01*
X90370375Y-88735675D01*
X90042161Y-89226882D01*
X89926908Y-89806300D01*
X45920709Y-89806300D01*
X45499277Y-88788874D01*
X44561126Y-87850723D01*
X43335373Y-87343000D01*
X42008627Y-87343000D01*
X40782874Y-87850723D01*
X40309000Y-88324597D01*
X40309000Y-86633413D01*
X63660192Y-86633413D01*
X63739017Y-86883490D01*
X64290097Y-87082977D01*
X64875569Y-87056389D01*
X65292983Y-86883490D01*
X65371808Y-86633413D01*
X64516000Y-85777605D01*
X63660192Y-86633413D01*
X40309000Y-86633413D01*
X40309000Y-85372097D01*
X63031023Y-85372097D01*
X63057611Y-85957569D01*
X63230510Y-86374983D01*
X63480587Y-86453808D01*
X64336395Y-85598000D01*
X64695605Y-85598000D01*
X65551413Y-86453808D01*
X65801490Y-86374983D01*
X66000977Y-85823903D01*
X65974389Y-85238431D01*
X65801490Y-84821017D01*
X65551413Y-84742192D01*
X64695605Y-85598000D01*
X64336395Y-85598000D01*
X63480587Y-84742192D01*
X63230510Y-84821017D01*
X63031023Y-85372097D01*
X40309000Y-85372097D01*
X40309000Y-69850000D01*
X54111908Y-69850000D01*
X54227161Y-70429418D01*
X54555375Y-70920625D01*
X54853761Y-71120000D01*
X54555375Y-71319375D01*
X54227161Y-71810582D01*
X54111908Y-72390000D01*
X54227161Y-72969418D01*
X54555375Y-73460625D01*
X54853761Y-73660000D01*
X54555375Y-73859375D01*
X54227161Y-74350582D01*
X54111908Y-74930000D01*
X54227161Y-75509418D01*
X54555375Y-76000625D01*
X54853761Y-76200000D01*
X54555375Y-76399375D01*
X54227161Y-76890582D01*
X54111908Y-77470000D01*
X54227161Y-78049418D01*
X54555375Y-78540625D01*
X55046582Y-78868839D01*
X55479744Y-78955000D01*
X55772256Y-78955000D01*
X56205418Y-78868839D01*
X56696625Y-78540625D01*
X57024839Y-78049418D01*
X57140092Y-77470000D01*
X57024839Y-76890582D01*
X56696625Y-76399375D01*
X56398239Y-76200000D01*
X56696625Y-76000625D01*
X57024839Y-75509418D01*
X57140092Y-74930000D01*
X57024839Y-74350582D01*
X56696625Y-73859375D01*
X56398239Y-73660000D01*
X56696625Y-73460625D01*
X57024839Y-72969418D01*
X57140092Y-72390000D01*
X57024839Y-71810582D01*
X56696625Y-71319375D01*
X56398239Y-71120000D01*
X56696625Y-70920625D01*
X57024839Y-70429418D01*
X57140092Y-69850000D01*
X57024839Y-69270582D01*
X56696625Y-68779375D01*
X56377522Y-68566157D01*
X56507358Y-68505183D01*
X56897645Y-68076924D01*
X57067476Y-67666890D01*
X56946155Y-67437000D01*
X55753000Y-67437000D01*
X55753000Y-67457000D01*
X55499000Y-67457000D01*
X55499000Y-67437000D01*
X54305845Y-67437000D01*
X54184524Y-67666890D01*
X54354355Y-68076924D01*
X54744642Y-68505183D01*
X54874478Y-68566157D01*
X54555375Y-68779375D01*
X54227161Y-69270582D01*
X54111908Y-69850000D01*
X40309000Y-69850000D01*
X40309000Y-63920000D01*
X54128560Y-63920000D01*
X54128560Y-65620000D01*
X54177843Y-65867765D01*
X54318191Y-66077809D01*
X54528235Y-66218157D01*
X54631708Y-66238739D01*
X54354355Y-66543076D01*
X54184524Y-66953110D01*
X54305845Y-67183000D01*
X55499000Y-67183000D01*
X55499000Y-67163000D01*
X55753000Y-67163000D01*
X55753000Y-67183000D01*
X56946155Y-67183000D01*
X57067476Y-66953110D01*
X56897645Y-66543076D01*
X56620292Y-66238739D01*
X56723765Y-66218157D01*
X56933809Y-66077809D01*
X56953324Y-66048602D01*
X69392721Y-78488000D01*
X66001640Y-78488000D01*
X66001640Y-77139800D01*
X65952357Y-76892035D01*
X65812009Y-76681991D01*
X65601965Y-76541643D01*
X65354200Y-76492360D01*
X63677800Y-76492360D01*
X63430035Y-76541643D01*
X63219991Y-76681991D01*
X63079643Y-76892035D01*
X63030360Y-77139800D01*
X63030360Y-78816200D01*
X63079643Y-79063965D01*
X63219991Y-79274009D01*
X63430035Y-79414357D01*
X63518605Y-79431975D01*
X63267081Y-79683499D01*
X63042800Y-80224962D01*
X63042800Y-80811038D01*
X63267081Y-81352501D01*
X63681499Y-81766919D01*
X63732393Y-81788000D01*
X63681499Y-81809081D01*
X63267081Y-82223499D01*
X63042800Y-82764962D01*
X63042800Y-83351038D01*
X63267081Y-83892501D01*
X63681499Y-84306919D01*
X63733933Y-84328638D01*
X63660192Y-84562587D01*
X64516000Y-85418395D01*
X65371808Y-84562587D01*
X65298067Y-84328638D01*
X65350501Y-84306919D01*
X65764919Y-83892501D01*
X65989200Y-83351038D01*
X65989200Y-82832097D01*
X70651023Y-82832097D01*
X70677611Y-83417569D01*
X70850510Y-83834983D01*
X71100587Y-83913808D01*
X71956395Y-83058000D01*
X71100587Y-82202192D01*
X70850510Y-82281017D01*
X70651023Y-82832097D01*
X65989200Y-82832097D01*
X65989200Y-82764962D01*
X65764919Y-82223499D01*
X65350501Y-81809081D01*
X65299607Y-81788000D01*
X65350501Y-81766919D01*
X65764919Y-81352501D01*
X65989200Y-80811038D01*
X65989200Y-80224962D01*
X65958341Y-80150461D01*
X66100802Y-80008000D01*
X70752668Y-80008000D01*
X70662800Y-80224962D01*
X70662800Y-80811038D01*
X70887081Y-81352501D01*
X71301499Y-81766919D01*
X71353933Y-81788638D01*
X71280192Y-82022587D01*
X72136000Y-82878395D01*
X72991808Y-82022587D01*
X72918067Y-81788638D01*
X72970501Y-81766919D01*
X73384919Y-81352501D01*
X73609200Y-80811038D01*
X73609200Y-80224962D01*
X73384919Y-79683499D01*
X73300511Y-79599091D01*
X94465473Y-58434129D01*
X94528929Y-58391729D01*
X94696904Y-58140337D01*
X94741000Y-57918652D01*
X94741000Y-57918647D01*
X94755888Y-57843800D01*
X94741000Y-57768953D01*
X94741000Y-55524478D01*
X95051625Y-55316925D01*
X95251000Y-55018539D01*
X95450375Y-55316925D01*
X95941582Y-55645139D01*
X96374744Y-55731300D01*
X96667256Y-55731300D01*
X97031001Y-55658947D01*
X97031000Y-59628198D01*
X73610305Y-83048894D01*
X73594389Y-82698431D01*
X73421490Y-82281017D01*
X73171413Y-82202192D01*
X72315605Y-83058000D01*
X72329748Y-83072143D01*
X72150143Y-83251748D01*
X72136000Y-83237605D01*
X71280192Y-84093413D01*
X71353933Y-84327362D01*
X71301499Y-84349081D01*
X70887081Y-84763499D01*
X70662800Y-85304962D01*
X70662800Y-85891038D01*
X70887081Y-86432501D01*
X71301499Y-86846919D01*
X71842962Y-87071200D01*
X72429038Y-87071200D01*
X72970501Y-86846919D01*
X73384919Y-86432501D01*
X73609200Y-85891038D01*
X73609200Y-85304962D01*
X73578341Y-85230461D01*
X98111057Y-60697745D01*
X123163861Y-60697745D01*
X123237995Y-60943864D01*
X123775223Y-61136965D01*
X124345454Y-61109778D01*
X124746005Y-60943864D01*
X124820139Y-60697745D01*
X123992000Y-59869605D01*
X123163861Y-60697745D01*
X98111057Y-60697745D01*
X98275473Y-60533329D01*
X98338929Y-60490929D01*
X98506904Y-60239537D01*
X98551000Y-60017852D01*
X98551000Y-60017847D01*
X98565888Y-59943000D01*
X98551000Y-59868153D01*
X98551000Y-59473223D01*
X122545035Y-59473223D01*
X122572222Y-60043454D01*
X122738136Y-60444005D01*
X122984255Y-60518139D01*
X123812395Y-59690000D01*
X124171605Y-59690000D01*
X124999745Y-60518139D01*
X125047307Y-60503813D01*
X125093843Y-60737765D01*
X125234191Y-60947809D01*
X125444235Y-61088157D01*
X125692000Y-61137440D01*
X127292000Y-61137440D01*
X127539765Y-61088157D01*
X127749809Y-60947809D01*
X127890157Y-60737765D01*
X127939440Y-60490000D01*
X127939440Y-58890000D01*
X127890157Y-58642235D01*
X127749809Y-58432191D01*
X127539765Y-58291843D01*
X127292000Y-58242560D01*
X125692000Y-58242560D01*
X125444235Y-58291843D01*
X125234191Y-58432191D01*
X125093843Y-58642235D01*
X125047307Y-58876187D01*
X124999745Y-58861861D01*
X124171605Y-59690000D01*
X123812395Y-59690000D01*
X122984255Y-58861861D01*
X122738136Y-58935995D01*
X122545035Y-59473223D01*
X98551000Y-59473223D01*
X98551000Y-58682255D01*
X123163861Y-58682255D01*
X123992000Y-59510395D01*
X124820139Y-58682255D01*
X124746005Y-58436136D01*
X124208777Y-58243035D01*
X123638546Y-58270222D01*
X123237995Y-58436136D01*
X123163861Y-58682255D01*
X98551000Y-58682255D01*
X98551000Y-55658947D01*
X98914744Y-55731300D01*
X99207256Y-55731300D01*
X99640418Y-55645139D01*
X100131625Y-55316925D01*
X100331000Y-55018539D01*
X100530375Y-55316925D01*
X101021582Y-55645139D01*
X101454744Y-55731300D01*
X101747256Y-55731300D01*
X102180418Y-55645139D01*
X102671625Y-55316925D01*
X102871000Y-55018539D01*
X103070375Y-55316925D01*
X103561582Y-55645139D01*
X103994744Y-55731300D01*
X104287256Y-55731300D01*
X104720418Y-55645139D01*
X105211625Y-55316925D01*
X105424843Y-54997822D01*
X105485817Y-55127658D01*
X105914076Y-55517945D01*
X106324110Y-55687776D01*
X106554000Y-55566455D01*
X106554000Y-54373300D01*
X106534000Y-54373300D01*
X106534000Y-54119300D01*
X106554000Y-54119300D01*
X106554000Y-52926145D01*
X106808000Y-52926145D01*
X106808000Y-54119300D01*
X106828000Y-54119300D01*
X106828000Y-54373300D01*
X106808000Y-54373300D01*
X106808000Y-55566455D01*
X107037890Y-55687776D01*
X107447924Y-55517945D01*
X107752261Y-55240592D01*
X107772843Y-55344065D01*
X107913191Y-55554109D01*
X108123235Y-55694457D01*
X108371000Y-55743740D01*
X110071000Y-55743740D01*
X110318765Y-55694457D01*
X110528809Y-55554109D01*
X110669157Y-55344065D01*
X110718440Y-55096300D01*
X110718440Y-53396300D01*
X110690533Y-53256000D01*
X115346560Y-53256000D01*
X115346560Y-55456000D01*
X115395843Y-55703765D01*
X115536191Y-55913809D01*
X115746235Y-56054157D01*
X115994000Y-56103440D01*
X118194000Y-56103440D01*
X118441765Y-56054157D01*
X118651809Y-55913809D01*
X118792157Y-55703765D01*
X118841440Y-55456000D01*
X118841440Y-53256000D01*
X118792157Y-53008235D01*
X118651809Y-52798191D01*
X118441765Y-52657843D01*
X118194000Y-52608560D01*
X115994000Y-52608560D01*
X115746235Y-52657843D01*
X115536191Y-52798191D01*
X115395843Y-53008235D01*
X115346560Y-53256000D01*
X110690533Y-53256000D01*
X110669157Y-53148535D01*
X110528809Y-52938491D01*
X110318765Y-52798143D01*
X110071000Y-52748860D01*
X108371000Y-52748860D01*
X108123235Y-52798143D01*
X107913191Y-52938491D01*
X107772843Y-53148535D01*
X107752261Y-53252008D01*
X107447924Y-52974655D01*
X107037890Y-52804824D01*
X106808000Y-52926145D01*
X106554000Y-52926145D01*
X106324110Y-52804824D01*
X105914076Y-52974655D01*
X105485817Y-53364942D01*
X105424843Y-53494778D01*
X105211625Y-53175675D01*
X104720418Y-52847461D01*
X104287256Y-52761300D01*
X103994744Y-52761300D01*
X103561582Y-52847461D01*
X103070375Y-53175675D01*
X102871000Y-53474061D01*
X102671625Y-53175675D01*
X102180418Y-52847461D01*
X101747256Y-52761300D01*
X101454744Y-52761300D01*
X101021582Y-52847461D01*
X100530375Y-53175675D01*
X100331000Y-53474061D01*
X100131625Y-53175675D01*
X99640418Y-52847461D01*
X99207256Y-52761300D01*
X98914744Y-52761300D01*
X98551000Y-52833653D01*
X98551000Y-52821501D01*
X99838473Y-51534029D01*
X99901929Y-51491629D01*
X100061109Y-51253400D01*
X100069904Y-51240238D01*
X100092222Y-51128037D01*
X100109896Y-51039186D01*
X100388577Y-50852977D01*
X100705740Y-50378309D01*
X100817113Y-49818400D01*
X100760336Y-49532961D01*
X105539000Y-49532961D01*
X105539000Y-50103839D01*
X105757466Y-50631262D01*
X106161138Y-51034934D01*
X106688561Y-51253400D01*
X107259439Y-51253400D01*
X107786862Y-51034934D01*
X108190534Y-50631262D01*
X108409000Y-50103839D01*
X108409000Y-50008000D01*
X122512560Y-50008000D01*
X122512560Y-52608000D01*
X122561843Y-52855765D01*
X122702191Y-53065809D01*
X122912235Y-53206157D01*
X123160000Y-53255440D01*
X125760000Y-53255440D01*
X126007765Y-53206157D01*
X126217809Y-53065809D01*
X126358157Y-52855765D01*
X126407440Y-52608000D01*
X126407440Y-50008000D01*
X126358157Y-49760235D01*
X126217809Y-49550191D01*
X126007765Y-49409843D01*
X125760000Y-49360560D01*
X123160000Y-49360560D01*
X122912235Y-49409843D01*
X122702191Y-49550191D01*
X122561843Y-49760235D01*
X122512560Y-50008000D01*
X108409000Y-50008000D01*
X108409000Y-49532961D01*
X108190534Y-49005538D01*
X107786862Y-48601866D01*
X107259439Y-48383400D01*
X106688561Y-48383400D01*
X106161138Y-48601866D01*
X105757466Y-49005538D01*
X105539000Y-49532961D01*
X100760336Y-49532961D01*
X100705740Y-49258491D01*
X100388577Y-48783823D01*
X99913909Y-48466660D01*
X99495333Y-48383400D01*
X99212667Y-48383400D01*
X98794091Y-48466660D01*
X98319423Y-48783823D01*
X98002260Y-49258491D01*
X97890887Y-49818400D01*
X98002260Y-50378309D01*
X98319423Y-50852977D01*
X98349695Y-50873204D01*
X97306528Y-51916371D01*
X97243072Y-51958771D01*
X97200672Y-52022227D01*
X97200671Y-52022228D01*
X97075097Y-52210163D01*
X97016112Y-52506700D01*
X97031001Y-52581552D01*
X97031001Y-52833653D01*
X96667256Y-52761300D01*
X96374744Y-52761300D01*
X95941582Y-52847461D01*
X95450375Y-53175675D01*
X95251000Y-53474061D01*
X95051625Y-53175675D01*
X94560418Y-52847461D01*
X94127256Y-52761300D01*
X93834744Y-52761300D01*
X93401582Y-52847461D01*
X92910375Y-53175675D01*
X92711000Y-53474061D01*
X92511625Y-53175675D01*
X92020418Y-52847461D01*
X91587256Y-52761300D01*
X91294744Y-52761300D01*
X90861582Y-52847461D01*
X90370375Y-53175675D01*
X90042161Y-53666882D01*
X89926908Y-54246300D01*
X90042161Y-54825718D01*
X90370375Y-55316925D01*
X90861582Y-55645139D01*
X91294744Y-55731300D01*
X91587256Y-55731300D01*
X92020418Y-55645139D01*
X92511625Y-55316925D01*
X92711000Y-55018539D01*
X92910375Y-55316925D01*
X93221001Y-55524478D01*
X93221000Y-57528998D01*
X73449818Y-77300180D01*
X73384919Y-77143499D01*
X72970501Y-76729081D01*
X72429038Y-76504800D01*
X71842962Y-76504800D01*
X71301499Y-76729081D01*
X70937580Y-77093000D01*
X70500879Y-77093000D01*
X57613725Y-64205847D01*
X57564349Y-64131951D01*
X57271610Y-63936348D01*
X57120722Y-63906335D01*
X57074157Y-63672235D01*
X56933809Y-63462191D01*
X56723765Y-63321843D01*
X56476000Y-63272560D01*
X54776000Y-63272560D01*
X54528235Y-63321843D01*
X54318191Y-63462191D01*
X54177843Y-63672235D01*
X54128560Y-63920000D01*
X40309000Y-63920000D01*
X40309000Y-50262000D01*
X42248560Y-50262000D01*
X42248560Y-52862000D01*
X42297843Y-53109765D01*
X42438191Y-53319809D01*
X42648235Y-53460157D01*
X42896000Y-53509440D01*
X45496000Y-53509440D01*
X45743765Y-53460157D01*
X45953809Y-53319809D01*
X46094157Y-53109765D01*
X46143440Y-52862000D01*
X46143440Y-50262000D01*
X46094157Y-50014235D01*
X45953809Y-49804191D01*
X45743765Y-49663843D01*
X45496000Y-49614560D01*
X42896000Y-49614560D01*
X42648235Y-49663843D01*
X42438191Y-49804191D01*
X42297843Y-50014235D01*
X42248560Y-50262000D01*
X40309000Y-50262000D01*
X40309000Y-47931459D01*
X43006146Y-47931459D01*
X43141504Y-48229455D01*
X43859880Y-48506066D01*
X44629427Y-48486710D01*
X45250496Y-48229455D01*
X45385854Y-47931459D01*
X44196000Y-46741605D01*
X43006146Y-47931459D01*
X40309000Y-47931459D01*
X40309000Y-46225880D01*
X42251934Y-46225880D01*
X42271290Y-46995427D01*
X42528545Y-47616496D01*
X42826541Y-47751854D01*
X44016395Y-46562000D01*
X44375605Y-46562000D01*
X45565459Y-47751854D01*
X45863455Y-47616496D01*
X46140066Y-46898120D01*
X46120710Y-46128573D01*
X45863455Y-45507504D01*
X45565459Y-45372146D01*
X44375605Y-46562000D01*
X44016395Y-46562000D01*
X42826541Y-45372146D01*
X42528545Y-45507504D01*
X42251934Y-46225880D01*
X40309000Y-46225880D01*
X40309000Y-45192541D01*
X43006146Y-45192541D01*
X44196000Y-46382395D01*
X45385854Y-45192541D01*
X45250496Y-44894545D01*
X44532120Y-44617934D01*
X43762573Y-44637290D01*
X43141504Y-44894545D01*
X43006146Y-45192541D01*
X40309000Y-45192541D01*
X40309000Y-42819459D01*
X52276146Y-42819459D01*
X52411504Y-43117455D01*
X53129880Y-43394066D01*
X53899427Y-43374710D01*
X54441925Y-43150000D01*
X56218560Y-43150000D01*
X56218560Y-45750000D01*
X56267843Y-45997765D01*
X56408191Y-46207809D01*
X56618235Y-46348157D01*
X56866000Y-46397440D01*
X59466000Y-46397440D01*
X59713765Y-46348157D01*
X59923809Y-46207809D01*
X60064157Y-45997765D01*
X60088766Y-45874045D01*
X60507977Y-46293256D01*
X60557351Y-46367149D01*
X60631244Y-46416523D01*
X60631245Y-46416524D01*
X60737625Y-46487605D01*
X60850090Y-46562752D01*
X61108235Y-46614100D01*
X61108239Y-46614100D01*
X61195400Y-46631437D01*
X61282561Y-46614100D01*
X68483739Y-46614100D01*
X68570900Y-46631437D01*
X68658061Y-46614100D01*
X68658065Y-46614100D01*
X68916210Y-46562752D01*
X69208949Y-46367149D01*
X69258325Y-46293253D01*
X69654138Y-45897440D01*
X70650000Y-45897440D01*
X70897765Y-45848157D01*
X71107809Y-45707809D01*
X71248157Y-45497765D01*
X71297440Y-45250000D01*
X71297440Y-43650000D01*
X71294994Y-43637700D01*
X73975660Y-43637700D01*
X73975660Y-45637700D01*
X74024943Y-45885465D01*
X74165291Y-46095509D01*
X74375335Y-46235857D01*
X74623100Y-46285140D01*
X74690600Y-46285140D01*
X74690601Y-49335303D01*
X74613066Y-49412838D01*
X74394600Y-49940261D01*
X74394600Y-50511139D01*
X74613066Y-51038562D01*
X75016738Y-51442234D01*
X75544161Y-51660700D01*
X76115039Y-51660700D01*
X76642462Y-51442234D01*
X76851251Y-51233445D01*
X80001461Y-51233445D01*
X80075595Y-51479564D01*
X80612823Y-51672665D01*
X81183054Y-51645478D01*
X81583605Y-51479564D01*
X81657739Y-51233445D01*
X80829600Y-50405305D01*
X80001461Y-51233445D01*
X76851251Y-51233445D01*
X77046134Y-51038562D01*
X77264600Y-50511139D01*
X77264600Y-50008923D01*
X79382635Y-50008923D01*
X79409822Y-50579154D01*
X79575736Y-50979705D01*
X79821855Y-51053839D01*
X80649995Y-50225700D01*
X81009205Y-50225700D01*
X81837345Y-51053839D01*
X82083464Y-50979705D01*
X82276565Y-50442477D01*
X82249378Y-49872246D01*
X82083464Y-49471695D01*
X81837345Y-49397561D01*
X81009205Y-50225700D01*
X80649995Y-50225700D01*
X79821855Y-49397561D01*
X79575736Y-49471695D01*
X79382635Y-50008923D01*
X77264600Y-50008923D01*
X77264600Y-49940261D01*
X77046134Y-49412838D01*
X76851251Y-49217955D01*
X80001461Y-49217955D01*
X80829600Y-50046095D01*
X81657739Y-49217955D01*
X81583605Y-48971836D01*
X81046377Y-48778735D01*
X80476146Y-48805922D01*
X80075595Y-48971836D01*
X80001461Y-49217955D01*
X76851251Y-49217955D01*
X76642462Y-49009166D01*
X76460600Y-48933836D01*
X76460600Y-47677459D01*
X123270146Y-47677459D01*
X123405504Y-47975455D01*
X124123880Y-48252066D01*
X124893427Y-48232710D01*
X125514496Y-47975455D01*
X125649854Y-47677459D01*
X124460000Y-46487605D01*
X123270146Y-47677459D01*
X76460600Y-47677459D01*
X76460600Y-46285140D01*
X76528100Y-46285140D01*
X76775865Y-46235857D01*
X76985909Y-46095509D01*
X77122855Y-45890557D01*
X77248676Y-46013673D01*
X77742620Y-46228263D01*
X77988600Y-46108294D01*
X77988600Y-44764700D01*
X77968600Y-44764700D01*
X77968600Y-44510700D01*
X77988600Y-44510700D01*
X77988600Y-43167106D01*
X78242600Y-43167106D01*
X78242600Y-44510700D01*
X78262600Y-44510700D01*
X78262600Y-44764700D01*
X78242600Y-44764700D01*
X78242600Y-46108294D01*
X78488580Y-46228263D01*
X78982524Y-46013673D01*
X79376441Y-45628226D01*
X79511077Y-45829723D01*
X80036190Y-46180591D01*
X80655600Y-46303800D01*
X81275011Y-46180591D01*
X81800123Y-45829723D01*
X82150991Y-45304610D01*
X82243100Y-44841549D01*
X82243100Y-44433850D01*
X82150991Y-43970789D01*
X81986910Y-43725223D01*
X85199035Y-43725223D01*
X85226222Y-44295454D01*
X85392136Y-44696005D01*
X85638255Y-44770139D01*
X86466395Y-43942000D01*
X85638255Y-43113861D01*
X85392136Y-43187995D01*
X85199035Y-43725223D01*
X81986910Y-43725223D01*
X81800123Y-43445677D01*
X81275010Y-43094809D01*
X80655600Y-42971600D01*
X80036189Y-43094809D01*
X79511077Y-43445677D01*
X79376441Y-43647174D01*
X78982524Y-43261727D01*
X78488580Y-43047137D01*
X78242600Y-43167106D01*
X77988600Y-43167106D01*
X77742620Y-43047137D01*
X77248676Y-43261727D01*
X77122855Y-43384843D01*
X76985909Y-43179891D01*
X76775865Y-43039543D01*
X76528100Y-42990260D01*
X74623100Y-42990260D01*
X74375335Y-43039543D01*
X74165291Y-43179891D01*
X74024943Y-43389935D01*
X73975660Y-43637700D01*
X71294994Y-43637700D01*
X71248157Y-43402235D01*
X71107809Y-43192191D01*
X70897765Y-43051843D01*
X70650000Y-43002560D01*
X69050000Y-43002560D01*
X68802235Y-43051843D01*
X68592484Y-43191995D01*
X68066777Y-43003035D01*
X67496546Y-43030222D01*
X67095995Y-43196136D01*
X67021861Y-43442255D01*
X67850000Y-44270395D01*
X67864142Y-44256252D01*
X68043748Y-44435858D01*
X68029605Y-44450000D01*
X68043748Y-44464142D01*
X67864143Y-44643748D01*
X67850000Y-44629605D01*
X67835858Y-44643748D01*
X67656253Y-44464143D01*
X67670395Y-44450000D01*
X66842255Y-43621861D01*
X66596136Y-43695995D01*
X66403035Y-44233223D01*
X66430222Y-44803454D01*
X66447058Y-44844100D01*
X61561979Y-44844100D01*
X60603725Y-43885847D01*
X60554349Y-43811951D01*
X60261610Y-43616348D01*
X60113440Y-43586875D01*
X60113440Y-43150000D01*
X60070527Y-42934255D01*
X85817861Y-42934255D01*
X86646000Y-43762395D01*
X86660142Y-43748252D01*
X86839748Y-43927858D01*
X86825605Y-43942000D01*
X86839748Y-43956143D01*
X86660142Y-44135748D01*
X86646000Y-44121605D01*
X85817861Y-44949745D01*
X85891995Y-45195864D01*
X86429223Y-45388965D01*
X86999454Y-45361778D01*
X87389067Y-45200395D01*
X87598235Y-45340157D01*
X87846000Y-45389440D01*
X89446000Y-45389440D01*
X89693765Y-45340157D01*
X89903809Y-45199809D01*
X90044157Y-44989765D01*
X90093440Y-44742000D01*
X90093440Y-43738400D01*
X97754060Y-43738400D01*
X97754060Y-45738400D01*
X97803343Y-45986165D01*
X97943691Y-46196209D01*
X98153735Y-46336557D01*
X98401500Y-46385840D01*
X100306500Y-46385840D01*
X100554265Y-46336557D01*
X100764309Y-46196209D01*
X100882509Y-46019312D01*
X101274590Y-46281291D01*
X101894000Y-46404500D01*
X102513411Y-46281291D01*
X103038523Y-45930423D01*
X103164000Y-45742633D01*
X103289477Y-45930423D01*
X103814590Y-46281291D01*
X104434000Y-46404500D01*
X105053411Y-46281291D01*
X105516478Y-45971880D01*
X122515934Y-45971880D01*
X122535290Y-46741427D01*
X122792545Y-47362496D01*
X123090541Y-47497854D01*
X124280395Y-46308000D01*
X124639605Y-46308000D01*
X125829459Y-47497854D01*
X126127455Y-47362496D01*
X126404066Y-46644120D01*
X126384710Y-45874573D01*
X126127455Y-45253504D01*
X125829459Y-45118146D01*
X124639605Y-46308000D01*
X124280395Y-46308000D01*
X123090541Y-45118146D01*
X122792545Y-45253504D01*
X122515934Y-45971880D01*
X105516478Y-45971880D01*
X105578523Y-45930423D01*
X105929391Y-45405310D01*
X106021500Y-44942249D01*
X106021500Y-44592123D01*
X115404817Y-44592123D01*
X115684988Y-45208392D01*
X116179668Y-45670534D01*
X116697878Y-45885175D01*
X116967000Y-45767125D01*
X116967000Y-44323000D01*
X117221000Y-44323000D01*
X117221000Y-45767125D01*
X117490122Y-45885175D01*
X118008332Y-45670534D01*
X118503012Y-45208392D01*
X118625692Y-44938541D01*
X123270146Y-44938541D01*
X124460000Y-46128395D01*
X125649854Y-44938541D01*
X125514496Y-44640545D01*
X124796120Y-44363934D01*
X124026573Y-44383290D01*
X123405504Y-44640545D01*
X123270146Y-44938541D01*
X118625692Y-44938541D01*
X118783183Y-44592123D01*
X118665604Y-44323000D01*
X117221000Y-44323000D01*
X116967000Y-44323000D01*
X115522396Y-44323000D01*
X115404817Y-44592123D01*
X106021500Y-44592123D01*
X106021500Y-44534550D01*
X105929391Y-44071489D01*
X105747906Y-43799877D01*
X115404817Y-43799877D01*
X115522396Y-44069000D01*
X116967000Y-44069000D01*
X116967000Y-42624875D01*
X117221000Y-42624875D01*
X117221000Y-44069000D01*
X118665604Y-44069000D01*
X118783183Y-43799877D01*
X118503012Y-43183608D01*
X118008332Y-42721466D01*
X117490122Y-42506825D01*
X117221000Y-42624875D01*
X116967000Y-42624875D01*
X116697878Y-42506825D01*
X116179668Y-42721466D01*
X115684988Y-43183608D01*
X115404817Y-43799877D01*
X105747906Y-43799877D01*
X105578523Y-43546377D01*
X105053410Y-43195509D01*
X104434000Y-43072300D01*
X103814589Y-43195509D01*
X103289477Y-43546377D01*
X103164000Y-43734167D01*
X103038523Y-43546377D01*
X102513410Y-43195509D01*
X101894000Y-43072300D01*
X101274589Y-43195509D01*
X100882509Y-43457488D01*
X100764309Y-43280591D01*
X100554265Y-43140243D01*
X100306500Y-43090960D01*
X98401500Y-43090960D01*
X98153735Y-43140243D01*
X97943691Y-43280591D01*
X97803343Y-43490635D01*
X97754060Y-43738400D01*
X90093440Y-43738400D01*
X90093440Y-43142000D01*
X90044157Y-42894235D01*
X89903809Y-42684191D01*
X89693765Y-42543843D01*
X89446000Y-42494560D01*
X87846000Y-42494560D01*
X87598235Y-42543843D01*
X87388484Y-42683995D01*
X86862777Y-42495035D01*
X86292546Y-42522222D01*
X85891995Y-42688136D01*
X85817861Y-42934255D01*
X60070527Y-42934255D01*
X60064157Y-42902235D01*
X59923809Y-42692191D01*
X59713765Y-42551843D01*
X59466000Y-42502560D01*
X56866000Y-42502560D01*
X56618235Y-42551843D01*
X56408191Y-42692191D01*
X56267843Y-42902235D01*
X56218560Y-43150000D01*
X54441925Y-43150000D01*
X54520496Y-43117455D01*
X54655854Y-42819459D01*
X53466000Y-41629605D01*
X52276146Y-42819459D01*
X40309000Y-42819459D01*
X40309000Y-41113880D01*
X51521934Y-41113880D01*
X51541290Y-41883427D01*
X51798545Y-42504496D01*
X52096541Y-42639854D01*
X53286395Y-41450000D01*
X53645605Y-41450000D01*
X54835459Y-42639854D01*
X55133455Y-42504496D01*
X55410066Y-41786120D01*
X55390710Y-41016573D01*
X55133455Y-40395504D01*
X54835459Y-40260146D01*
X53645605Y-41450000D01*
X53286395Y-41450000D01*
X52096541Y-40260146D01*
X51798545Y-40395504D01*
X51521934Y-41113880D01*
X40309000Y-41113880D01*
X40309000Y-38929403D01*
X41036874Y-39657277D01*
X42262627Y-40165000D01*
X43589373Y-40165000D01*
X43793275Y-40080541D01*
X52276146Y-40080541D01*
X53466000Y-41270395D01*
X54655854Y-40080541D01*
X54537264Y-39819459D01*
X56976146Y-39819459D01*
X57111504Y-40117455D01*
X57829880Y-40394066D01*
X58599427Y-40374710D01*
X59220496Y-40117455D01*
X59355854Y-39819459D01*
X58166000Y-38629605D01*
X56976146Y-39819459D01*
X54537264Y-39819459D01*
X54520496Y-39782545D01*
X53802120Y-39505934D01*
X53032573Y-39525290D01*
X52411504Y-39782545D01*
X52276146Y-40080541D01*
X43793275Y-40080541D01*
X44815126Y-39657277D01*
X45753277Y-38719126D01*
X46003977Y-38113880D01*
X56221934Y-38113880D01*
X56241290Y-38883427D01*
X56498545Y-39504496D01*
X56796541Y-39639854D01*
X57986395Y-38450000D01*
X58345605Y-38450000D01*
X59535459Y-39639854D01*
X59833455Y-39504496D01*
X60110066Y-38786120D01*
X60090710Y-38016573D01*
X59833455Y-37395504D01*
X59535459Y-37260146D01*
X58345605Y-38450000D01*
X57986395Y-38450000D01*
X56796541Y-37260146D01*
X56498545Y-37395504D01*
X56221934Y-38113880D01*
X46003977Y-38113880D01*
X46261000Y-37493373D01*
X46261000Y-37080541D01*
X56976146Y-37080541D01*
X58166000Y-38270395D01*
X59355854Y-37080541D01*
X59220496Y-36782545D01*
X58502120Y-36505934D01*
X57732573Y-36525290D01*
X57111504Y-36782545D01*
X56976146Y-37080541D01*
X46261000Y-37080541D01*
X46261000Y-36166627D01*
X45753277Y-34940874D01*
X45025403Y-34213000D01*
X124646597Y-34213000D01*
X123918723Y-34940874D01*
G04 #@! TD*
M02*
