G04 #@! TF.GenerationSoftware,KiCad,Pcbnew,5.0.2+dfsg1-1~bpo9+1*
G04 #@! TF.CreationDate,2019-05-27T08:16:01+01:00*
G04 #@! TF.ProjectId,PSU,5053552e-6b69-4636-9164-5f7063625858,rev?*
G04 #@! TF.SameCoordinates,Original*
G04 #@! TF.FileFunction,Soldermask,Bot*
G04 #@! TF.FilePolarity,Negative*
%FSLAX46Y46*%
G04 Gerber Fmt 4.6, Leading zero omitted, Abs format (unit mm)*
G04 Created by KiCad (PCBNEW 5.0.2+dfsg1-1~bpo9+1) date Mon 27 May 2019 08:16:01 IST*
%MOMM*%
%LPD*%
G01*
G04 APERTURE LIST*
%ADD10C,0.100000*%
G04 APERTURE END LIST*
D10*
G36*
X127787560Y-87573759D02*
X128278928Y-87777290D01*
X128278930Y-87777291D01*
X128715268Y-88068843D01*
X128721153Y-88072775D01*
X129097225Y-88448847D01*
X129097227Y-88448850D01*
X129230322Y-88648040D01*
X129392710Y-88891072D01*
X129596241Y-89382440D01*
X129700000Y-89904072D01*
X129700000Y-90435928D01*
X129596241Y-90957560D01*
X129392710Y-91448928D01*
X129097225Y-91891153D01*
X128721153Y-92267225D01*
X128721150Y-92267227D01*
X128278930Y-92562709D01*
X128278929Y-92562710D01*
X128278928Y-92562710D01*
X127787560Y-92766241D01*
X127265928Y-92870000D01*
X126734072Y-92870000D01*
X126212440Y-92766241D01*
X125721072Y-92562710D01*
X125721071Y-92562710D01*
X125721070Y-92562709D01*
X125278850Y-92267227D01*
X125278847Y-92267225D01*
X124902775Y-91891153D01*
X124607290Y-91448928D01*
X124403759Y-90957560D01*
X124300000Y-90435928D01*
X124300000Y-89904072D01*
X124403759Y-89382440D01*
X124607290Y-88891072D01*
X124769679Y-88648040D01*
X124902773Y-88448850D01*
X124902775Y-88448847D01*
X125278847Y-88072775D01*
X125284732Y-88068843D01*
X125721070Y-87777291D01*
X125721072Y-87777290D01*
X126212440Y-87573759D01*
X126734072Y-87470000D01*
X127265928Y-87470000D01*
X127787560Y-87573759D01*
X127787560Y-87573759D01*
G37*
G36*
X43967560Y-87573759D02*
X44458928Y-87777290D01*
X44458930Y-87777291D01*
X44895268Y-88068843D01*
X44901153Y-88072775D01*
X45277225Y-88448847D01*
X45277227Y-88448850D01*
X45410322Y-88648040D01*
X45572710Y-88891072D01*
X45776241Y-89382440D01*
X45880000Y-89904072D01*
X45880000Y-90435928D01*
X45776241Y-90957560D01*
X45572710Y-91448928D01*
X45277225Y-91891153D01*
X44901153Y-92267225D01*
X44901150Y-92267227D01*
X44458930Y-92562709D01*
X44458929Y-92562710D01*
X44458928Y-92562710D01*
X43967560Y-92766241D01*
X43445928Y-92870000D01*
X42914072Y-92870000D01*
X42392440Y-92766241D01*
X41901072Y-92562710D01*
X41901071Y-92562710D01*
X41901070Y-92562709D01*
X41458850Y-92267227D01*
X41458847Y-92267225D01*
X41082775Y-91891153D01*
X40787290Y-91448928D01*
X40583759Y-90957560D01*
X40480000Y-90435928D01*
X40480000Y-89904072D01*
X40583759Y-89382440D01*
X40787290Y-88891072D01*
X40949679Y-88648040D01*
X41082773Y-88448850D01*
X41082775Y-88448847D01*
X41458847Y-88072775D01*
X41464732Y-88068843D01*
X41901070Y-87777291D01*
X41901072Y-87777290D01*
X42392440Y-87573759D01*
X42914072Y-87470000D01*
X43445928Y-87470000D01*
X43967560Y-87573759D01*
X43967560Y-87573759D01*
G37*
G36*
X49449196Y-87269958D02*
X49685780Y-87367954D01*
X49898705Y-87510226D01*
X50079774Y-87691295D01*
X50222046Y-87904220D01*
X50320042Y-88140804D01*
X50370000Y-88391960D01*
X50370000Y-88648040D01*
X50320042Y-88899196D01*
X50222046Y-89135780D01*
X50079774Y-89348705D01*
X49898705Y-89529774D01*
X49685780Y-89672046D01*
X49449196Y-89770042D01*
X49198040Y-89820000D01*
X48941960Y-89820000D01*
X48690804Y-89770042D01*
X48454220Y-89672046D01*
X48241295Y-89529774D01*
X48060226Y-89348705D01*
X47917954Y-89135780D01*
X47819958Y-88899196D01*
X47770000Y-88648040D01*
X47770000Y-88391960D01*
X47819958Y-88140804D01*
X47917954Y-87904220D01*
X48060226Y-87691295D01*
X48241295Y-87510226D01*
X48454220Y-87367954D01*
X48690804Y-87269958D01*
X48941960Y-87220000D01*
X49198040Y-87220000D01*
X49449196Y-87269958D01*
X49449196Y-87269958D01*
G37*
G36*
X59923352Y-86320743D02*
X60068941Y-86381048D01*
X60199973Y-86468601D01*
X60311399Y-86580027D01*
X60398952Y-86711059D01*
X60459257Y-86856648D01*
X60490000Y-87011205D01*
X60490000Y-87168795D01*
X60459257Y-87323352D01*
X60398952Y-87468941D01*
X60311399Y-87599973D01*
X60199973Y-87711399D01*
X60068941Y-87798952D01*
X59923352Y-87859257D01*
X59768795Y-87890000D01*
X59611205Y-87890000D01*
X59456648Y-87859257D01*
X59311059Y-87798952D01*
X59180027Y-87711399D01*
X59068601Y-87599973D01*
X58981048Y-87468941D01*
X58920743Y-87323352D01*
X58890000Y-87168795D01*
X58890000Y-87011205D01*
X58920743Y-86856648D01*
X58981048Y-86711059D01*
X59068601Y-86580027D01*
X59180027Y-86468601D01*
X59311059Y-86381048D01*
X59456648Y-86320743D01*
X59611205Y-86290000D01*
X59768795Y-86290000D01*
X59923352Y-86320743D01*
X59923352Y-86320743D01*
G37*
G36*
X117006630Y-85522299D02*
X117166855Y-85570903D01*
X117314520Y-85649831D01*
X117443949Y-85756051D01*
X117550169Y-85885480D01*
X117629097Y-86033145D01*
X117677701Y-86193370D01*
X117694112Y-86360000D01*
X117677701Y-86526630D01*
X117629097Y-86686855D01*
X117550169Y-86834520D01*
X117443949Y-86963949D01*
X117314520Y-87070169D01*
X117166855Y-87149097D01*
X117006630Y-87197701D01*
X116881752Y-87210000D01*
X116798248Y-87210000D01*
X116673370Y-87197701D01*
X116513145Y-87149097D01*
X116365480Y-87070169D01*
X116236051Y-86963949D01*
X116129831Y-86834520D01*
X116050903Y-86686855D01*
X116002299Y-86526630D01*
X115985888Y-86360000D01*
X116002299Y-86193370D01*
X116050903Y-86033145D01*
X116129831Y-85885480D01*
X116236051Y-85756051D01*
X116365480Y-85649831D01*
X116513145Y-85570903D01*
X116673370Y-85522299D01*
X116798248Y-85510000D01*
X116881752Y-85510000D01*
X117006630Y-85522299D01*
X117006630Y-85522299D01*
G37*
G36*
X81446630Y-85522299D02*
X81606855Y-85570903D01*
X81754520Y-85649831D01*
X81883949Y-85756051D01*
X81990169Y-85885480D01*
X82069097Y-86033145D01*
X82117701Y-86193370D01*
X82134112Y-86360000D01*
X82117701Y-86526630D01*
X82069097Y-86686855D01*
X81990169Y-86834520D01*
X81883949Y-86963949D01*
X81754520Y-87070169D01*
X81606855Y-87149097D01*
X81446630Y-87197701D01*
X81321752Y-87210000D01*
X81238248Y-87210000D01*
X81113370Y-87197701D01*
X80953145Y-87149097D01*
X80805480Y-87070169D01*
X80676051Y-86963949D01*
X80569831Y-86834520D01*
X80490903Y-86686855D01*
X80442299Y-86526630D01*
X80425888Y-86360000D01*
X80442299Y-86193370D01*
X80490903Y-86033145D01*
X80569831Y-85885480D01*
X80676051Y-85756051D01*
X80805480Y-85649831D01*
X80953145Y-85570903D01*
X81113370Y-85522299D01*
X81238248Y-85510000D01*
X81321752Y-85510000D01*
X81446630Y-85522299D01*
X81446630Y-85522299D01*
G37*
G36*
X103114494Y-85554011D02*
X103267037Y-85617196D01*
X103404325Y-85708929D01*
X103521071Y-85825675D01*
X103612804Y-85962963D01*
X103675989Y-86115506D01*
X103708200Y-86277443D01*
X103708200Y-86442557D01*
X103675989Y-86604494D01*
X103612804Y-86757037D01*
X103521071Y-86894325D01*
X103404325Y-87011071D01*
X103267037Y-87102804D01*
X103114494Y-87165989D01*
X102952557Y-87198200D01*
X102787443Y-87198200D01*
X102625506Y-87165989D01*
X102472963Y-87102804D01*
X102335675Y-87011071D01*
X102218929Y-86894325D01*
X102127196Y-86757037D01*
X102064011Y-86604494D01*
X102031800Y-86442557D01*
X102031800Y-86277443D01*
X102064011Y-86115506D01*
X102127196Y-85962963D01*
X102218929Y-85825675D01*
X102335675Y-85708929D01*
X102472963Y-85617196D01*
X102625506Y-85554011D01*
X102787443Y-85521800D01*
X102952557Y-85521800D01*
X103114494Y-85554011D01*
X103114494Y-85554011D01*
G37*
G36*
X95494494Y-85554011D02*
X95647037Y-85617196D01*
X95784325Y-85708929D01*
X95901071Y-85825675D01*
X95992804Y-85962963D01*
X96055989Y-86115506D01*
X96088200Y-86277443D01*
X96088200Y-86442557D01*
X96055989Y-86604494D01*
X95992804Y-86757037D01*
X95901071Y-86894325D01*
X95784325Y-87011071D01*
X95647037Y-87102804D01*
X95494494Y-87165989D01*
X95332557Y-87198200D01*
X95167443Y-87198200D01*
X95005506Y-87165989D01*
X94852963Y-87102804D01*
X94715675Y-87011071D01*
X94598929Y-86894325D01*
X94507196Y-86757037D01*
X94444011Y-86604494D01*
X94411800Y-86442557D01*
X94411800Y-86277443D01*
X94444011Y-86115506D01*
X94507196Y-85962963D01*
X94598929Y-85825675D01*
X94715675Y-85708929D01*
X94852963Y-85617196D01*
X95005506Y-85554011D01*
X95167443Y-85521800D01*
X95332557Y-85521800D01*
X95494494Y-85554011D01*
X95494494Y-85554011D01*
G37*
G36*
X60490000Y-85890000D02*
X58890000Y-85890000D01*
X58890000Y-84290000D01*
X60490000Y-84290000D01*
X60490000Y-85890000D01*
X60490000Y-85890000D01*
G37*
G36*
X46449196Y-82569958D02*
X46685780Y-82667954D01*
X46898705Y-82810226D01*
X47079774Y-82991295D01*
X47222046Y-83204220D01*
X47320042Y-83440804D01*
X47370000Y-83691960D01*
X47370000Y-83948040D01*
X47320042Y-84199196D01*
X47222046Y-84435780D01*
X47079774Y-84648705D01*
X46898705Y-84829774D01*
X46685780Y-84972046D01*
X46449196Y-85070042D01*
X46198040Y-85120000D01*
X45941960Y-85120000D01*
X45690804Y-85070042D01*
X45454220Y-84972046D01*
X45241295Y-84829774D01*
X45060226Y-84648705D01*
X44917954Y-84435780D01*
X44819958Y-84199196D01*
X44770000Y-83948040D01*
X44770000Y-83691960D01*
X44819958Y-83440804D01*
X44917954Y-83204220D01*
X45060226Y-82991295D01*
X45241295Y-82810226D01*
X45454220Y-82667954D01*
X45690804Y-82569958D01*
X45941960Y-82520000D01*
X46198040Y-82520000D01*
X46449196Y-82569958D01*
X46449196Y-82569958D01*
G37*
G36*
X53370000Y-85120000D02*
X50770000Y-85120000D01*
X50770000Y-82520000D01*
X53370000Y-82520000D01*
X53370000Y-85120000D01*
X53370000Y-85120000D01*
G37*
G36*
X81446630Y-82982299D02*
X81606855Y-83030903D01*
X81754520Y-83109831D01*
X81883949Y-83216051D01*
X81990169Y-83345480D01*
X82069097Y-83493145D01*
X82117701Y-83653370D01*
X82134112Y-83820000D01*
X82117701Y-83986630D01*
X82069097Y-84146855D01*
X81990169Y-84294520D01*
X81883949Y-84423949D01*
X81754520Y-84530169D01*
X81606855Y-84609097D01*
X81446630Y-84657701D01*
X81321752Y-84670000D01*
X81238248Y-84670000D01*
X81113370Y-84657701D01*
X80953145Y-84609097D01*
X80805480Y-84530169D01*
X80676051Y-84423949D01*
X80569831Y-84294520D01*
X80490903Y-84146855D01*
X80442299Y-83986630D01*
X80425888Y-83820000D01*
X80442299Y-83653370D01*
X80490903Y-83493145D01*
X80569831Y-83345480D01*
X80676051Y-83216051D01*
X80805480Y-83109831D01*
X80953145Y-83030903D01*
X81113370Y-82982299D01*
X81238248Y-82970000D01*
X81321752Y-82970000D01*
X81446630Y-82982299D01*
X81446630Y-82982299D01*
G37*
G36*
X117006630Y-82982299D02*
X117166855Y-83030903D01*
X117314520Y-83109831D01*
X117443949Y-83216051D01*
X117550169Y-83345480D01*
X117629097Y-83493145D01*
X117677701Y-83653370D01*
X117694112Y-83820000D01*
X117677701Y-83986630D01*
X117629097Y-84146855D01*
X117550169Y-84294520D01*
X117443949Y-84423949D01*
X117314520Y-84530169D01*
X117166855Y-84609097D01*
X117006630Y-84657701D01*
X116881752Y-84670000D01*
X116798248Y-84670000D01*
X116673370Y-84657701D01*
X116513145Y-84609097D01*
X116365480Y-84530169D01*
X116236051Y-84423949D01*
X116129831Y-84294520D01*
X116050903Y-84146855D01*
X116002299Y-83986630D01*
X115985888Y-83820000D01*
X116002299Y-83653370D01*
X116050903Y-83493145D01*
X116129831Y-83345480D01*
X116236051Y-83216051D01*
X116365480Y-83109831D01*
X116513145Y-83030903D01*
X116673370Y-82982299D01*
X116798248Y-82970000D01*
X116881752Y-82970000D01*
X117006630Y-82982299D01*
X117006630Y-82982299D01*
G37*
G36*
X103114494Y-83014011D02*
X103267037Y-83077196D01*
X103404325Y-83168929D01*
X103521071Y-83285675D01*
X103612804Y-83422963D01*
X103675989Y-83575506D01*
X103708200Y-83737443D01*
X103708200Y-83902557D01*
X103675989Y-84064494D01*
X103612804Y-84217037D01*
X103521071Y-84354325D01*
X103404325Y-84471071D01*
X103267037Y-84562804D01*
X103114494Y-84625989D01*
X102952557Y-84658200D01*
X102787443Y-84658200D01*
X102625506Y-84625989D01*
X102472963Y-84562804D01*
X102335675Y-84471071D01*
X102218929Y-84354325D01*
X102127196Y-84217037D01*
X102064011Y-84064494D01*
X102031800Y-83902557D01*
X102031800Y-83737443D01*
X102064011Y-83575506D01*
X102127196Y-83422963D01*
X102218929Y-83285675D01*
X102335675Y-83168929D01*
X102472963Y-83077196D01*
X102625506Y-83014011D01*
X102787443Y-82981800D01*
X102952557Y-82981800D01*
X103114494Y-83014011D01*
X103114494Y-83014011D01*
G37*
G36*
X95494494Y-83014011D02*
X95647037Y-83077196D01*
X95784325Y-83168929D01*
X95901071Y-83285675D01*
X95992804Y-83422963D01*
X96055989Y-83575506D01*
X96088200Y-83737443D01*
X96088200Y-83902557D01*
X96055989Y-84064494D01*
X95992804Y-84217037D01*
X95901071Y-84354325D01*
X95784325Y-84471071D01*
X95647037Y-84562804D01*
X95494494Y-84625989D01*
X95332557Y-84658200D01*
X95167443Y-84658200D01*
X95005506Y-84625989D01*
X94852963Y-84562804D01*
X94715675Y-84471071D01*
X94598929Y-84354325D01*
X94507196Y-84217037D01*
X94444011Y-84064494D01*
X94411800Y-83902557D01*
X94411800Y-83737443D01*
X94444011Y-83575506D01*
X94507196Y-83422963D01*
X94598929Y-83285675D01*
X94715675Y-83168929D01*
X94852963Y-83077196D01*
X95005506Y-83014011D01*
X95167443Y-82981800D01*
X95332557Y-82981800D01*
X95494494Y-83014011D01*
X95494494Y-83014011D01*
G37*
G36*
X81446630Y-80442299D02*
X81606855Y-80490903D01*
X81754520Y-80569831D01*
X81883949Y-80676051D01*
X81990169Y-80805480D01*
X82069097Y-80953145D01*
X82117701Y-81113370D01*
X82134112Y-81280000D01*
X82117701Y-81446630D01*
X82069097Y-81606855D01*
X81990169Y-81754520D01*
X81883949Y-81883949D01*
X81754520Y-81990169D01*
X81606855Y-82069097D01*
X81446630Y-82117701D01*
X81321752Y-82130000D01*
X81238248Y-82130000D01*
X81113370Y-82117701D01*
X80953145Y-82069097D01*
X80805480Y-81990169D01*
X80676051Y-81883949D01*
X80569831Y-81754520D01*
X80490903Y-81606855D01*
X80442299Y-81446630D01*
X80425888Y-81280000D01*
X80442299Y-81113370D01*
X80490903Y-80953145D01*
X80569831Y-80805480D01*
X80676051Y-80676051D01*
X80805480Y-80569831D01*
X80953145Y-80490903D01*
X81113370Y-80442299D01*
X81238248Y-80430000D01*
X81321752Y-80430000D01*
X81446630Y-80442299D01*
X81446630Y-80442299D01*
G37*
G36*
X117006630Y-80442299D02*
X117166855Y-80490903D01*
X117314520Y-80569831D01*
X117443949Y-80676051D01*
X117550169Y-80805480D01*
X117629097Y-80953145D01*
X117677701Y-81113370D01*
X117694112Y-81280000D01*
X117677701Y-81446630D01*
X117629097Y-81606855D01*
X117550169Y-81754520D01*
X117443949Y-81883949D01*
X117314520Y-81990169D01*
X117166855Y-82069097D01*
X117006630Y-82117701D01*
X116881752Y-82130000D01*
X116798248Y-82130000D01*
X116673370Y-82117701D01*
X116513145Y-82069097D01*
X116365480Y-81990169D01*
X116236051Y-81883949D01*
X116129831Y-81754520D01*
X116050903Y-81606855D01*
X116002299Y-81446630D01*
X115985888Y-81280000D01*
X116002299Y-81113370D01*
X116050903Y-80953145D01*
X116129831Y-80805480D01*
X116236051Y-80676051D01*
X116365480Y-80569831D01*
X116513145Y-80490903D01*
X116673370Y-80442299D01*
X116798248Y-80430000D01*
X116881752Y-80430000D01*
X117006630Y-80442299D01*
X117006630Y-80442299D01*
G37*
G36*
X95494494Y-80474011D02*
X95647037Y-80537196D01*
X95784325Y-80628929D01*
X95901071Y-80745675D01*
X95992804Y-80882963D01*
X96055989Y-81035506D01*
X96088200Y-81197443D01*
X96088200Y-81362557D01*
X96055989Y-81524494D01*
X95992804Y-81677037D01*
X95901071Y-81814325D01*
X95784325Y-81931071D01*
X95647037Y-82022804D01*
X95494494Y-82085989D01*
X95332557Y-82118200D01*
X95167443Y-82118200D01*
X95005506Y-82085989D01*
X94852963Y-82022804D01*
X94715675Y-81931071D01*
X94598929Y-81814325D01*
X94507196Y-81677037D01*
X94444011Y-81524494D01*
X94411800Y-81362557D01*
X94411800Y-81197443D01*
X94444011Y-81035506D01*
X94507196Y-80882963D01*
X94598929Y-80745675D01*
X94715675Y-80628929D01*
X94852963Y-80537196D01*
X95005506Y-80474011D01*
X95167443Y-80441800D01*
X95332557Y-80441800D01*
X95494494Y-80474011D01*
X95494494Y-80474011D01*
G37*
G36*
X103114494Y-80474011D02*
X103267037Y-80537196D01*
X103404325Y-80628929D01*
X103521071Y-80745675D01*
X103612804Y-80882963D01*
X103675989Y-81035506D01*
X103708200Y-81197443D01*
X103708200Y-81362557D01*
X103675989Y-81524494D01*
X103612804Y-81677037D01*
X103521071Y-81814325D01*
X103404325Y-81931071D01*
X103267037Y-82022804D01*
X103114494Y-82085989D01*
X102952557Y-82118200D01*
X102787443Y-82118200D01*
X102625506Y-82085989D01*
X102472963Y-82022804D01*
X102335675Y-81931071D01*
X102218929Y-81814325D01*
X102127196Y-81677037D01*
X102064011Y-81524494D01*
X102031800Y-81362557D01*
X102031800Y-81197443D01*
X102064011Y-81035506D01*
X102127196Y-80882963D01*
X102218929Y-80745675D01*
X102335675Y-80628929D01*
X102472963Y-80537196D01*
X102625506Y-80474011D01*
X102787443Y-80441800D01*
X102952557Y-80441800D01*
X103114494Y-80474011D01*
X103114494Y-80474011D01*
G37*
G36*
X59923352Y-79240743D02*
X60068941Y-79301048D01*
X60199973Y-79388601D01*
X60311399Y-79500027D01*
X60398952Y-79631059D01*
X60459257Y-79776648D01*
X60490000Y-79931205D01*
X60490000Y-80088795D01*
X60459257Y-80243352D01*
X60398952Y-80388941D01*
X60311399Y-80519973D01*
X60199973Y-80631399D01*
X60068941Y-80718952D01*
X59923352Y-80779257D01*
X59768795Y-80810000D01*
X59611205Y-80810000D01*
X59456648Y-80779257D01*
X59311059Y-80718952D01*
X59180027Y-80631399D01*
X59068601Y-80519973D01*
X58981048Y-80388941D01*
X58920743Y-80243352D01*
X58890000Y-80088795D01*
X58890000Y-79931205D01*
X58920743Y-79776648D01*
X58981048Y-79631059D01*
X59068601Y-79500027D01*
X59180027Y-79388601D01*
X59311059Y-79301048D01*
X59456648Y-79240743D01*
X59611205Y-79210000D01*
X59768795Y-79210000D01*
X59923352Y-79240743D01*
X59923352Y-79240743D01*
G37*
G36*
X117006630Y-77902299D02*
X117166855Y-77950903D01*
X117314520Y-78029831D01*
X117443949Y-78136051D01*
X117550169Y-78265480D01*
X117629097Y-78413145D01*
X117677701Y-78573370D01*
X117694112Y-78740000D01*
X117677701Y-78906630D01*
X117629097Y-79066855D01*
X117550169Y-79214520D01*
X117443949Y-79343949D01*
X117314520Y-79450169D01*
X117166855Y-79529097D01*
X117006630Y-79577701D01*
X116881752Y-79590000D01*
X116798248Y-79590000D01*
X116673370Y-79577701D01*
X116513145Y-79529097D01*
X116365480Y-79450169D01*
X116236051Y-79343949D01*
X116129831Y-79214520D01*
X116050903Y-79066855D01*
X116002299Y-78906630D01*
X115985888Y-78740000D01*
X116002299Y-78573370D01*
X116050903Y-78413145D01*
X116129831Y-78265480D01*
X116236051Y-78136051D01*
X116365480Y-78029831D01*
X116513145Y-77950903D01*
X116673370Y-77902299D01*
X116798248Y-77890000D01*
X116881752Y-77890000D01*
X117006630Y-77902299D01*
X117006630Y-77902299D01*
G37*
G36*
X81446630Y-77902299D02*
X81606855Y-77950903D01*
X81754520Y-78029831D01*
X81883949Y-78136051D01*
X81990169Y-78265480D01*
X82069097Y-78413145D01*
X82117701Y-78573370D01*
X82134112Y-78740000D01*
X82117701Y-78906630D01*
X82069097Y-79066855D01*
X81990169Y-79214520D01*
X81883949Y-79343949D01*
X81754520Y-79450169D01*
X81606855Y-79529097D01*
X81446630Y-79577701D01*
X81321752Y-79590000D01*
X81238248Y-79590000D01*
X81113370Y-79577701D01*
X80953145Y-79529097D01*
X80805480Y-79450169D01*
X80676051Y-79343949D01*
X80569831Y-79214520D01*
X80490903Y-79066855D01*
X80442299Y-78906630D01*
X80425888Y-78740000D01*
X80442299Y-78573370D01*
X80490903Y-78413145D01*
X80569831Y-78265480D01*
X80676051Y-78136051D01*
X80805480Y-78029831D01*
X80953145Y-77950903D01*
X81113370Y-77902299D01*
X81238248Y-77890000D01*
X81321752Y-77890000D01*
X81446630Y-77902299D01*
X81446630Y-77902299D01*
G37*
G36*
X103114494Y-77934011D02*
X103267037Y-77997196D01*
X103404325Y-78088929D01*
X103521071Y-78205675D01*
X103612804Y-78342963D01*
X103675989Y-78495506D01*
X103708200Y-78657443D01*
X103708200Y-78822557D01*
X103675989Y-78984494D01*
X103612804Y-79137037D01*
X103521071Y-79274325D01*
X103404325Y-79391071D01*
X103267037Y-79482804D01*
X103114494Y-79545989D01*
X102952557Y-79578200D01*
X102787443Y-79578200D01*
X102625506Y-79545989D01*
X102472963Y-79482804D01*
X102335675Y-79391071D01*
X102218929Y-79274325D01*
X102127196Y-79137037D01*
X102064011Y-78984494D01*
X102031800Y-78822557D01*
X102031800Y-78657443D01*
X102064011Y-78495506D01*
X102127196Y-78342963D01*
X102218929Y-78205675D01*
X102335675Y-78088929D01*
X102472963Y-77997196D01*
X102625506Y-77934011D01*
X102787443Y-77901800D01*
X102952557Y-77901800D01*
X103114494Y-77934011D01*
X103114494Y-77934011D01*
G37*
G36*
X96088200Y-79578200D02*
X94411800Y-79578200D01*
X94411800Y-77901800D01*
X96088200Y-77901800D01*
X96088200Y-79578200D01*
X96088200Y-79578200D01*
G37*
G36*
X117006630Y-75362299D02*
X117166855Y-75410903D01*
X117314520Y-75489831D01*
X117443949Y-75596051D01*
X117550169Y-75725480D01*
X117629097Y-75873145D01*
X117677701Y-76033370D01*
X117694112Y-76200000D01*
X117677701Y-76366630D01*
X117629097Y-76526855D01*
X117550169Y-76674520D01*
X117443949Y-76803949D01*
X117314520Y-76910169D01*
X117166855Y-76989097D01*
X117006630Y-77037701D01*
X116881752Y-77050000D01*
X116798248Y-77050000D01*
X116673370Y-77037701D01*
X116513145Y-76989097D01*
X116365480Y-76910169D01*
X116236051Y-76803949D01*
X116129831Y-76674520D01*
X116050903Y-76526855D01*
X116002299Y-76366630D01*
X115985888Y-76200000D01*
X116002299Y-76033370D01*
X116050903Y-75873145D01*
X116129831Y-75725480D01*
X116236051Y-75596051D01*
X116365480Y-75489831D01*
X116513145Y-75410903D01*
X116673370Y-75362299D01*
X116798248Y-75350000D01*
X116881752Y-75350000D01*
X117006630Y-75362299D01*
X117006630Y-75362299D01*
G37*
G36*
X81446630Y-75362299D02*
X81606855Y-75410903D01*
X81754520Y-75489831D01*
X81883949Y-75596051D01*
X81990169Y-75725480D01*
X82069097Y-75873145D01*
X82117701Y-76033370D01*
X82134112Y-76200000D01*
X82117701Y-76366630D01*
X82069097Y-76526855D01*
X81990169Y-76674520D01*
X81883949Y-76803949D01*
X81754520Y-76910169D01*
X81606855Y-76989097D01*
X81446630Y-77037701D01*
X81321752Y-77050000D01*
X81238248Y-77050000D01*
X81113370Y-77037701D01*
X80953145Y-76989097D01*
X80805480Y-76910169D01*
X80676051Y-76803949D01*
X80569831Y-76674520D01*
X80490903Y-76526855D01*
X80442299Y-76366630D01*
X80425888Y-76200000D01*
X80442299Y-76033370D01*
X80490903Y-75873145D01*
X80569831Y-75725480D01*
X80676051Y-75596051D01*
X80805480Y-75489831D01*
X80953145Y-75410903D01*
X81113370Y-75362299D01*
X81238248Y-75350000D01*
X81321752Y-75350000D01*
X81446630Y-75362299D01*
X81446630Y-75362299D01*
G37*
G36*
X59923352Y-74240743D02*
X60068941Y-74301048D01*
X60199973Y-74388601D01*
X60311399Y-74500027D01*
X60398952Y-74631059D01*
X60459257Y-74776648D01*
X60490000Y-74931205D01*
X60490000Y-75088795D01*
X60459257Y-75243352D01*
X60398952Y-75388941D01*
X60311399Y-75519973D01*
X60199973Y-75631399D01*
X60068941Y-75718952D01*
X59923352Y-75779257D01*
X59768795Y-75810000D01*
X59611205Y-75810000D01*
X59456648Y-75779257D01*
X59311059Y-75718952D01*
X59180027Y-75631399D01*
X59068601Y-75519973D01*
X58981048Y-75388941D01*
X58920743Y-75243352D01*
X58890000Y-75088795D01*
X58890000Y-74931205D01*
X58920743Y-74776648D01*
X58981048Y-74631059D01*
X59068601Y-74500027D01*
X59180027Y-74388601D01*
X59311059Y-74301048D01*
X59456648Y-74240743D01*
X59611205Y-74210000D01*
X59768795Y-74210000D01*
X59923352Y-74240743D01*
X59923352Y-74240743D01*
G37*
G36*
X117006630Y-72822299D02*
X117166855Y-72870903D01*
X117314520Y-72949831D01*
X117443949Y-73056051D01*
X117550169Y-73185480D01*
X117629097Y-73333145D01*
X117677701Y-73493370D01*
X117694112Y-73660000D01*
X117677701Y-73826630D01*
X117629097Y-73986855D01*
X117550169Y-74134520D01*
X117443949Y-74263949D01*
X117314520Y-74370169D01*
X117166855Y-74449097D01*
X117006630Y-74497701D01*
X116881752Y-74510000D01*
X116798248Y-74510000D01*
X116673370Y-74497701D01*
X116513145Y-74449097D01*
X116365480Y-74370169D01*
X116236051Y-74263949D01*
X116129831Y-74134520D01*
X116050903Y-73986855D01*
X116002299Y-73826630D01*
X115985888Y-73660000D01*
X116002299Y-73493370D01*
X116050903Y-73333145D01*
X116129831Y-73185480D01*
X116236051Y-73056051D01*
X116365480Y-72949831D01*
X116513145Y-72870903D01*
X116673370Y-72822299D01*
X116798248Y-72810000D01*
X116881752Y-72810000D01*
X117006630Y-72822299D01*
X117006630Y-72822299D01*
G37*
G36*
X81446630Y-72822299D02*
X81606855Y-72870903D01*
X81754520Y-72949831D01*
X81883949Y-73056051D01*
X81990169Y-73185480D01*
X82069097Y-73333145D01*
X82117701Y-73493370D01*
X82134112Y-73660000D01*
X82117701Y-73826630D01*
X82069097Y-73986855D01*
X81990169Y-74134520D01*
X81883949Y-74263949D01*
X81754520Y-74370169D01*
X81606855Y-74449097D01*
X81446630Y-74497701D01*
X81321752Y-74510000D01*
X81238248Y-74510000D01*
X81113370Y-74497701D01*
X80953145Y-74449097D01*
X80805480Y-74370169D01*
X80676051Y-74263949D01*
X80569831Y-74134520D01*
X80490903Y-73986855D01*
X80442299Y-73826630D01*
X80425888Y-73660000D01*
X80442299Y-73493370D01*
X80490903Y-73333145D01*
X80569831Y-73185480D01*
X80676051Y-73056051D01*
X80805480Y-72949831D01*
X80953145Y-72870903D01*
X81113370Y-72822299D01*
X81238248Y-72810000D01*
X81321752Y-72810000D01*
X81446630Y-72822299D01*
X81446630Y-72822299D01*
G37*
G36*
X67543352Y-71080743D02*
X67688941Y-71141048D01*
X67819973Y-71228601D01*
X67931399Y-71340027D01*
X68018952Y-71471059D01*
X68079257Y-71616648D01*
X68110000Y-71771205D01*
X68110000Y-71928795D01*
X68079257Y-72083352D01*
X68018952Y-72228941D01*
X67931399Y-72359973D01*
X67819973Y-72471399D01*
X67688941Y-72558952D01*
X67543352Y-72619257D01*
X67388795Y-72650000D01*
X67231205Y-72650000D01*
X67076648Y-72619257D01*
X66931059Y-72558952D01*
X66800027Y-72471399D01*
X66688601Y-72359973D01*
X66601048Y-72228941D01*
X66540743Y-72083352D01*
X66510000Y-71928795D01*
X66510000Y-71771205D01*
X66540743Y-71616648D01*
X66601048Y-71471059D01*
X66688601Y-71340027D01*
X66800027Y-71228601D01*
X66931059Y-71141048D01*
X67076648Y-71080743D01*
X67231205Y-71050000D01*
X67388795Y-71050000D01*
X67543352Y-71080743D01*
X67543352Y-71080743D01*
G37*
G36*
X117006630Y-70282299D02*
X117166855Y-70330903D01*
X117314520Y-70409831D01*
X117443949Y-70516051D01*
X117550169Y-70645480D01*
X117629097Y-70793145D01*
X117677701Y-70953370D01*
X117694112Y-71120000D01*
X117677701Y-71286630D01*
X117629097Y-71446855D01*
X117550169Y-71594520D01*
X117443949Y-71723949D01*
X117314520Y-71830169D01*
X117166855Y-71909097D01*
X117006630Y-71957701D01*
X116881752Y-71970000D01*
X116798248Y-71970000D01*
X116673370Y-71957701D01*
X116513145Y-71909097D01*
X116365480Y-71830169D01*
X116236051Y-71723949D01*
X116129831Y-71594520D01*
X116050903Y-71446855D01*
X116002299Y-71286630D01*
X115985888Y-71120000D01*
X116002299Y-70953370D01*
X116050903Y-70793145D01*
X116129831Y-70645480D01*
X116236051Y-70516051D01*
X116365480Y-70409831D01*
X116513145Y-70330903D01*
X116673370Y-70282299D01*
X116798248Y-70270000D01*
X116881752Y-70270000D01*
X117006630Y-70282299D01*
X117006630Y-70282299D01*
G37*
G36*
X81446630Y-70282299D02*
X81606855Y-70330903D01*
X81754520Y-70409831D01*
X81883949Y-70516051D01*
X81990169Y-70645480D01*
X82069097Y-70793145D01*
X82117701Y-70953370D01*
X82134112Y-71120000D01*
X82117701Y-71286630D01*
X82069097Y-71446855D01*
X81990169Y-71594520D01*
X81883949Y-71723949D01*
X81754520Y-71830169D01*
X81606855Y-71909097D01*
X81446630Y-71957701D01*
X81321752Y-71970000D01*
X81238248Y-71970000D01*
X81113370Y-71957701D01*
X80953145Y-71909097D01*
X80805480Y-71830169D01*
X80676051Y-71723949D01*
X80569831Y-71594520D01*
X80490903Y-71446855D01*
X80442299Y-71286630D01*
X80425888Y-71120000D01*
X80442299Y-70953370D01*
X80490903Y-70793145D01*
X80569831Y-70645480D01*
X80676051Y-70516051D01*
X80805480Y-70409831D01*
X80953145Y-70330903D01*
X81113370Y-70282299D01*
X81238248Y-70270000D01*
X81321752Y-70270000D01*
X81446630Y-70282299D01*
X81446630Y-70282299D01*
G37*
G36*
X68110000Y-70650000D02*
X66510000Y-70650000D01*
X66510000Y-69050000D01*
X68110000Y-69050000D01*
X68110000Y-70650000D01*
X68110000Y-70650000D01*
G37*
G36*
X55610000Y-69532500D02*
X53610000Y-69532500D01*
X53610000Y-67627500D01*
X55610000Y-67627500D01*
X55610000Y-69532500D01*
X55610000Y-69532500D01*
G37*
G36*
X117690000Y-69430000D02*
X115990000Y-69430000D01*
X115990000Y-67730000D01*
X117690000Y-67730000D01*
X117690000Y-69430000D01*
X117690000Y-69430000D01*
G37*
G36*
X82130000Y-69430000D02*
X80430000Y-69430000D01*
X80430000Y-67730000D01*
X82130000Y-67730000D01*
X82130000Y-69430000D01*
X82130000Y-69430000D01*
G37*
G36*
X54844224Y-65101282D02*
X55023769Y-65155747D01*
X55189241Y-65244193D01*
X55334278Y-65363222D01*
X55453307Y-65508259D01*
X55541753Y-65673731D01*
X55596218Y-65853276D01*
X55614608Y-66040000D01*
X55596218Y-66226724D01*
X55541753Y-66406269D01*
X55453307Y-66571741D01*
X55334278Y-66716778D01*
X55189241Y-66835807D01*
X55023769Y-66924253D01*
X54844224Y-66978718D01*
X54704289Y-66992500D01*
X54515711Y-66992500D01*
X54375776Y-66978718D01*
X54196231Y-66924253D01*
X54030759Y-66835807D01*
X53885722Y-66716778D01*
X53766693Y-66571741D01*
X53678247Y-66406269D01*
X53623782Y-66226724D01*
X53605392Y-66040000D01*
X53623782Y-65853276D01*
X53678247Y-65673731D01*
X53766693Y-65508259D01*
X53885722Y-65363222D01*
X54030759Y-65244193D01*
X54196231Y-65155747D01*
X54375776Y-65101282D01*
X54515711Y-65087500D01*
X54704289Y-65087500D01*
X54844224Y-65101282D01*
X54844224Y-65101282D01*
G37*
G36*
X63715639Y-62415916D02*
X63922986Y-62478815D01*
X63922988Y-62478816D01*
X64114084Y-62580958D01*
X64281581Y-62718419D01*
X64419042Y-62885916D01*
X64521184Y-63077012D01*
X64584084Y-63284362D01*
X64605322Y-63500000D01*
X64584084Y-63715638D01*
X64521184Y-63922988D01*
X64419042Y-64114084D01*
X64281581Y-64281581D01*
X64114084Y-64419042D01*
X63922988Y-64521184D01*
X63922986Y-64521185D01*
X63715639Y-64584084D01*
X63554038Y-64600000D01*
X63445962Y-64600000D01*
X63284361Y-64584084D01*
X63077014Y-64521185D01*
X63077012Y-64521184D01*
X62885916Y-64419042D01*
X62718419Y-64281581D01*
X62580958Y-64114084D01*
X62478816Y-63922988D01*
X62415916Y-63715638D01*
X62394678Y-63500000D01*
X62415916Y-63284362D01*
X62478816Y-63077012D01*
X62580958Y-62885916D01*
X62718419Y-62718419D01*
X62885916Y-62580958D01*
X63077012Y-62478816D01*
X63077014Y-62478815D01*
X63284361Y-62415916D01*
X63445962Y-62400000D01*
X63554038Y-62400000D01*
X63715639Y-62415916D01*
X63715639Y-62415916D01*
G37*
G36*
X74760000Y-64600000D02*
X72560000Y-64600000D01*
X72560000Y-62400000D01*
X74760000Y-62400000D01*
X74760000Y-64600000D01*
X74760000Y-64600000D01*
G37*
G36*
X54844224Y-62561282D02*
X55023769Y-62615747D01*
X55189241Y-62704193D01*
X55334278Y-62823222D01*
X55453307Y-62968259D01*
X55541753Y-63133731D01*
X55596218Y-63313276D01*
X55614608Y-63500000D01*
X55596218Y-63686724D01*
X55541753Y-63866269D01*
X55453307Y-64031741D01*
X55334278Y-64176778D01*
X55189241Y-64295807D01*
X55023769Y-64384253D01*
X54844224Y-64438718D01*
X54704289Y-64452500D01*
X54515711Y-64452500D01*
X54375776Y-64438718D01*
X54196231Y-64384253D01*
X54030759Y-64295807D01*
X53885722Y-64176778D01*
X53766693Y-64031741D01*
X53678247Y-63866269D01*
X53623782Y-63686724D01*
X53605392Y-63500000D01*
X53623782Y-63313276D01*
X53678247Y-63133731D01*
X53766693Y-62968259D01*
X53885722Y-62823222D01*
X54030759Y-62704193D01*
X54196231Y-62615747D01*
X54375776Y-62561282D01*
X54515711Y-62547500D01*
X54704289Y-62547500D01*
X54844224Y-62561282D01*
X54844224Y-62561282D01*
G37*
G36*
X98005639Y-56065916D02*
X98212986Y-56128815D01*
X98212988Y-56128816D01*
X98404084Y-56230958D01*
X98571581Y-56368419D01*
X98709042Y-56535916D01*
X98798559Y-56703392D01*
X98811185Y-56727014D01*
X98874084Y-56934361D01*
X98895322Y-57150000D01*
X98874084Y-57365639D01*
X98824546Y-57528942D01*
X98811184Y-57572988D01*
X98709042Y-57764084D01*
X98571581Y-57931581D01*
X98404084Y-58069042D01*
X98212988Y-58171184D01*
X98212986Y-58171185D01*
X98005639Y-58234084D01*
X97844038Y-58250000D01*
X97735962Y-58250000D01*
X97574361Y-58234084D01*
X97367014Y-58171185D01*
X97367012Y-58171184D01*
X97175916Y-58069042D01*
X97008419Y-57931581D01*
X96870958Y-57764084D01*
X96768816Y-57572988D01*
X96755455Y-57528942D01*
X96705916Y-57365639D01*
X96684678Y-57150000D01*
X96705916Y-56934361D01*
X96768815Y-56727014D01*
X96781441Y-56703392D01*
X96870958Y-56535916D01*
X97008419Y-56368419D01*
X97175916Y-56230958D01*
X97367012Y-56128816D01*
X97367014Y-56128815D01*
X97574361Y-56065916D01*
X97735962Y-56050000D01*
X97844038Y-56050000D01*
X98005639Y-56065916D01*
X98005639Y-56065916D01*
G37*
G36*
X88730000Y-58250000D02*
X86530000Y-58250000D01*
X86530000Y-56050000D01*
X88730000Y-56050000D01*
X88730000Y-58250000D01*
X88730000Y-58250000D01*
G37*
G36*
X69967649Y-56357717D02*
X70006827Y-56361576D01*
X70029385Y-56368419D01*
X70157629Y-56407321D01*
X70296608Y-56481608D01*
X70418422Y-56581578D01*
X70518392Y-56703392D01*
X70592679Y-56842371D01*
X70638424Y-56993174D01*
X70653870Y-57150000D01*
X70638424Y-57306826D01*
X70592679Y-57457629D01*
X70518392Y-57596608D01*
X70418422Y-57718422D01*
X70296608Y-57818392D01*
X70157629Y-57892679D01*
X70082228Y-57915551D01*
X70006827Y-57938424D01*
X69967649Y-57942283D01*
X69889295Y-57950000D01*
X69810705Y-57950000D01*
X69732351Y-57942283D01*
X69693173Y-57938424D01*
X69617772Y-57915551D01*
X69542371Y-57892679D01*
X69403392Y-57818392D01*
X69281578Y-57718422D01*
X69181608Y-57596608D01*
X69107321Y-57457629D01*
X69061576Y-57306826D01*
X69046130Y-57150000D01*
X69061576Y-56993174D01*
X69107321Y-56842371D01*
X69181608Y-56703392D01*
X69281578Y-56581578D01*
X69403392Y-56481608D01*
X69542371Y-56407321D01*
X69670615Y-56368419D01*
X69693173Y-56361576D01*
X69732351Y-56357717D01*
X69810705Y-56350000D01*
X69889295Y-56350000D01*
X69967649Y-56357717D01*
X69967649Y-56357717D01*
G37*
G36*
X77703352Y-56380743D02*
X77848941Y-56441048D01*
X77979973Y-56528601D01*
X78091399Y-56640027D01*
X78178952Y-56771059D01*
X78239257Y-56916648D01*
X78270000Y-57071205D01*
X78270000Y-57228795D01*
X78239257Y-57383352D01*
X78178952Y-57528941D01*
X78091399Y-57659973D01*
X77979973Y-57771399D01*
X77848941Y-57858952D01*
X77703352Y-57919257D01*
X77548795Y-57950000D01*
X77391205Y-57950000D01*
X77236648Y-57919257D01*
X77091059Y-57858952D01*
X76960027Y-57771399D01*
X76848601Y-57659973D01*
X76761048Y-57528941D01*
X76700743Y-57383352D01*
X76670000Y-57228795D01*
X76670000Y-57071205D01*
X76700743Y-56916648D01*
X76761048Y-56771059D01*
X76848601Y-56640027D01*
X76960027Y-56528601D01*
X77091059Y-56441048D01*
X77236648Y-56380743D01*
X77391205Y-56350000D01*
X77548795Y-56350000D01*
X77703352Y-56380743D01*
X77703352Y-56380743D01*
G37*
G36*
X125760000Y-54640000D02*
X123160000Y-54640000D01*
X123160000Y-52040000D01*
X125760000Y-52040000D01*
X125760000Y-54640000D01*
X125760000Y-54640000D01*
G37*
G36*
X72576723Y-51083782D02*
X72756268Y-51138247D01*
X72921741Y-51226693D01*
X73066778Y-51345722D01*
X73185807Y-51490759D01*
X73274253Y-51656231D01*
X73328718Y-51835776D01*
X73342500Y-51975711D01*
X73342500Y-52164288D01*
X73328718Y-52304223D01*
X73274253Y-52483768D01*
X73185807Y-52649241D01*
X73066778Y-52794278D01*
X72921741Y-52913307D01*
X72756269Y-53001753D01*
X72576724Y-53056218D01*
X72390000Y-53074608D01*
X72203277Y-53056218D01*
X72023732Y-53001753D01*
X71858264Y-52913309D01*
X71858263Y-52913308D01*
X71858259Y-52913306D01*
X71713222Y-52794278D01*
X71713221Y-52794276D01*
X71713219Y-52794275D01*
X71594193Y-52649241D01*
X71505747Y-52483769D01*
X71451282Y-52304224D01*
X71437500Y-52164289D01*
X71437500Y-51975712D01*
X71451282Y-51835777D01*
X71505747Y-51656232D01*
X71594193Y-51490759D01*
X71713222Y-51345722D01*
X71858259Y-51226693D01*
X72023731Y-51138247D01*
X72203276Y-51083782D01*
X72390000Y-51065392D01*
X72576723Y-51083782D01*
X72576723Y-51083782D01*
G37*
G36*
X75116723Y-51083782D02*
X75296268Y-51138247D01*
X75461741Y-51226693D01*
X75606778Y-51345722D01*
X75725807Y-51490759D01*
X75814253Y-51656231D01*
X75868718Y-51835776D01*
X75882500Y-51975711D01*
X75882500Y-52164288D01*
X75868718Y-52304223D01*
X75814253Y-52483768D01*
X75725807Y-52649241D01*
X75606778Y-52794278D01*
X75461741Y-52913307D01*
X75296269Y-53001753D01*
X75116724Y-53056218D01*
X74930000Y-53074608D01*
X74743277Y-53056218D01*
X74563732Y-53001753D01*
X74398264Y-52913309D01*
X74398263Y-52913308D01*
X74398259Y-52913306D01*
X74253222Y-52794278D01*
X74253221Y-52794276D01*
X74253219Y-52794275D01*
X74134193Y-52649241D01*
X74045747Y-52483769D01*
X73991282Y-52304224D01*
X73977500Y-52164289D01*
X73977500Y-51975712D01*
X73991282Y-51835777D01*
X74045747Y-51656232D01*
X74134193Y-51490759D01*
X74253222Y-51345722D01*
X74398259Y-51226693D01*
X74563731Y-51138247D01*
X74743276Y-51083782D01*
X74930000Y-51065392D01*
X75116723Y-51083782D01*
X75116723Y-51083782D01*
G37*
G36*
X70802500Y-53070000D02*
X68897500Y-53070000D01*
X68897500Y-51070000D01*
X70802500Y-51070000D01*
X70802500Y-53070000D01*
X70802500Y-53070000D01*
G37*
G36*
X101180000Y-52920000D02*
X99480000Y-52920000D01*
X99480000Y-51220000D01*
X101180000Y-51220000D01*
X101180000Y-52920000D01*
X101180000Y-52920000D01*
G37*
G36*
X87796630Y-51232299D02*
X87956855Y-51280903D01*
X88104520Y-51359831D01*
X88233949Y-51466051D01*
X88340169Y-51595480D01*
X88419097Y-51743145D01*
X88467701Y-51903370D01*
X88484112Y-52070000D01*
X88467701Y-52236630D01*
X88419097Y-52396855D01*
X88340169Y-52544520D01*
X88233949Y-52673949D01*
X88104520Y-52780169D01*
X87956855Y-52859097D01*
X87796630Y-52907701D01*
X87671752Y-52920000D01*
X87588248Y-52920000D01*
X87463370Y-52907701D01*
X87303145Y-52859097D01*
X87155480Y-52780169D01*
X87026051Y-52673949D01*
X86919831Y-52544520D01*
X86840903Y-52396855D01*
X86792299Y-52236630D01*
X86775888Y-52070000D01*
X86792299Y-51903370D01*
X86840903Y-51743145D01*
X86919831Y-51595480D01*
X87026051Y-51466051D01*
X87155480Y-51359831D01*
X87303145Y-51280903D01*
X87463370Y-51232299D01*
X87588248Y-51220000D01*
X87671752Y-51220000D01*
X87796630Y-51232299D01*
X87796630Y-51232299D01*
G37*
G36*
X90336630Y-51232299D02*
X90496855Y-51280903D01*
X90644520Y-51359831D01*
X90773949Y-51466051D01*
X90880169Y-51595480D01*
X90959097Y-51743145D01*
X91007701Y-51903370D01*
X91024112Y-52070000D01*
X91007701Y-52236630D01*
X90959097Y-52396855D01*
X90880169Y-52544520D01*
X90773949Y-52673949D01*
X90644520Y-52780169D01*
X90496855Y-52859097D01*
X90336630Y-52907701D01*
X90211752Y-52920000D01*
X90128248Y-52920000D01*
X90003370Y-52907701D01*
X89843145Y-52859097D01*
X89695480Y-52780169D01*
X89566051Y-52673949D01*
X89459831Y-52544520D01*
X89380903Y-52396855D01*
X89332299Y-52236630D01*
X89315888Y-52070000D01*
X89332299Y-51903370D01*
X89380903Y-51743145D01*
X89459831Y-51595480D01*
X89566051Y-51466051D01*
X89695480Y-51359831D01*
X89843145Y-51280903D01*
X90003370Y-51232299D01*
X90128248Y-51220000D01*
X90211752Y-51220000D01*
X90336630Y-51232299D01*
X90336630Y-51232299D01*
G37*
G36*
X92876630Y-51232299D02*
X93036855Y-51280903D01*
X93184520Y-51359831D01*
X93313949Y-51466051D01*
X93420169Y-51595480D01*
X93499097Y-51743145D01*
X93547701Y-51903370D01*
X93564112Y-52070000D01*
X93547701Y-52236630D01*
X93499097Y-52396855D01*
X93420169Y-52544520D01*
X93313949Y-52673949D01*
X93184520Y-52780169D01*
X93036855Y-52859097D01*
X92876630Y-52907701D01*
X92751752Y-52920000D01*
X92668248Y-52920000D01*
X92543370Y-52907701D01*
X92383145Y-52859097D01*
X92235480Y-52780169D01*
X92106051Y-52673949D01*
X91999831Y-52544520D01*
X91920903Y-52396855D01*
X91872299Y-52236630D01*
X91855888Y-52070000D01*
X91872299Y-51903370D01*
X91920903Y-51743145D01*
X91999831Y-51595480D01*
X92106051Y-51466051D01*
X92235480Y-51359831D01*
X92383145Y-51280903D01*
X92543370Y-51232299D01*
X92668248Y-51220000D01*
X92751752Y-51220000D01*
X92876630Y-51232299D01*
X92876630Y-51232299D01*
G37*
G36*
X95416630Y-51232299D02*
X95576855Y-51280903D01*
X95724520Y-51359831D01*
X95853949Y-51466051D01*
X95960169Y-51595480D01*
X96039097Y-51743145D01*
X96087701Y-51903370D01*
X96104112Y-52070000D01*
X96087701Y-52236630D01*
X96039097Y-52396855D01*
X95960169Y-52544520D01*
X95853949Y-52673949D01*
X95724520Y-52780169D01*
X95576855Y-52859097D01*
X95416630Y-52907701D01*
X95291752Y-52920000D01*
X95208248Y-52920000D01*
X95083370Y-52907701D01*
X94923145Y-52859097D01*
X94775480Y-52780169D01*
X94646051Y-52673949D01*
X94539831Y-52544520D01*
X94460903Y-52396855D01*
X94412299Y-52236630D01*
X94395888Y-52070000D01*
X94412299Y-51903370D01*
X94460903Y-51743145D01*
X94539831Y-51595480D01*
X94646051Y-51466051D01*
X94775480Y-51359831D01*
X94923145Y-51280903D01*
X95083370Y-51232299D01*
X95208248Y-51220000D01*
X95291752Y-51220000D01*
X95416630Y-51232299D01*
X95416630Y-51232299D01*
G37*
G36*
X97956630Y-51232299D02*
X98116855Y-51280903D01*
X98264520Y-51359831D01*
X98393949Y-51466051D01*
X98500169Y-51595480D01*
X98579097Y-51743145D01*
X98627701Y-51903370D01*
X98644112Y-52070000D01*
X98627701Y-52236630D01*
X98579097Y-52396855D01*
X98500169Y-52544520D01*
X98393949Y-52673949D01*
X98264520Y-52780169D01*
X98116855Y-52859097D01*
X97956630Y-52907701D01*
X97831752Y-52920000D01*
X97748248Y-52920000D01*
X97623370Y-52907701D01*
X97463145Y-52859097D01*
X97315480Y-52780169D01*
X97186051Y-52673949D01*
X97079831Y-52544520D01*
X97000903Y-52396855D01*
X96952299Y-52236630D01*
X96935888Y-52070000D01*
X96952299Y-51903370D01*
X97000903Y-51743145D01*
X97079831Y-51595480D01*
X97186051Y-51466051D01*
X97315480Y-51359831D01*
X97463145Y-51280903D01*
X97623370Y-51232299D01*
X97748248Y-51220000D01*
X97831752Y-51220000D01*
X97956630Y-51232299D01*
X97956630Y-51232299D01*
G37*
G36*
X113830000Y-51600000D02*
X112230000Y-51600000D01*
X112230000Y-50000000D01*
X113830000Y-50000000D01*
X113830000Y-51600000D01*
X113830000Y-51600000D01*
G37*
G36*
X58450000Y-50830000D02*
X55850000Y-50830000D01*
X55850000Y-48230000D01*
X58450000Y-48230000D01*
X58450000Y-50830000D01*
X58450000Y-50830000D01*
G37*
G36*
X52529196Y-48279958D02*
X52765780Y-48377954D01*
X52978705Y-48520226D01*
X53159774Y-48701295D01*
X53302046Y-48914220D01*
X53400042Y-49150804D01*
X53450000Y-49401960D01*
X53450000Y-49658040D01*
X53400042Y-49909196D01*
X53302046Y-50145780D01*
X53159774Y-50358705D01*
X52978705Y-50539774D01*
X52765780Y-50682046D01*
X52529196Y-50780042D01*
X52278040Y-50830000D01*
X52021960Y-50830000D01*
X51770804Y-50780042D01*
X51534220Y-50682046D01*
X51321295Y-50539774D01*
X51140226Y-50358705D01*
X50997954Y-50145780D01*
X50899958Y-49909196D01*
X50850000Y-49658040D01*
X50850000Y-49401960D01*
X50899958Y-49150804D01*
X50997954Y-48914220D01*
X51140226Y-48701295D01*
X51321295Y-48520226D01*
X51534220Y-48377954D01*
X51770804Y-48279958D01*
X52021960Y-48230000D01*
X52278040Y-48230000D01*
X52529196Y-48279958D01*
X52529196Y-48279958D01*
G37*
G36*
X124839196Y-47089958D02*
X125075780Y-47187954D01*
X125288705Y-47330226D01*
X125469774Y-47511295D01*
X125612046Y-47724220D01*
X125710042Y-47960804D01*
X125760000Y-48211960D01*
X125760000Y-48468040D01*
X125710042Y-48719196D01*
X125612046Y-48955780D01*
X125469774Y-49168705D01*
X125288705Y-49349774D01*
X125075780Y-49492046D01*
X124839196Y-49590042D01*
X124588040Y-49640000D01*
X124331960Y-49640000D01*
X124080804Y-49590042D01*
X123844220Y-49492046D01*
X123631295Y-49349774D01*
X123450226Y-49168705D01*
X123307954Y-48955780D01*
X123209958Y-48719196D01*
X123160000Y-48468040D01*
X123160000Y-48211960D01*
X123209958Y-47960804D01*
X123307954Y-47724220D01*
X123450226Y-47511295D01*
X123631295Y-47330226D01*
X123844220Y-47187954D01*
X124080804Y-47089958D01*
X124331960Y-47040000D01*
X124588040Y-47040000D01*
X124839196Y-47089958D01*
X124839196Y-47089958D01*
G37*
G36*
X113263352Y-47530743D02*
X113408941Y-47591048D01*
X113539973Y-47678601D01*
X113651399Y-47790027D01*
X113738952Y-47921059D01*
X113799257Y-48066648D01*
X113830000Y-48221205D01*
X113830000Y-48378795D01*
X113799257Y-48533352D01*
X113738952Y-48678941D01*
X113651399Y-48809973D01*
X113539973Y-48921399D01*
X113408941Y-49008952D01*
X113263352Y-49069257D01*
X113108795Y-49100000D01*
X112951205Y-49100000D01*
X112796648Y-49069257D01*
X112651059Y-49008952D01*
X112520027Y-48921399D01*
X112408601Y-48809973D01*
X112321048Y-48678941D01*
X112260743Y-48533352D01*
X112230000Y-48378795D01*
X112230000Y-48221205D01*
X112260743Y-48066648D01*
X112321048Y-47921059D01*
X112408601Y-47790027D01*
X112520027Y-47678601D01*
X112651059Y-47591048D01*
X112796648Y-47530743D01*
X112951205Y-47500000D01*
X113108795Y-47500000D01*
X113263352Y-47530743D01*
X113263352Y-47530743D01*
G37*
G36*
X127787560Y-34233759D02*
X128278928Y-34437290D01*
X128278930Y-34437291D01*
X128715268Y-34728843D01*
X128721153Y-34732775D01*
X129097225Y-35108847D01*
X129392710Y-35551072D01*
X129596241Y-36042440D01*
X129700000Y-36564072D01*
X129700000Y-37095928D01*
X129596241Y-37617560D01*
X129392710Y-38108928D01*
X129097225Y-38551153D01*
X128721153Y-38927225D01*
X128721150Y-38927227D01*
X128278930Y-39222709D01*
X128278929Y-39222710D01*
X128278928Y-39222710D01*
X127787560Y-39426241D01*
X127265928Y-39530000D01*
X126734072Y-39530000D01*
X126212440Y-39426241D01*
X125721072Y-39222710D01*
X125721071Y-39222710D01*
X125721070Y-39222709D01*
X125278850Y-38927227D01*
X125278847Y-38927225D01*
X124902775Y-38551153D01*
X124607290Y-38108928D01*
X124403759Y-37617560D01*
X124300000Y-37095928D01*
X124300000Y-36564072D01*
X124403759Y-36042440D01*
X124607290Y-35551072D01*
X124902775Y-35108847D01*
X125278847Y-34732775D01*
X125284732Y-34728843D01*
X125721070Y-34437291D01*
X125721072Y-34437290D01*
X126212440Y-34233759D01*
X126734072Y-34130000D01*
X127265928Y-34130000D01*
X127787560Y-34233759D01*
X127787560Y-34233759D01*
G37*
G36*
X43967560Y-34233759D02*
X44458928Y-34437290D01*
X44458930Y-34437291D01*
X44895268Y-34728843D01*
X44901153Y-34732775D01*
X45277225Y-35108847D01*
X45572710Y-35551072D01*
X45776241Y-36042440D01*
X45880000Y-36564072D01*
X45880000Y-37095928D01*
X45776241Y-37617560D01*
X45572710Y-38108928D01*
X45277225Y-38551153D01*
X44901153Y-38927225D01*
X44901150Y-38927227D01*
X44458930Y-39222709D01*
X44458929Y-39222710D01*
X44458928Y-39222710D01*
X43967560Y-39426241D01*
X43445928Y-39530000D01*
X42914072Y-39530000D01*
X42392440Y-39426241D01*
X41901072Y-39222710D01*
X41901071Y-39222710D01*
X41901070Y-39222709D01*
X41458850Y-38927227D01*
X41458847Y-38927225D01*
X41082775Y-38551153D01*
X40787290Y-38108928D01*
X40583759Y-37617560D01*
X40480000Y-37095928D01*
X40480000Y-36564072D01*
X40583759Y-36042440D01*
X40787290Y-35551072D01*
X41082775Y-35108847D01*
X41458847Y-34732775D01*
X41464732Y-34728843D01*
X41901070Y-34437291D01*
X41901072Y-34437290D01*
X42392440Y-34233759D01*
X42914072Y-34130000D01*
X43445928Y-34130000D01*
X43967560Y-34233759D01*
X43967560Y-34233759D01*
G37*
M02*
