G04 #@! TF.GenerationSoftware,KiCad,Pcbnew,5.0.2+dfsg1-1~bpo9+1*
G04 #@! TF.CreationDate,2019-05-27T08:16:01+01:00*
G04 #@! TF.ProjectId,PSU,5053552e-6b69-4636-9164-5f7063625858,rev?*
G04 #@! TF.SameCoordinates,Original*
G04 #@! TF.FileFunction,Legend,Top*
G04 #@! TF.FilePolarity,Positive*
%FSLAX46Y46*%
G04 Gerber Fmt 4.6, Leading zero omitted, Abs format (unit mm)*
G04 Created by KiCad (PCBNEW 5.0.2+dfsg1-1~bpo9+1) date Mon 27 May 2019 08:16:01 IST*
%MOMM*%
%LPD*%
G01*
G04 APERTURE LIST*
%ADD10C,0.300000*%
%ADD11C,0.250000*%
%ADD12C,0.200000*%
%ADD13C,0.120000*%
%ADD14C,0.152400*%
%ADD15C,0.150000*%
%ADD16C,0.050000*%
G04 APERTURE END LIST*
D10*
X50734285Y-36238571D02*
X50734285Y-34738571D01*
X51305714Y-34738571D01*
X51448571Y-34810000D01*
X51519999Y-34881428D01*
X51591428Y-35024285D01*
X51591428Y-35238571D01*
X51519999Y-35381428D01*
X51448571Y-35452857D01*
X51305714Y-35524285D01*
X50734285Y-35524285D01*
X52162857Y-36167142D02*
X52377142Y-36238571D01*
X52734285Y-36238571D01*
X52877142Y-36167142D01*
X52948571Y-36095714D01*
X53019999Y-35952857D01*
X53019999Y-35810000D01*
X52948571Y-35667142D01*
X52877142Y-35595714D01*
X52734285Y-35524285D01*
X52448571Y-35452857D01*
X52305714Y-35381428D01*
X52234285Y-35310000D01*
X52162857Y-35167142D01*
X52162857Y-35024285D01*
X52234285Y-34881428D01*
X52305714Y-34810000D01*
X52448571Y-34738571D01*
X52805714Y-34738571D01*
X53019999Y-34810000D01*
X53662857Y-34738571D02*
X53662857Y-35952857D01*
X53734285Y-36095714D01*
X53805714Y-36167142D01*
X53948571Y-36238571D01*
X54234285Y-36238571D01*
X54377142Y-36167142D01*
X54448571Y-36095714D01*
X54519999Y-35952857D01*
X54519999Y-34738571D01*
X56234285Y-35238571D02*
X56591428Y-36238571D01*
X56948571Y-35238571D01*
X58305714Y-36238571D02*
X57448571Y-36238571D01*
X57877142Y-36238571D02*
X57877142Y-34738571D01*
X57734285Y-34952857D01*
X57591428Y-35095714D01*
X57448571Y-35167142D01*
X58948571Y-36095714D02*
X59019999Y-36167142D01*
X58948571Y-36238571D01*
X58877142Y-36167142D01*
X58948571Y-36095714D01*
X58948571Y-36238571D01*
X59948571Y-34738571D02*
X60091428Y-34738571D01*
X60234285Y-34810000D01*
X60305714Y-34881428D01*
X60377142Y-35024285D01*
X60448571Y-35310000D01*
X60448571Y-35667142D01*
X60377142Y-35952857D01*
X60305714Y-36095714D01*
X60234285Y-36167142D01*
X60091428Y-36238571D01*
X59948571Y-36238571D01*
X59805714Y-36167142D01*
X59734285Y-36095714D01*
X59662857Y-35952857D01*
X59591428Y-35667142D01*
X59591428Y-35310000D01*
X59662857Y-35024285D01*
X59734285Y-34881428D01*
X59805714Y-34810000D01*
X59948571Y-34738571D01*
X62662857Y-36810000D02*
X62591428Y-36738571D01*
X62448571Y-36524285D01*
X62377142Y-36381428D01*
X62305714Y-36167142D01*
X62234285Y-35810000D01*
X62234285Y-35524285D01*
X62305714Y-35167142D01*
X62377142Y-34952857D01*
X62448571Y-34810000D01*
X62591428Y-34595714D01*
X62662857Y-34524285D01*
X63877142Y-36167142D02*
X63734285Y-36238571D01*
X63448571Y-36238571D01*
X63305714Y-36167142D01*
X63234285Y-36095714D01*
X63162857Y-35952857D01*
X63162857Y-35524285D01*
X63234285Y-35381428D01*
X63305714Y-35310000D01*
X63448571Y-35238571D01*
X63734285Y-35238571D01*
X63877142Y-35310000D01*
X64377142Y-36810000D02*
X64448571Y-36738571D01*
X64591428Y-36524285D01*
X64662857Y-36381428D01*
X64734285Y-36167142D01*
X64805714Y-35810000D01*
X64805714Y-35524285D01*
X64734285Y-35167142D01*
X64662857Y-34952857D01*
X64591428Y-34810000D01*
X64448571Y-34595714D01*
X64377142Y-34524285D01*
X66591428Y-34881428D02*
X66662857Y-34810000D01*
X66805714Y-34738571D01*
X67162857Y-34738571D01*
X67305714Y-34810000D01*
X67377142Y-34881428D01*
X67448571Y-35024285D01*
X67448571Y-35167142D01*
X67377142Y-35381428D01*
X66519999Y-36238571D01*
X67448571Y-36238571D01*
X68377142Y-34738571D02*
X68520000Y-34738571D01*
X68662857Y-34810000D01*
X68734285Y-34881428D01*
X68805714Y-35024285D01*
X68877142Y-35310000D01*
X68877142Y-35667142D01*
X68805714Y-35952857D01*
X68734285Y-36095714D01*
X68662857Y-36167142D01*
X68520000Y-36238571D01*
X68377142Y-36238571D01*
X68234285Y-36167142D01*
X68162857Y-36095714D01*
X68091428Y-35952857D01*
X68020000Y-35667142D01*
X68020000Y-35310000D01*
X68091428Y-35024285D01*
X68162857Y-34881428D01*
X68234285Y-34810000D01*
X68377142Y-34738571D01*
X70305714Y-36238571D02*
X69448571Y-36238571D01*
X69877142Y-36238571D02*
X69877142Y-34738571D01*
X69734285Y-34952857D01*
X69591428Y-35095714D01*
X69448571Y-35167142D01*
X71020000Y-36238571D02*
X71305714Y-36238571D01*
X71448571Y-36167142D01*
X71520000Y-36095714D01*
X71662857Y-35881428D01*
X71734285Y-35595714D01*
X71734285Y-35024285D01*
X71662857Y-34881428D01*
X71591428Y-34810000D01*
X71448571Y-34738571D01*
X71162857Y-34738571D01*
X71020000Y-34810000D01*
X70948571Y-34881428D01*
X70877142Y-35024285D01*
X70877142Y-35381428D01*
X70948571Y-35524285D01*
X71020000Y-35595714D01*
X71162857Y-35667142D01*
X71448571Y-35667142D01*
X71591428Y-35595714D01*
X71662857Y-35524285D01*
X71734285Y-35381428D01*
X73448571Y-36167142D02*
X73662857Y-36238571D01*
X74020000Y-36238571D01*
X74162857Y-36167142D01*
X74234285Y-36095714D01*
X74305714Y-35952857D01*
X74305714Y-35810000D01*
X74234285Y-35667142D01*
X74162857Y-35595714D01*
X74020000Y-35524285D01*
X73734285Y-35452857D01*
X73591428Y-35381428D01*
X73520000Y-35310000D01*
X73448571Y-35167142D01*
X73448571Y-35024285D01*
X73520000Y-34881428D01*
X73591428Y-34810000D01*
X73734285Y-34738571D01*
X74091428Y-34738571D01*
X74305714Y-34810000D01*
X74734285Y-35238571D02*
X75305714Y-35238571D01*
X74948571Y-34738571D02*
X74948571Y-36024285D01*
X75020000Y-36167142D01*
X75162857Y-36238571D01*
X75305714Y-36238571D01*
X76377142Y-36167142D02*
X76234285Y-36238571D01*
X75948571Y-36238571D01*
X75805714Y-36167142D01*
X75734285Y-36024285D01*
X75734285Y-35452857D01*
X75805714Y-35310000D01*
X75948571Y-35238571D01*
X76234285Y-35238571D01*
X76377142Y-35310000D01*
X76448571Y-35452857D01*
X76448571Y-35595714D01*
X75734285Y-35738571D01*
X76948571Y-35238571D02*
X77305714Y-36238571D01*
X77662857Y-35238571D01*
X78805714Y-36167142D02*
X78662857Y-36238571D01*
X78377142Y-36238571D01*
X78234285Y-36167142D01*
X78162857Y-36024285D01*
X78162857Y-35452857D01*
X78234285Y-35310000D01*
X78377142Y-35238571D01*
X78662857Y-35238571D01*
X78805714Y-35310000D01*
X78877142Y-35452857D01*
X78877142Y-35595714D01*
X78162857Y-35738571D01*
D11*
X48938571Y-68920952D02*
X47438571Y-68920952D01*
X48938571Y-68492380D02*
X48152857Y-68492380D01*
X48010000Y-68540000D01*
X47938571Y-68635238D01*
X47938571Y-68778095D01*
X48010000Y-68873333D01*
X48081428Y-68920952D01*
X48867142Y-67635238D02*
X48938571Y-67730476D01*
X48938571Y-67920952D01*
X48867142Y-68016190D01*
X48724285Y-68063809D01*
X48152857Y-68063809D01*
X48010000Y-68016190D01*
X47938571Y-67920952D01*
X47938571Y-67730476D01*
X48010000Y-67635238D01*
X48152857Y-67587619D01*
X48295714Y-67587619D01*
X48438571Y-68063809D01*
X48938571Y-66730476D02*
X48152857Y-66730476D01*
X48010000Y-66778095D01*
X47938571Y-66873333D01*
X47938571Y-67063809D01*
X48010000Y-67159047D01*
X48867142Y-66730476D02*
X48938571Y-66825714D01*
X48938571Y-67063809D01*
X48867142Y-67159047D01*
X48724285Y-67206666D01*
X48581428Y-67206666D01*
X48438571Y-67159047D01*
X48367142Y-67063809D01*
X48367142Y-66825714D01*
X48295714Y-66730476D01*
X47938571Y-66397142D02*
X47938571Y-66016190D01*
X47438571Y-66254285D02*
X48724285Y-66254285D01*
X48867142Y-66206666D01*
X48938571Y-66111428D01*
X48938571Y-66016190D01*
X48867142Y-65730476D02*
X48938571Y-65635238D01*
X48938571Y-65444761D01*
X48867142Y-65349523D01*
X48724285Y-65301904D01*
X48652857Y-65301904D01*
X48510000Y-65349523D01*
X48438571Y-65444761D01*
X48438571Y-65587619D01*
X48367142Y-65682857D01*
X48224285Y-65730476D01*
X48152857Y-65730476D01*
X48010000Y-65682857D01*
X47938571Y-65587619D01*
X47938571Y-65444761D01*
X48010000Y-65349523D01*
X48938571Y-64873333D02*
X47938571Y-64873333D01*
X47438571Y-64873333D02*
X47510000Y-64920952D01*
X47581428Y-64873333D01*
X47510000Y-64825714D01*
X47438571Y-64873333D01*
X47581428Y-64873333D01*
X47938571Y-64397142D02*
X48938571Y-64397142D01*
X48081428Y-64397142D02*
X48010000Y-64349523D01*
X47938571Y-64254285D01*
X47938571Y-64111428D01*
X48010000Y-64016190D01*
X48152857Y-63968571D01*
X48938571Y-63968571D01*
X48938571Y-63492380D02*
X47438571Y-63492380D01*
X48367142Y-63397142D02*
X48938571Y-63111428D01*
X47938571Y-63111428D02*
X48510000Y-63492380D01*
X69509047Y-46398571D02*
X69509047Y-44898571D01*
X69937619Y-46398571D02*
X69937619Y-45612857D01*
X69890000Y-45470000D01*
X69794761Y-45398571D01*
X69651904Y-45398571D01*
X69556666Y-45470000D01*
X69509047Y-45541428D01*
X70794761Y-46327142D02*
X70699523Y-46398571D01*
X70509047Y-46398571D01*
X70413809Y-46327142D01*
X70366190Y-46184285D01*
X70366190Y-45612857D01*
X70413809Y-45470000D01*
X70509047Y-45398571D01*
X70699523Y-45398571D01*
X70794761Y-45470000D01*
X70842380Y-45612857D01*
X70842380Y-45755714D01*
X70366190Y-45898571D01*
X71699523Y-46398571D02*
X71699523Y-45612857D01*
X71651904Y-45470000D01*
X71556666Y-45398571D01*
X71366190Y-45398571D01*
X71270952Y-45470000D01*
X71699523Y-46327142D02*
X71604285Y-46398571D01*
X71366190Y-46398571D01*
X71270952Y-46327142D01*
X71223333Y-46184285D01*
X71223333Y-46041428D01*
X71270952Y-45898571D01*
X71366190Y-45827142D01*
X71604285Y-45827142D01*
X71699523Y-45755714D01*
X72032857Y-45398571D02*
X72413809Y-45398571D01*
X72175714Y-44898571D02*
X72175714Y-46184285D01*
X72223333Y-46327142D01*
X72318571Y-46398571D01*
X72413809Y-46398571D01*
X72699523Y-46327142D02*
X72794761Y-46398571D01*
X72985238Y-46398571D01*
X73080476Y-46327142D01*
X73128095Y-46184285D01*
X73128095Y-46112857D01*
X73080476Y-45970000D01*
X72985238Y-45898571D01*
X72842380Y-45898571D01*
X72747142Y-45827142D01*
X72699523Y-45684285D01*
X72699523Y-45612857D01*
X72747142Y-45470000D01*
X72842380Y-45398571D01*
X72985238Y-45398571D01*
X73080476Y-45470000D01*
X73556666Y-46398571D02*
X73556666Y-45398571D01*
X73556666Y-44898571D02*
X73509047Y-44970000D01*
X73556666Y-45041428D01*
X73604285Y-44970000D01*
X73556666Y-44898571D01*
X73556666Y-45041428D01*
X74032857Y-45398571D02*
X74032857Y-46398571D01*
X74032857Y-45541428D02*
X74080476Y-45470000D01*
X74175714Y-45398571D01*
X74318571Y-45398571D01*
X74413809Y-45470000D01*
X74461428Y-45612857D01*
X74461428Y-46398571D01*
X74937619Y-46398571D02*
X74937619Y-44898571D01*
X75032857Y-45827142D02*
X75318571Y-46398571D01*
X75318571Y-45398571D02*
X74937619Y-45970000D01*
D12*
X81280000Y-54610000D02*
X93980000Y-54610000D01*
X81280000Y-31750000D02*
X81280000Y-54610000D01*
X106680000Y-31750000D02*
X81280000Y-31750000D01*
X106680000Y-54610000D02*
X106680000Y-31750000D01*
X93980000Y-54610000D02*
X106680000Y-54610000D01*
X80010000Y-48260000D02*
X71120000Y-48260000D01*
X80010000Y-38100000D02*
X80010000Y-48260000D01*
X64770000Y-38100000D02*
X80010000Y-38100000D01*
X64770000Y-48260000D02*
X64770000Y-38100000D01*
X72390000Y-48260000D02*
X64770000Y-48260000D01*
X50800000Y-73660000D02*
X50800000Y-66040000D01*
X40640000Y-73660000D02*
X50800000Y-73660000D01*
X40640000Y-58420000D02*
X40640000Y-73660000D01*
X50800000Y-58420000D02*
X40640000Y-58420000D01*
X50800000Y-66040000D02*
X50800000Y-58420000D01*
D10*
X91216228Y-92823530D02*
X92144800Y-92823530D01*
X91644800Y-93394959D01*
X91859085Y-93394959D01*
X92001943Y-93466387D01*
X92073371Y-93537816D01*
X92144800Y-93680673D01*
X92144800Y-94037816D01*
X92073371Y-94180673D01*
X92001943Y-94252101D01*
X91859085Y-94323530D01*
X91430514Y-94323530D01*
X91287657Y-94252101D01*
X91216228Y-94180673D01*
X93501943Y-92823530D02*
X92787657Y-92823530D01*
X92716228Y-93537816D01*
X92787657Y-93466387D01*
X92930514Y-93394959D01*
X93287657Y-93394959D01*
X93430514Y-93466387D01*
X93501943Y-93537816D01*
X93573371Y-93680673D01*
X93573371Y-94037816D01*
X93501943Y-94180673D01*
X93430514Y-94252101D01*
X93287657Y-94323530D01*
X92930514Y-94323530D01*
X92787657Y-94252101D01*
X92716228Y-94180673D01*
X94216228Y-94180673D02*
X94287657Y-94252101D01*
X94216228Y-94323530D01*
X94144800Y-94252101D01*
X94216228Y-94180673D01*
X94216228Y-94323530D01*
X95644800Y-92823530D02*
X94930514Y-92823530D01*
X94859085Y-93537816D01*
X94930514Y-93466387D01*
X95073371Y-93394959D01*
X95430514Y-93394959D01*
X95573371Y-93466387D01*
X95644800Y-93537816D01*
X95716228Y-93680673D01*
X95716228Y-94037816D01*
X95644800Y-94180673D01*
X95573371Y-94252101D01*
X95430514Y-94323530D01*
X95073371Y-94323530D01*
X94930514Y-94252101D01*
X94859085Y-94180673D01*
X97001943Y-92823530D02*
X96716228Y-92823530D01*
X96573371Y-92894959D01*
X96501943Y-92966387D01*
X96359085Y-93180673D01*
X96287657Y-93466387D01*
X96287657Y-94037816D01*
X96359085Y-94180673D01*
X96430514Y-94252101D01*
X96573371Y-94323530D01*
X96859085Y-94323530D01*
X97001943Y-94252101D01*
X97073371Y-94180673D01*
X97144800Y-94037816D01*
X97144800Y-93680673D01*
X97073371Y-93537816D01*
X97001943Y-93466387D01*
X96859085Y-93394959D01*
X96573371Y-93394959D01*
X96430514Y-93466387D01*
X96359085Y-93537816D01*
X96287657Y-93680673D01*
X98073371Y-92823530D02*
X98216228Y-92823530D01*
X98359085Y-92894959D01*
X98430514Y-92966387D01*
X98501943Y-93109244D01*
X98573371Y-93394959D01*
X98573371Y-93752101D01*
X98501943Y-94037816D01*
X98430514Y-94180673D01*
X98359085Y-94252101D01*
X98216228Y-94323530D01*
X98073371Y-94323530D01*
X97930514Y-94252101D01*
X97859085Y-94180673D01*
X97787657Y-94037816D01*
X97716228Y-93752101D01*
X97716228Y-93394959D01*
X97787657Y-93109244D01*
X97859085Y-92966387D01*
X97930514Y-92894959D01*
X98073371Y-92823530D01*
X100359085Y-94323530D02*
X100359085Y-93323530D01*
X100359085Y-93466387D02*
X100430514Y-93394959D01*
X100573371Y-93323530D01*
X100787657Y-93323530D01*
X100930514Y-93394959D01*
X101001943Y-93537816D01*
X101001943Y-94323530D01*
X101001943Y-93537816D02*
X101073371Y-93394959D01*
X101216228Y-93323530D01*
X101430514Y-93323530D01*
X101573371Y-93394959D01*
X101644800Y-93537816D01*
X101644800Y-94323530D01*
X102359085Y-94323530D02*
X102359085Y-93323530D01*
X102359085Y-93466387D02*
X102430514Y-93394959D01*
X102573371Y-93323530D01*
X102787657Y-93323530D01*
X102930514Y-93394959D01*
X103001943Y-93537816D01*
X103001943Y-94323530D01*
X103001943Y-93537816D02*
X103073371Y-93394959D01*
X103216228Y-93323530D01*
X103430514Y-93323530D01*
X103573371Y-93394959D01*
X103644800Y-93537816D01*
X103644800Y-94323530D01*
X79721943Y-91544959D02*
X115281943Y-91544959D01*
X79721943Y-89004959D02*
X79721943Y-92131380D01*
X115281943Y-89004959D02*
X115281943Y-92131380D01*
X115281943Y-91544959D02*
X114155439Y-92131380D01*
X115281943Y-91544959D02*
X114155439Y-90958538D01*
X79721943Y-91544959D02*
X80848447Y-92131380D01*
X79721943Y-91544959D02*
X80848447Y-90958538D01*
D13*
G04 #@! TO.C,C3*
X69035000Y-68295225D02*
X68535000Y-68295225D01*
X68785000Y-68045225D02*
X68785000Y-68545225D01*
X67594000Y-73451000D02*
X67026000Y-73451000D01*
X67828000Y-73411000D02*
X66792000Y-73411000D01*
X67987000Y-73371000D02*
X66633000Y-73371000D01*
X68115000Y-73331000D02*
X66505000Y-73331000D01*
X68225000Y-73291000D02*
X66395000Y-73291000D01*
X68321000Y-73251000D02*
X66299000Y-73251000D01*
X68408000Y-73211000D02*
X66212000Y-73211000D01*
X68488000Y-73171000D02*
X66132000Y-73171000D01*
X68561000Y-73131000D02*
X66059000Y-73131000D01*
X68629000Y-73091000D02*
X65991000Y-73091000D01*
X68693000Y-73051000D02*
X65927000Y-73051000D01*
X68753000Y-73011000D02*
X65867000Y-73011000D01*
X68810000Y-72971000D02*
X65810000Y-72971000D01*
X68864000Y-72931000D02*
X65756000Y-72931000D01*
X68915000Y-72891000D02*
X65705000Y-72891000D01*
X66270000Y-72851000D02*
X65657000Y-72851000D01*
X68963000Y-72851000D02*
X68350000Y-72851000D01*
X66270000Y-72811000D02*
X65611000Y-72811000D01*
X69009000Y-72811000D02*
X68350000Y-72811000D01*
X66270000Y-72771000D02*
X65567000Y-72771000D01*
X69053000Y-72771000D02*
X68350000Y-72771000D01*
X66270000Y-72731000D02*
X65525000Y-72731000D01*
X69095000Y-72731000D02*
X68350000Y-72731000D01*
X66270000Y-72691000D02*
X65484000Y-72691000D01*
X69136000Y-72691000D02*
X68350000Y-72691000D01*
X66270000Y-72651000D02*
X65446000Y-72651000D01*
X69174000Y-72651000D02*
X68350000Y-72651000D01*
X66270000Y-72611000D02*
X65409000Y-72611000D01*
X69211000Y-72611000D02*
X68350000Y-72611000D01*
X66270000Y-72571000D02*
X65373000Y-72571000D01*
X69247000Y-72571000D02*
X68350000Y-72571000D01*
X66270000Y-72531000D02*
X65339000Y-72531000D01*
X69281000Y-72531000D02*
X68350000Y-72531000D01*
X66270000Y-72491000D02*
X65306000Y-72491000D01*
X69314000Y-72491000D02*
X68350000Y-72491000D01*
X66270000Y-72451000D02*
X65275000Y-72451000D01*
X69345000Y-72451000D02*
X68350000Y-72451000D01*
X66270000Y-72411000D02*
X65245000Y-72411000D01*
X69375000Y-72411000D02*
X68350000Y-72411000D01*
X66270000Y-72371000D02*
X65215000Y-72371000D01*
X69405000Y-72371000D02*
X68350000Y-72371000D01*
X66270000Y-72331000D02*
X65188000Y-72331000D01*
X69432000Y-72331000D02*
X68350000Y-72331000D01*
X66270000Y-72291000D02*
X65161000Y-72291000D01*
X69459000Y-72291000D02*
X68350000Y-72291000D01*
X66270000Y-72251000D02*
X65135000Y-72251000D01*
X69485000Y-72251000D02*
X68350000Y-72251000D01*
X66270000Y-72211000D02*
X65110000Y-72211000D01*
X69510000Y-72211000D02*
X68350000Y-72211000D01*
X66270000Y-72171000D02*
X65086000Y-72171000D01*
X69534000Y-72171000D02*
X68350000Y-72171000D01*
X66270000Y-72131000D02*
X65063000Y-72131000D01*
X69557000Y-72131000D02*
X68350000Y-72131000D01*
X66270000Y-72091000D02*
X65042000Y-72091000D01*
X69578000Y-72091000D02*
X68350000Y-72091000D01*
X66270000Y-72051000D02*
X65020000Y-72051000D01*
X69600000Y-72051000D02*
X68350000Y-72051000D01*
X66270000Y-72011000D02*
X65000000Y-72011000D01*
X69620000Y-72011000D02*
X68350000Y-72011000D01*
X66270000Y-71971000D02*
X64981000Y-71971000D01*
X69639000Y-71971000D02*
X68350000Y-71971000D01*
X66270000Y-71931000D02*
X64962000Y-71931000D01*
X69658000Y-71931000D02*
X68350000Y-71931000D01*
X66270000Y-71891000D02*
X64945000Y-71891000D01*
X69675000Y-71891000D02*
X68350000Y-71891000D01*
X66270000Y-71851000D02*
X64928000Y-71851000D01*
X69692000Y-71851000D02*
X68350000Y-71851000D01*
X66270000Y-71811000D02*
X64912000Y-71811000D01*
X69708000Y-71811000D02*
X68350000Y-71811000D01*
X66270000Y-71771000D02*
X64896000Y-71771000D01*
X69724000Y-71771000D02*
X68350000Y-71771000D01*
X66270000Y-71731000D02*
X64882000Y-71731000D01*
X69738000Y-71731000D02*
X68350000Y-71731000D01*
X66270000Y-71691000D02*
X64868000Y-71691000D01*
X69752000Y-71691000D02*
X68350000Y-71691000D01*
X66270000Y-71651000D02*
X64855000Y-71651000D01*
X69765000Y-71651000D02*
X68350000Y-71651000D01*
X66270000Y-71611000D02*
X64842000Y-71611000D01*
X69778000Y-71611000D02*
X68350000Y-71611000D01*
X66270000Y-71571000D02*
X64830000Y-71571000D01*
X69790000Y-71571000D02*
X68350000Y-71571000D01*
X66270000Y-71530000D02*
X64819000Y-71530000D01*
X69801000Y-71530000D02*
X68350000Y-71530000D01*
X66270000Y-71490000D02*
X64809000Y-71490000D01*
X69811000Y-71490000D02*
X68350000Y-71490000D01*
X66270000Y-71450000D02*
X64799000Y-71450000D01*
X69821000Y-71450000D02*
X68350000Y-71450000D01*
X66270000Y-71410000D02*
X64790000Y-71410000D01*
X69830000Y-71410000D02*
X68350000Y-71410000D01*
X66270000Y-71370000D02*
X64782000Y-71370000D01*
X69838000Y-71370000D02*
X68350000Y-71370000D01*
X66270000Y-71330000D02*
X64774000Y-71330000D01*
X69846000Y-71330000D02*
X68350000Y-71330000D01*
X66270000Y-71290000D02*
X64767000Y-71290000D01*
X69853000Y-71290000D02*
X68350000Y-71290000D01*
X66270000Y-71250000D02*
X64760000Y-71250000D01*
X69860000Y-71250000D02*
X68350000Y-71250000D01*
X66270000Y-71210000D02*
X64754000Y-71210000D01*
X69866000Y-71210000D02*
X68350000Y-71210000D01*
X66270000Y-71170000D02*
X64749000Y-71170000D01*
X69871000Y-71170000D02*
X68350000Y-71170000D01*
X66270000Y-71130000D02*
X64745000Y-71130000D01*
X69875000Y-71130000D02*
X68350000Y-71130000D01*
X66270000Y-71090000D02*
X64741000Y-71090000D01*
X69879000Y-71090000D02*
X68350000Y-71090000D01*
X66270000Y-71050000D02*
X64737000Y-71050000D01*
X69883000Y-71050000D02*
X68350000Y-71050000D01*
X66270000Y-71010000D02*
X64734000Y-71010000D01*
X69886000Y-71010000D02*
X68350000Y-71010000D01*
X66270000Y-70970000D02*
X64732000Y-70970000D01*
X69888000Y-70970000D02*
X68350000Y-70970000D01*
X66270000Y-70930000D02*
X64731000Y-70930000D01*
X69889000Y-70930000D02*
X68350000Y-70930000D01*
X69890000Y-70890000D02*
X68350000Y-70890000D01*
X66270000Y-70890000D02*
X64730000Y-70890000D01*
X69890000Y-70850000D02*
X68350000Y-70850000D01*
X66270000Y-70850000D02*
X64730000Y-70850000D01*
X69930000Y-70850000D02*
G75*
G03X69930000Y-70850000I-2620000J0D01*
G01*
G04 #@! TO.C,C1*
X62310000Y-86090000D02*
G75*
G03X62310000Y-86090000I-2620000J0D01*
G01*
X58650000Y-86090000D02*
X57110000Y-86090000D01*
X62270000Y-86090000D02*
X60730000Y-86090000D01*
X58650000Y-86130000D02*
X57110000Y-86130000D01*
X62270000Y-86130000D02*
X60730000Y-86130000D01*
X62269000Y-86170000D02*
X60730000Y-86170000D01*
X58650000Y-86170000D02*
X57111000Y-86170000D01*
X62268000Y-86210000D02*
X60730000Y-86210000D01*
X58650000Y-86210000D02*
X57112000Y-86210000D01*
X62266000Y-86250000D02*
X60730000Y-86250000D01*
X58650000Y-86250000D02*
X57114000Y-86250000D01*
X62263000Y-86290000D02*
X60730000Y-86290000D01*
X58650000Y-86290000D02*
X57117000Y-86290000D01*
X62259000Y-86330000D02*
X60730000Y-86330000D01*
X58650000Y-86330000D02*
X57121000Y-86330000D01*
X62255000Y-86370000D02*
X60730000Y-86370000D01*
X58650000Y-86370000D02*
X57125000Y-86370000D01*
X62251000Y-86410000D02*
X60730000Y-86410000D01*
X58650000Y-86410000D02*
X57129000Y-86410000D01*
X62246000Y-86450000D02*
X60730000Y-86450000D01*
X58650000Y-86450000D02*
X57134000Y-86450000D01*
X62240000Y-86490000D02*
X60730000Y-86490000D01*
X58650000Y-86490000D02*
X57140000Y-86490000D01*
X62233000Y-86530000D02*
X60730000Y-86530000D01*
X58650000Y-86530000D02*
X57147000Y-86530000D01*
X62226000Y-86570000D02*
X60730000Y-86570000D01*
X58650000Y-86570000D02*
X57154000Y-86570000D01*
X62218000Y-86610000D02*
X60730000Y-86610000D01*
X58650000Y-86610000D02*
X57162000Y-86610000D01*
X62210000Y-86650000D02*
X60730000Y-86650000D01*
X58650000Y-86650000D02*
X57170000Y-86650000D01*
X62201000Y-86690000D02*
X60730000Y-86690000D01*
X58650000Y-86690000D02*
X57179000Y-86690000D01*
X62191000Y-86730000D02*
X60730000Y-86730000D01*
X58650000Y-86730000D02*
X57189000Y-86730000D01*
X62181000Y-86770000D02*
X60730000Y-86770000D01*
X58650000Y-86770000D02*
X57199000Y-86770000D01*
X62170000Y-86811000D02*
X60730000Y-86811000D01*
X58650000Y-86811000D02*
X57210000Y-86811000D01*
X62158000Y-86851000D02*
X60730000Y-86851000D01*
X58650000Y-86851000D02*
X57222000Y-86851000D01*
X62145000Y-86891000D02*
X60730000Y-86891000D01*
X58650000Y-86891000D02*
X57235000Y-86891000D01*
X62132000Y-86931000D02*
X60730000Y-86931000D01*
X58650000Y-86931000D02*
X57248000Y-86931000D01*
X62118000Y-86971000D02*
X60730000Y-86971000D01*
X58650000Y-86971000D02*
X57262000Y-86971000D01*
X62104000Y-87011000D02*
X60730000Y-87011000D01*
X58650000Y-87011000D02*
X57276000Y-87011000D01*
X62088000Y-87051000D02*
X60730000Y-87051000D01*
X58650000Y-87051000D02*
X57292000Y-87051000D01*
X62072000Y-87091000D02*
X60730000Y-87091000D01*
X58650000Y-87091000D02*
X57308000Y-87091000D01*
X62055000Y-87131000D02*
X60730000Y-87131000D01*
X58650000Y-87131000D02*
X57325000Y-87131000D01*
X62038000Y-87171000D02*
X60730000Y-87171000D01*
X58650000Y-87171000D02*
X57342000Y-87171000D01*
X62019000Y-87211000D02*
X60730000Y-87211000D01*
X58650000Y-87211000D02*
X57361000Y-87211000D01*
X62000000Y-87251000D02*
X60730000Y-87251000D01*
X58650000Y-87251000D02*
X57380000Y-87251000D01*
X61980000Y-87291000D02*
X60730000Y-87291000D01*
X58650000Y-87291000D02*
X57400000Y-87291000D01*
X61958000Y-87331000D02*
X60730000Y-87331000D01*
X58650000Y-87331000D02*
X57422000Y-87331000D01*
X61937000Y-87371000D02*
X60730000Y-87371000D01*
X58650000Y-87371000D02*
X57443000Y-87371000D01*
X61914000Y-87411000D02*
X60730000Y-87411000D01*
X58650000Y-87411000D02*
X57466000Y-87411000D01*
X61890000Y-87451000D02*
X60730000Y-87451000D01*
X58650000Y-87451000D02*
X57490000Y-87451000D01*
X61865000Y-87491000D02*
X60730000Y-87491000D01*
X58650000Y-87491000D02*
X57515000Y-87491000D01*
X61839000Y-87531000D02*
X60730000Y-87531000D01*
X58650000Y-87531000D02*
X57541000Y-87531000D01*
X61812000Y-87571000D02*
X60730000Y-87571000D01*
X58650000Y-87571000D02*
X57568000Y-87571000D01*
X61785000Y-87611000D02*
X60730000Y-87611000D01*
X58650000Y-87611000D02*
X57595000Y-87611000D01*
X61755000Y-87651000D02*
X60730000Y-87651000D01*
X58650000Y-87651000D02*
X57625000Y-87651000D01*
X61725000Y-87691000D02*
X60730000Y-87691000D01*
X58650000Y-87691000D02*
X57655000Y-87691000D01*
X61694000Y-87731000D02*
X60730000Y-87731000D01*
X58650000Y-87731000D02*
X57686000Y-87731000D01*
X61661000Y-87771000D02*
X60730000Y-87771000D01*
X58650000Y-87771000D02*
X57719000Y-87771000D01*
X61627000Y-87811000D02*
X60730000Y-87811000D01*
X58650000Y-87811000D02*
X57753000Y-87811000D01*
X61591000Y-87851000D02*
X60730000Y-87851000D01*
X58650000Y-87851000D02*
X57789000Y-87851000D01*
X61554000Y-87891000D02*
X60730000Y-87891000D01*
X58650000Y-87891000D02*
X57826000Y-87891000D01*
X61516000Y-87931000D02*
X60730000Y-87931000D01*
X58650000Y-87931000D02*
X57864000Y-87931000D01*
X61475000Y-87971000D02*
X60730000Y-87971000D01*
X58650000Y-87971000D02*
X57905000Y-87971000D01*
X61433000Y-88011000D02*
X60730000Y-88011000D01*
X58650000Y-88011000D02*
X57947000Y-88011000D01*
X61389000Y-88051000D02*
X60730000Y-88051000D01*
X58650000Y-88051000D02*
X57991000Y-88051000D01*
X61343000Y-88091000D02*
X60730000Y-88091000D01*
X58650000Y-88091000D02*
X58037000Y-88091000D01*
X61295000Y-88131000D02*
X58085000Y-88131000D01*
X61244000Y-88171000D02*
X58136000Y-88171000D01*
X61190000Y-88211000D02*
X58190000Y-88211000D01*
X61133000Y-88251000D02*
X58247000Y-88251000D01*
X61073000Y-88291000D02*
X58307000Y-88291000D01*
X61009000Y-88331000D02*
X58371000Y-88331000D01*
X60941000Y-88371000D02*
X58439000Y-88371000D01*
X60868000Y-88411000D02*
X58512000Y-88411000D01*
X60788000Y-88451000D02*
X58592000Y-88451000D01*
X60701000Y-88491000D02*
X58679000Y-88491000D01*
X60605000Y-88531000D02*
X58775000Y-88531000D01*
X60495000Y-88571000D02*
X58885000Y-88571000D01*
X60367000Y-88611000D02*
X59013000Y-88611000D01*
X60208000Y-88651000D02*
X59172000Y-88651000D01*
X59974000Y-88691000D02*
X59406000Y-88691000D01*
X61165000Y-83285225D02*
X61165000Y-83785225D01*
X61415000Y-83535225D02*
X60915000Y-83535225D01*
G04 #@! TO.C,C4*
X116300000Y-49550000D02*
G75*
G03X116300000Y-49550000I-3270000J0D01*
G01*
X109800000Y-49550000D02*
X116260000Y-49550000D01*
X109800000Y-49510000D02*
X116260000Y-49510000D01*
X109800000Y-49470000D02*
X116260000Y-49470000D01*
X109802000Y-49430000D02*
X116258000Y-49430000D01*
X109803000Y-49390000D02*
X116257000Y-49390000D01*
X109806000Y-49350000D02*
X116254000Y-49350000D01*
X109808000Y-49310000D02*
X111990000Y-49310000D01*
X114070000Y-49310000D02*
X116252000Y-49310000D01*
X109812000Y-49270000D02*
X111990000Y-49270000D01*
X114070000Y-49270000D02*
X116248000Y-49270000D01*
X109815000Y-49230000D02*
X111990000Y-49230000D01*
X114070000Y-49230000D02*
X116245000Y-49230000D01*
X109819000Y-49190000D02*
X111990000Y-49190000D01*
X114070000Y-49190000D02*
X116241000Y-49190000D01*
X109824000Y-49150000D02*
X111990000Y-49150000D01*
X114070000Y-49150000D02*
X116236000Y-49150000D01*
X109829000Y-49110000D02*
X111990000Y-49110000D01*
X114070000Y-49110000D02*
X116231000Y-49110000D01*
X109835000Y-49070000D02*
X111990000Y-49070000D01*
X114070000Y-49070000D02*
X116225000Y-49070000D01*
X109841000Y-49030000D02*
X111990000Y-49030000D01*
X114070000Y-49030000D02*
X116219000Y-49030000D01*
X109848000Y-48990000D02*
X111990000Y-48990000D01*
X114070000Y-48990000D02*
X116212000Y-48990000D01*
X109855000Y-48950000D02*
X111990000Y-48950000D01*
X114070000Y-48950000D02*
X116205000Y-48950000D01*
X109863000Y-48910000D02*
X111990000Y-48910000D01*
X114070000Y-48910000D02*
X116197000Y-48910000D01*
X109871000Y-48870000D02*
X111990000Y-48870000D01*
X114070000Y-48870000D02*
X116189000Y-48870000D01*
X109880000Y-48829000D02*
X111990000Y-48829000D01*
X114070000Y-48829000D02*
X116180000Y-48829000D01*
X109889000Y-48789000D02*
X111990000Y-48789000D01*
X114070000Y-48789000D02*
X116171000Y-48789000D01*
X109899000Y-48749000D02*
X111990000Y-48749000D01*
X114070000Y-48749000D02*
X116161000Y-48749000D01*
X109909000Y-48709000D02*
X111990000Y-48709000D01*
X114070000Y-48709000D02*
X116151000Y-48709000D01*
X109920000Y-48669000D02*
X111990000Y-48669000D01*
X114070000Y-48669000D02*
X116140000Y-48669000D01*
X109932000Y-48629000D02*
X111990000Y-48629000D01*
X114070000Y-48629000D02*
X116128000Y-48629000D01*
X109944000Y-48589000D02*
X111990000Y-48589000D01*
X114070000Y-48589000D02*
X116116000Y-48589000D01*
X109956000Y-48549000D02*
X111990000Y-48549000D01*
X114070000Y-48549000D02*
X116104000Y-48549000D01*
X109969000Y-48509000D02*
X111990000Y-48509000D01*
X114070000Y-48509000D02*
X116091000Y-48509000D01*
X109983000Y-48469000D02*
X111990000Y-48469000D01*
X114070000Y-48469000D02*
X116077000Y-48469000D01*
X109997000Y-48429000D02*
X111990000Y-48429000D01*
X114070000Y-48429000D02*
X116063000Y-48429000D01*
X110012000Y-48389000D02*
X111990000Y-48389000D01*
X114070000Y-48389000D02*
X116048000Y-48389000D01*
X110028000Y-48349000D02*
X111990000Y-48349000D01*
X114070000Y-48349000D02*
X116032000Y-48349000D01*
X110044000Y-48309000D02*
X111990000Y-48309000D01*
X114070000Y-48309000D02*
X116016000Y-48309000D01*
X110060000Y-48269000D02*
X111990000Y-48269000D01*
X114070000Y-48269000D02*
X116000000Y-48269000D01*
X110078000Y-48229000D02*
X111990000Y-48229000D01*
X114070000Y-48229000D02*
X115982000Y-48229000D01*
X110096000Y-48189000D02*
X111990000Y-48189000D01*
X114070000Y-48189000D02*
X115964000Y-48189000D01*
X110114000Y-48149000D02*
X111990000Y-48149000D01*
X114070000Y-48149000D02*
X115946000Y-48149000D01*
X110134000Y-48109000D02*
X111990000Y-48109000D01*
X114070000Y-48109000D02*
X115926000Y-48109000D01*
X110154000Y-48069000D02*
X111990000Y-48069000D01*
X114070000Y-48069000D02*
X115906000Y-48069000D01*
X110174000Y-48029000D02*
X111990000Y-48029000D01*
X114070000Y-48029000D02*
X115886000Y-48029000D01*
X110196000Y-47989000D02*
X111990000Y-47989000D01*
X114070000Y-47989000D02*
X115864000Y-47989000D01*
X110218000Y-47949000D02*
X111990000Y-47949000D01*
X114070000Y-47949000D02*
X115842000Y-47949000D01*
X110240000Y-47909000D02*
X111990000Y-47909000D01*
X114070000Y-47909000D02*
X115820000Y-47909000D01*
X110264000Y-47869000D02*
X111990000Y-47869000D01*
X114070000Y-47869000D02*
X115796000Y-47869000D01*
X110288000Y-47829000D02*
X111990000Y-47829000D01*
X114070000Y-47829000D02*
X115772000Y-47829000D01*
X110314000Y-47789000D02*
X111990000Y-47789000D01*
X114070000Y-47789000D02*
X115746000Y-47789000D01*
X110340000Y-47749000D02*
X111990000Y-47749000D01*
X114070000Y-47749000D02*
X115720000Y-47749000D01*
X110366000Y-47709000D02*
X111990000Y-47709000D01*
X114070000Y-47709000D02*
X115694000Y-47709000D01*
X110394000Y-47669000D02*
X111990000Y-47669000D01*
X114070000Y-47669000D02*
X115666000Y-47669000D01*
X110423000Y-47629000D02*
X111990000Y-47629000D01*
X114070000Y-47629000D02*
X115637000Y-47629000D01*
X110452000Y-47589000D02*
X111990000Y-47589000D01*
X114070000Y-47589000D02*
X115608000Y-47589000D01*
X110482000Y-47549000D02*
X111990000Y-47549000D01*
X114070000Y-47549000D02*
X115578000Y-47549000D01*
X110514000Y-47509000D02*
X111990000Y-47509000D01*
X114070000Y-47509000D02*
X115546000Y-47509000D01*
X110546000Y-47469000D02*
X111990000Y-47469000D01*
X114070000Y-47469000D02*
X115514000Y-47469000D01*
X110580000Y-47429000D02*
X111990000Y-47429000D01*
X114070000Y-47429000D02*
X115480000Y-47429000D01*
X110614000Y-47389000D02*
X111990000Y-47389000D01*
X114070000Y-47389000D02*
X115446000Y-47389000D01*
X110650000Y-47349000D02*
X111990000Y-47349000D01*
X114070000Y-47349000D02*
X115410000Y-47349000D01*
X110687000Y-47309000D02*
X111990000Y-47309000D01*
X114070000Y-47309000D02*
X115373000Y-47309000D01*
X110725000Y-47269000D02*
X111990000Y-47269000D01*
X114070000Y-47269000D02*
X115335000Y-47269000D01*
X110765000Y-47229000D02*
X115295000Y-47229000D01*
X110806000Y-47189000D02*
X115254000Y-47189000D01*
X110848000Y-47149000D02*
X115212000Y-47149000D01*
X110893000Y-47109000D02*
X115167000Y-47109000D01*
X110938000Y-47069000D02*
X115122000Y-47069000D01*
X110986000Y-47029000D02*
X115074000Y-47029000D01*
X111035000Y-46989000D02*
X115025000Y-46989000D01*
X111086000Y-46949000D02*
X114974000Y-46949000D01*
X111140000Y-46909000D02*
X114920000Y-46909000D01*
X111196000Y-46869000D02*
X114864000Y-46869000D01*
X111254000Y-46829000D02*
X114806000Y-46829000D01*
X111316000Y-46789000D02*
X114744000Y-46789000D01*
X111380000Y-46749000D02*
X114680000Y-46749000D01*
X111449000Y-46709000D02*
X114611000Y-46709000D01*
X111521000Y-46669000D02*
X114539000Y-46669000D01*
X111598000Y-46629000D02*
X114462000Y-46629000D01*
X111680000Y-46589000D02*
X114380000Y-46589000D01*
X111768000Y-46549000D02*
X114292000Y-46549000D01*
X111865000Y-46509000D02*
X114195000Y-46509000D01*
X111971000Y-46469000D02*
X114089000Y-46469000D01*
X112090000Y-46429000D02*
X113970000Y-46429000D01*
X112228000Y-46389000D02*
X113832000Y-46389000D01*
X112397000Y-46349000D02*
X113663000Y-46349000D01*
X112628000Y-46309000D02*
X113432000Y-46309000D01*
X111191000Y-53050241D02*
X111191000Y-52420241D01*
X110876000Y-52735241D02*
X111506000Y-52735241D01*
G04 #@! TO.C,C2*
X58320000Y-80130000D02*
X58320000Y-74890000D01*
X61060000Y-80130000D02*
X61060000Y-74890000D01*
X58320000Y-80130000D02*
X58635000Y-80130000D01*
X60745000Y-80130000D02*
X61060000Y-80130000D01*
X58320000Y-74890000D02*
X58635000Y-74890000D01*
X60745000Y-74890000D02*
X61060000Y-74890000D01*
G04 #@! TO.C,J2*
X47270000Y-88420000D02*
X38270000Y-88420000D01*
X38270000Y-88420000D02*
X38270000Y-79220000D01*
X38270000Y-79220000D02*
X52870000Y-79220000D01*
X52870000Y-79220000D02*
X52870000Y-82020000D01*
X52870000Y-85620000D02*
X52870000Y-88420000D01*
X52870000Y-88420000D02*
X50870000Y-88420000D01*
X51370000Y-78980000D02*
X53110000Y-78980000D01*
X53110000Y-78980000D02*
X53110000Y-80720000D01*
G04 #@! TO.C,J4*
X86300000Y-50740000D02*
X86300000Y-53400000D01*
X99060000Y-50740000D02*
X86300000Y-50740000D01*
X99060000Y-53400000D02*
X86300000Y-53400000D01*
X99060000Y-50740000D02*
X99060000Y-53400000D01*
X100330000Y-50740000D02*
X101660000Y-50740000D01*
X101660000Y-50740000D02*
X101660000Y-52070000D01*
G04 #@! TO.C,J6*
X115510000Y-67250000D02*
X116840000Y-67250000D01*
X115510000Y-68580000D02*
X115510000Y-67250000D01*
X115510000Y-69850000D02*
X118170000Y-69850000D01*
X118170000Y-69850000D02*
X118170000Y-87690000D01*
X115510000Y-69850000D02*
X115510000Y-87690000D01*
X115510000Y-87690000D02*
X118170000Y-87690000D01*
G04 #@! TO.C,J5*
X79950000Y-87690000D02*
X82610000Y-87690000D01*
X79950000Y-69850000D02*
X79950000Y-87690000D01*
X82610000Y-69850000D02*
X82610000Y-87690000D01*
X79950000Y-69850000D02*
X82610000Y-69850000D01*
X79950000Y-68580000D02*
X79950000Y-67250000D01*
X79950000Y-67250000D02*
X81280000Y-67250000D01*
G04 #@! TO.C,D2*
X90770000Y-55680000D02*
X90770000Y-58620000D01*
X91010000Y-55680000D02*
X91010000Y-58620000D01*
X90890000Y-55680000D02*
X90890000Y-58620000D01*
X96450000Y-57150000D02*
X95430000Y-57150000D01*
X88970000Y-57150000D02*
X89990000Y-57150000D01*
X95430000Y-55680000D02*
X89990000Y-55680000D01*
X95430000Y-58620000D02*
X95430000Y-55680000D01*
X89990000Y-58620000D02*
X95430000Y-58620000D01*
X89990000Y-55680000D02*
X89990000Y-58620000D01*
G04 #@! TO.C,D1*
X71300000Y-64970000D02*
X71300000Y-62030000D01*
X71300000Y-62030000D02*
X65860000Y-62030000D01*
X65860000Y-62030000D02*
X65860000Y-64970000D01*
X65860000Y-64970000D02*
X71300000Y-64970000D01*
X72320000Y-63500000D02*
X71300000Y-63500000D01*
X64840000Y-63500000D02*
X65860000Y-63500000D01*
X70400000Y-64970000D02*
X70400000Y-62030000D01*
X70280000Y-64970000D02*
X70280000Y-62030000D01*
X70520000Y-64970000D02*
X70520000Y-62030000D01*
G04 #@! TO.C,U1*
X51340000Y-64189000D02*
X52850000Y-64189000D01*
X51340000Y-67890000D02*
X52850000Y-67890000D01*
X52850000Y-71160000D02*
X52850000Y-60920000D01*
X51340000Y-60920000D02*
X55981000Y-60920000D01*
X51340000Y-71160000D02*
X55981000Y-71160000D01*
X55981000Y-71160000D02*
X55981000Y-60920000D01*
X51340000Y-71160000D02*
X51340000Y-60920000D01*
G04 #@! TO.C,Q1*
X67270000Y-48800000D02*
X77510000Y-48800000D01*
X67270000Y-53441000D02*
X77510000Y-53441000D01*
X67270000Y-48800000D02*
X67270000Y-53441000D01*
X77510000Y-48800000D02*
X77510000Y-53441000D01*
X67270000Y-50310000D02*
X77510000Y-50310000D01*
X70540000Y-48800000D02*
X70540000Y-50310000D01*
X74241000Y-48800000D02*
X74241000Y-50310000D01*
G04 #@! TO.C,R1*
X76930000Y-58190000D02*
X76930000Y-58520000D01*
X76930000Y-58520000D02*
X70390000Y-58520000D01*
X70390000Y-58520000D02*
X70390000Y-58190000D01*
X76930000Y-56110000D02*
X76930000Y-55780000D01*
X76930000Y-55780000D02*
X70390000Y-55780000D01*
X70390000Y-55780000D02*
X70390000Y-56110000D01*
G04 #@! TO.C,J3*
X129760000Y-56140000D02*
X129760000Y-55740000D01*
X129120000Y-56140000D02*
X129760000Y-56140000D01*
X125452000Y-49598000D02*
X125848000Y-49993000D01*
X122806000Y-46952000D02*
X123186000Y-47332000D01*
X125734000Y-49347000D02*
X126114000Y-49727000D01*
X123072000Y-46686000D02*
X123468000Y-47081000D01*
X125741000Y-54888000D02*
X125848000Y-54994000D01*
X122806000Y-51952000D02*
X122913000Y-52059000D01*
X126007000Y-54622000D02*
X126114000Y-54728000D01*
X123072000Y-51686000D02*
X123179000Y-51793000D01*
X120400000Y-45780000D02*
X129520000Y-45780000D01*
X120400000Y-55900000D02*
X129520000Y-55900000D01*
X129520000Y-55900000D02*
X129520000Y-45780000D01*
X120400000Y-55900000D02*
X120400000Y-45780000D01*
X127960000Y-55900000D02*
X127960000Y-45780000D01*
X129060000Y-55900000D02*
X129060000Y-45780000D01*
X126640000Y-48340000D02*
G75*
G03X126640000Y-48340000I-2180000J0D01*
G01*
X126640000Y-53340000D02*
G75*
G03X126640000Y-53340000I-2180000J0D01*
G01*
G04 #@! TO.C,J1*
X59330000Y-49530000D02*
G75*
G03X59330000Y-49530000I-2180000J0D01*
G01*
X54330000Y-49530000D02*
G75*
G03X54330000Y-49530000I-2180000J0D01*
G01*
X59710000Y-44930000D02*
X49590000Y-44930000D01*
X59710000Y-46030000D02*
X49590000Y-46030000D01*
X59710000Y-53590000D02*
X49590000Y-53590000D01*
X59710000Y-44470000D02*
X49590000Y-44470000D01*
X59710000Y-53590000D02*
X59710000Y-44470000D01*
X49590000Y-53590000D02*
X49590000Y-44470000D01*
X55496000Y-50918000D02*
X55603000Y-50811000D01*
X58432000Y-47983000D02*
X58538000Y-47876000D01*
X55762000Y-51184000D02*
X55869000Y-51077000D01*
X58698000Y-48249000D02*
X58804000Y-48142000D01*
X50496000Y-50918000D02*
X50891000Y-50522000D01*
X53157000Y-48256000D02*
X53537000Y-47876000D01*
X50762000Y-51184000D02*
X51142000Y-50804000D01*
X53408000Y-48538000D02*
X53803000Y-48142000D01*
X59950000Y-44870000D02*
X59950000Y-44230000D01*
X59950000Y-44230000D02*
X59550000Y-44230000D01*
D14*
G04 #@! TO.C,U2*
X95580200Y-87630000D02*
X102539800Y-87630000D01*
X102539800Y-77470000D02*
X99364800Y-77470000D01*
X99364800Y-77470000D02*
X98755200Y-77470000D01*
X98755200Y-77470000D02*
X96393000Y-77470000D01*
X99364800Y-77470000D02*
G75*
G02X98755200Y-77470000I-304800J0D01*
G01*
G04 #@! TO.C,C3*
D15*
X71417142Y-71016666D02*
X71464761Y-71064285D01*
X71512380Y-71207142D01*
X71512380Y-71302380D01*
X71464761Y-71445238D01*
X71369523Y-71540476D01*
X71274285Y-71588095D01*
X71083809Y-71635714D01*
X70940952Y-71635714D01*
X70750476Y-71588095D01*
X70655238Y-71540476D01*
X70560000Y-71445238D01*
X70512380Y-71302380D01*
X70512380Y-71207142D01*
X70560000Y-71064285D01*
X70607619Y-71016666D01*
X70512380Y-70683333D02*
X70512380Y-70064285D01*
X70893333Y-70397619D01*
X70893333Y-70254761D01*
X70940952Y-70159523D01*
X70988571Y-70111904D01*
X71083809Y-70064285D01*
X71321904Y-70064285D01*
X71417142Y-70111904D01*
X71464761Y-70159523D01*
X71512380Y-70254761D01*
X71512380Y-70540476D01*
X71464761Y-70635714D01*
X71417142Y-70683333D01*
G04 #@! TO.C,C1*
X63797142Y-86256666D02*
X63844761Y-86304285D01*
X63892380Y-86447142D01*
X63892380Y-86542380D01*
X63844761Y-86685238D01*
X63749523Y-86780476D01*
X63654285Y-86828095D01*
X63463809Y-86875714D01*
X63320952Y-86875714D01*
X63130476Y-86828095D01*
X63035238Y-86780476D01*
X62940000Y-86685238D01*
X62892380Y-86542380D01*
X62892380Y-86447142D01*
X62940000Y-86304285D01*
X62987619Y-86256666D01*
X63892380Y-85304285D02*
X63892380Y-85875714D01*
X63892380Y-85590000D02*
X62892380Y-85590000D01*
X63035238Y-85685238D01*
X63130476Y-85780476D01*
X63178095Y-85875714D01*
G04 #@! TO.C,C4*
X108987142Y-49716666D02*
X109034761Y-49764285D01*
X109082380Y-49907142D01*
X109082380Y-50002380D01*
X109034761Y-50145238D01*
X108939523Y-50240476D01*
X108844285Y-50288095D01*
X108653809Y-50335714D01*
X108510952Y-50335714D01*
X108320476Y-50288095D01*
X108225238Y-50240476D01*
X108130000Y-50145238D01*
X108082380Y-50002380D01*
X108082380Y-49907142D01*
X108130000Y-49764285D01*
X108177619Y-49716666D01*
X108415714Y-48859523D02*
X109082380Y-48859523D01*
X108034761Y-49097619D02*
X108749047Y-49335714D01*
X108749047Y-48716666D01*
G04 #@! TO.C,J2*
X43286666Y-89022380D02*
X43286666Y-89736666D01*
X43239047Y-89879523D01*
X43143809Y-89974761D01*
X43000952Y-90022380D01*
X42905714Y-90022380D01*
X43715238Y-89117619D02*
X43762857Y-89070000D01*
X43858095Y-89022380D01*
X44096190Y-89022380D01*
X44191428Y-89070000D01*
X44239047Y-89117619D01*
X44286666Y-89212857D01*
X44286666Y-89308095D01*
X44239047Y-89450952D01*
X43667619Y-90022380D01*
X44286666Y-90022380D01*
G04 #@! TO.C,J4*
X102112380Y-52403333D02*
X102826666Y-52403333D01*
X102969523Y-52450952D01*
X103064761Y-52546190D01*
X103112380Y-52689047D01*
X103112380Y-52784285D01*
X102445714Y-51498571D02*
X103112380Y-51498571D01*
X102064761Y-51736666D02*
X102779047Y-51974761D01*
X102779047Y-51355714D01*
G04 #@! TO.C,J6*
X116506666Y-65702380D02*
X116506666Y-66416666D01*
X116459047Y-66559523D01*
X116363809Y-66654761D01*
X116220952Y-66702380D01*
X116125714Y-66702380D01*
X117411428Y-65702380D02*
X117220952Y-65702380D01*
X117125714Y-65750000D01*
X117078095Y-65797619D01*
X116982857Y-65940476D01*
X116935238Y-66130952D01*
X116935238Y-66511904D01*
X116982857Y-66607142D01*
X117030476Y-66654761D01*
X117125714Y-66702380D01*
X117316190Y-66702380D01*
X117411428Y-66654761D01*
X117459047Y-66607142D01*
X117506666Y-66511904D01*
X117506666Y-66273809D01*
X117459047Y-66178571D01*
X117411428Y-66130952D01*
X117316190Y-66083333D01*
X117125714Y-66083333D01*
X117030476Y-66130952D01*
X116982857Y-66178571D01*
X116935238Y-66273809D01*
G04 #@! TO.C,J5*
X80946666Y-65702380D02*
X80946666Y-66416666D01*
X80899047Y-66559523D01*
X80803809Y-66654761D01*
X80660952Y-66702380D01*
X80565714Y-66702380D01*
X81899047Y-65702380D02*
X81422857Y-65702380D01*
X81375238Y-66178571D01*
X81422857Y-66130952D01*
X81518095Y-66083333D01*
X81756190Y-66083333D01*
X81851428Y-66130952D01*
X81899047Y-66178571D01*
X81946666Y-66273809D01*
X81946666Y-66511904D01*
X81899047Y-66607142D01*
X81851428Y-66654761D01*
X81756190Y-66702380D01*
X81518095Y-66702380D01*
X81422857Y-66654761D01*
X81375238Y-66607142D01*
G04 #@! TO.C,D2*
X87368095Y-55502380D02*
X87368095Y-54502380D01*
X87939523Y-55502380D02*
X87510952Y-54930952D01*
X87939523Y-54502380D02*
X87368095Y-55073809D01*
G04 #@! TO.C,D1*
X73398095Y-66052380D02*
X73398095Y-65052380D01*
X73969523Y-66052380D02*
X73540952Y-65480952D01*
X73969523Y-65052380D02*
X73398095Y-65623809D01*
G04 #@! TO.C,U1*
X49792380Y-66801904D02*
X50601904Y-66801904D01*
X50697142Y-66754285D01*
X50744761Y-66706666D01*
X50792380Y-66611428D01*
X50792380Y-66420952D01*
X50744761Y-66325714D01*
X50697142Y-66278095D01*
X50601904Y-66230476D01*
X49792380Y-66230476D01*
X50792380Y-65230476D02*
X50792380Y-65801904D01*
X50792380Y-65516190D02*
X49792380Y-65516190D01*
X49935238Y-65611428D01*
X50030476Y-65706666D01*
X50078095Y-65801904D01*
G04 #@! TO.C,Q1*
X72294761Y-48347619D02*
X72199523Y-48300000D01*
X72104285Y-48204761D01*
X71961428Y-48061904D01*
X71866190Y-48014285D01*
X71770952Y-48014285D01*
X71818571Y-48252380D02*
X71723333Y-48204761D01*
X71628095Y-48109523D01*
X71580476Y-47919047D01*
X71580476Y-47585714D01*
X71628095Y-47395238D01*
X71723333Y-47300000D01*
X71818571Y-47252380D01*
X72009047Y-47252380D01*
X72104285Y-47300000D01*
X72199523Y-47395238D01*
X72247142Y-47585714D01*
X72247142Y-47919047D01*
X72199523Y-48109523D01*
X72104285Y-48204761D01*
X72009047Y-48252380D01*
X71818571Y-48252380D01*
X73199523Y-48252380D02*
X72628095Y-48252380D01*
X72913809Y-48252380D02*
X72913809Y-47252380D01*
X72818571Y-47395238D01*
X72723333Y-47490476D01*
X72628095Y-47538095D01*
G04 #@! TO.C,R1*
X73493333Y-57602380D02*
X73160000Y-57126190D01*
X72921904Y-57602380D02*
X72921904Y-56602380D01*
X73302857Y-56602380D01*
X73398095Y-56650000D01*
X73445714Y-56697619D01*
X73493333Y-56792857D01*
X73493333Y-56935714D01*
X73445714Y-57030952D01*
X73398095Y-57078571D01*
X73302857Y-57126190D01*
X72921904Y-57126190D01*
X74445714Y-57602380D02*
X73874285Y-57602380D01*
X74160000Y-57602380D02*
X74160000Y-56602380D01*
X74064761Y-56745238D01*
X73969523Y-56840476D01*
X73874285Y-56888095D01*
G04 #@! TO.C,U2*
D16*
X97602119Y-73613023D02*
X97602119Y-74941945D01*
X97680291Y-75098289D01*
X97758463Y-75176461D01*
X97914807Y-75254633D01*
X98227494Y-75254633D01*
X98383838Y-75176461D01*
X98462010Y-75098289D01*
X98540182Y-74941945D01*
X98540182Y-73613023D01*
X99243729Y-73769366D02*
X99321901Y-73691195D01*
X99478245Y-73613023D01*
X99869104Y-73613023D01*
X100025448Y-73691195D01*
X100103620Y-73769366D01*
X100181792Y-73925710D01*
X100181792Y-74082054D01*
X100103620Y-74316570D01*
X99165557Y-75254633D01*
X100181792Y-75254633D01*
X95490898Y-89505275D02*
X96585898Y-91147775D01*
X96585898Y-89505275D02*
X95490898Y-91147775D01*
X97289827Y-91147775D02*
X97602684Y-91147775D01*
X97759112Y-91069561D01*
X97837327Y-90991347D01*
X97993755Y-90756704D01*
X98071970Y-90443847D01*
X98071970Y-89818132D01*
X97993755Y-89661704D01*
X97915541Y-89583490D01*
X97759112Y-89505275D01*
X97446255Y-89505275D01*
X97289827Y-89583490D01*
X97211612Y-89661704D01*
X97133398Y-89818132D01*
X97133398Y-90209204D01*
X97211612Y-90365632D01*
X97289827Y-90443847D01*
X97446255Y-90522061D01*
X97759112Y-90522061D01*
X97915541Y-90443847D01*
X97993755Y-90365632D01*
X98071970Y-90209204D01*
X99714470Y-90991347D02*
X99636255Y-91069561D01*
X99401612Y-91147775D01*
X99245184Y-91147775D01*
X99010541Y-91069561D01*
X98854112Y-90913132D01*
X98775898Y-90756704D01*
X98697684Y-90443847D01*
X98697684Y-90209204D01*
X98775898Y-89896347D01*
X98854112Y-89739918D01*
X99010541Y-89583490D01*
X99245184Y-89505275D01*
X99401612Y-89505275D01*
X99636255Y-89583490D01*
X99714470Y-89661704D01*
X101278755Y-91147775D02*
X100340184Y-91147775D01*
X100809470Y-91147775D02*
X100809470Y-89505275D01*
X100653041Y-89739918D01*
X100496612Y-89896347D01*
X100340184Y-89974561D01*
X102295541Y-89505275D02*
X102451970Y-89505275D01*
X102608398Y-89583490D01*
X102686612Y-89661704D01*
X102764827Y-89818132D01*
X102843041Y-90130990D01*
X102843041Y-90522061D01*
X102764827Y-90834918D01*
X102686612Y-90991347D01*
X102608398Y-91069561D01*
X102451970Y-91147775D01*
X102295541Y-91147775D01*
X102139112Y-91069561D01*
X102060898Y-90991347D01*
X101982684Y-90834918D01*
X101904470Y-90522061D01*
X101904470Y-90130990D01*
X101982684Y-89818132D01*
X102060898Y-89661704D01*
X102139112Y-89583490D01*
X102295541Y-89505275D01*
X103390541Y-89505275D02*
X104407327Y-89505275D01*
X103859827Y-90130990D01*
X104094470Y-90130990D01*
X104250898Y-90209204D01*
X104329112Y-90287418D01*
X104407327Y-90443847D01*
X104407327Y-90834918D01*
X104329112Y-90991347D01*
X104250898Y-91069561D01*
X104094470Y-91147775D01*
X103625184Y-91147775D01*
X103468755Y-91069561D01*
X103390541Y-90991347D01*
X105111255Y-91147775D02*
X105111255Y-89505275D01*
X105736970Y-89505275D01*
X105893398Y-89583490D01*
X105971612Y-89661704D01*
X106049827Y-89818132D01*
X106049827Y-90052775D01*
X105971612Y-90209204D01*
X105893398Y-90287418D01*
X105736970Y-90365632D01*
X105111255Y-90365632D01*
G04 #@! TD*
M02*
