G04 #@! TF.GenerationSoftware,KiCad,Pcbnew,5.0.2+dfsg1-1~bpo9+1*
G04 #@! TF.CreationDate,2019-06-13T13:05:59+01:00*
G04 #@! TF.ProjectId,PSU,5053552e-6b69-4636-9164-5f7063625858,rev?*
G04 #@! TF.SameCoordinates,Original*
G04 #@! TF.FileFunction,Copper,L1,Top*
G04 #@! TF.FilePolarity,Positive*
%FSLAX46Y46*%
G04 Gerber Fmt 4.6, Leading zero omitted, Abs format (unit mm)*
G04 Created by KiCad (PCBNEW 5.0.2+dfsg1-1~bpo9+1) date Thu 13 Jun 2019 13:05:59 IST*
%MOMM*%
%LPD*%
G01*
G04 APERTURE LIST*
G04 #@! TA.AperFunction,ComponentPad*
%ADD10C,5.400000*%
G04 #@! TD*
G04 #@! TA.AperFunction,ComponentPad*
%ADD11R,2.600000X2.600000*%
G04 #@! TD*
G04 #@! TA.AperFunction,ComponentPad*
%ADD12C,2.600000*%
G04 #@! TD*
G04 #@! TA.AperFunction,ComponentPad*
%ADD13C,1.600000*%
G04 #@! TD*
G04 #@! TA.AperFunction,ComponentPad*
%ADD14R,1.600000X1.600000*%
G04 #@! TD*
G04 #@! TA.AperFunction,ComponentPad*
%ADD15R,1.700000X1.700000*%
G04 #@! TD*
G04 #@! TA.AperFunction,ComponentPad*
%ADD16O,1.700000X1.700000*%
G04 #@! TD*
G04 #@! TA.AperFunction,ComponentPad*
%ADD17O,2.200000X2.200000*%
G04 #@! TD*
G04 #@! TA.AperFunction,ComponentPad*
%ADD18R,2.200000X2.200000*%
G04 #@! TD*
G04 #@! TA.AperFunction,ComponentPad*
%ADD19O,1.905000X2.000000*%
G04 #@! TD*
G04 #@! TA.AperFunction,ComponentPad*
%ADD20R,1.905000X2.000000*%
G04 #@! TD*
G04 #@! TA.AperFunction,ComponentPad*
%ADD21O,1.600000X1.600000*%
G04 #@! TD*
G04 #@! TA.AperFunction,ComponentPad*
%ADD22R,1.676400X1.676400*%
G04 #@! TD*
G04 #@! TA.AperFunction,ComponentPad*
%ADD23C,1.676400*%
G04 #@! TD*
G04 #@! TA.AperFunction,Conductor*
%ADD24C,0.250000*%
G04 #@! TD*
G04 #@! TA.AperFunction,Conductor*
%ADD25C,0.500000*%
G04 #@! TD*
G04 APERTURE END LIST*
D10*
G04 #@! TO.P,REF4,1*
G04 #@! TO.N,N/C*
X126746000Y-36830000D03*
G04 #@! TD*
G04 #@! TO.P,REF3,1*
G04 #@! TO.N,N/C*
X126746000Y-90678000D03*
G04 #@! TD*
G04 #@! TO.P,REF2,1*
G04 #@! TO.N,N/C*
X42672000Y-90678000D03*
G04 #@! TD*
D11*
G04 #@! TO.P,J2,1*
G04 #@! TO.N,+15V*
X58166000Y-44450000D03*
D12*
G04 #@! TO.P,J2,2*
G04 #@! TO.N,GND*
X58166000Y-38450000D03*
G04 #@! TO.P,J2,3*
X53466000Y-41450000D03*
G04 #@! TD*
D13*
G04 #@! TO.P,C3,2*
G04 #@! TO.N,GND*
X86646000Y-43942000D03*
D14*
G04 #@! TO.P,C3,1*
G04 #@! TO.N,+5V*
X88646000Y-43942000D03*
G04 #@! TD*
G04 #@! TO.P,C1,1*
G04 #@! TO.N,+15V*
X69850000Y-44450000D03*
D13*
G04 #@! TO.P,C1,2*
G04 #@! TO.N,GND*
X67850000Y-44450000D03*
G04 #@! TD*
D14*
G04 #@! TO.P,C4,1*
G04 #@! TO.N,Net-(C4-Pad1)*
X126492000Y-59690000D03*
D13*
G04 #@! TO.P,C4,2*
G04 #@! TO.N,GND*
X123992000Y-59690000D03*
G04 #@! TD*
G04 #@! TO.P,C2,1*
G04 #@! TO.N,+15V*
X75829600Y-50225700D03*
G04 #@! TO.P,C2,2*
G04 #@! TO.N,GND*
X80829600Y-50225700D03*
G04 #@! TD*
D15*
G04 #@! TO.P,J4,1*
G04 #@! TO.N,+5V*
X55626000Y-64770000D03*
D16*
G04 #@! TO.P,J4,2*
G04 #@! TO.N,GND*
X55626000Y-67310000D03*
G04 #@! TO.P,J4,3*
G04 #@! TO.N,Net-(J4-Pad3)*
X55626000Y-69850000D03*
G04 #@! TO.P,J4,4*
G04 #@! TO.N,Net-(J4-Pad4)*
X55626000Y-72390000D03*
G04 #@! TO.P,J4,5*
G04 #@! TO.N,Net-(J4-Pad5)*
X55626000Y-74930000D03*
G04 #@! TO.P,J4,6*
G04 #@! TO.N,Net-(C4-Pad1)*
X55626000Y-77470000D03*
G04 #@! TD*
G04 #@! TO.P,J6,8*
G04 #@! TO.N,Net-(J6-Pad8)*
X91441000Y-89806300D03*
G04 #@! TO.P,J6,7*
G04 #@! TO.N,Net-(J6-Pad7)*
X93981000Y-89806300D03*
G04 #@! TO.P,J6,6*
G04 #@! TO.N,Net-(J6-Pad6)*
X96521000Y-89806300D03*
G04 #@! TO.P,J6,5*
G04 #@! TO.N,Net-(J6-Pad5)*
X99061000Y-89806300D03*
G04 #@! TO.P,J6,4*
G04 #@! TO.N,Net-(J6-Pad4)*
X101601000Y-89806300D03*
G04 #@! TO.P,J6,3*
G04 #@! TO.N,Net-(J6-Pad3)*
X104141000Y-89806300D03*
G04 #@! TO.P,J6,2*
G04 #@! TO.N,Net-(J6-Pad2)*
X106681000Y-89806300D03*
D15*
G04 #@! TO.P,J6,1*
G04 #@! TO.N,Net-(J6-Pad1)*
X109221000Y-89806300D03*
G04 #@! TD*
G04 #@! TO.P,J5,1*
G04 #@! TO.N,+5V*
X109221000Y-54246300D03*
D16*
G04 #@! TO.P,J5,2*
G04 #@! TO.N,GND*
X106681000Y-54246300D03*
G04 #@! TO.P,J5,3*
G04 #@! TO.N,Net-(J5-Pad3)*
X104141000Y-54246300D03*
G04 #@! TO.P,J5,4*
G04 #@! TO.N,Net-(J5-Pad4)*
X101601000Y-54246300D03*
G04 #@! TO.P,J5,5*
G04 #@! TO.N,Net-(J4-Pad4)*
X99061000Y-54246300D03*
G04 #@! TO.P,J5,6*
G04 #@! TO.N,Net-(J4-Pad3)*
X96521000Y-54246300D03*
G04 #@! TO.P,J5,7*
G04 #@! TO.N,Net-(J5-Pad7)*
X93981000Y-54246300D03*
G04 #@! TO.P,J5,8*
G04 #@! TO.N,Net-(J5-Pad8)*
X91441000Y-54246300D03*
G04 #@! TD*
D17*
G04 #@! TO.P,D2,2*
G04 #@! TO.N,GND*
X117094000Y-44196000D03*
D18*
G04 #@! TO.P,D2,1*
G04 #@! TO.N,Net-(C4-Pad1)*
X117094000Y-54356000D03*
G04 #@! TD*
D19*
G04 #@! TO.P,U1,3*
G04 #@! TO.N,+5V*
X80655600Y-44637700D03*
G04 #@! TO.P,U1,2*
G04 #@! TO.N,GND*
X78115600Y-44637700D03*
D20*
G04 #@! TO.P,U1,1*
G04 #@! TO.N,+15V*
X75575600Y-44637700D03*
G04 #@! TD*
G04 #@! TO.P,Q1,1*
G04 #@! TO.N,Net-(Q1-Pad1)*
X99354000Y-44738400D03*
D19*
G04 #@! TO.P,Q1,2*
G04 #@! TO.N,Net-(J4-Pad5)*
X101894000Y-44738400D03*
G04 #@! TO.P,Q1,3*
G04 #@! TO.N,+15V*
X104434000Y-44738400D03*
G04 #@! TD*
D13*
G04 #@! TO.P,R1,1*
G04 #@! TO.N,Net-(J4-Pad5)*
X106974000Y-49818400D03*
D21*
G04 #@! TO.P,R1,2*
G04 #@! TO.N,Net-(Q1-Pad1)*
X99354000Y-49818400D03*
G04 #@! TD*
D12*
G04 #@! TO.P,J3,2*
G04 #@! TO.N,GND*
X124460000Y-46308000D03*
D11*
G04 #@! TO.P,J3,1*
G04 #@! TO.N,Net-(C4-Pad1)*
X124460000Y-51308000D03*
G04 #@! TD*
G04 #@! TO.P,J1,1*
G04 #@! TO.N,+15V*
X44196000Y-51562000D03*
D12*
G04 #@! TO.P,J1,2*
G04 #@! TO.N,GND*
X44196000Y-46562000D03*
G04 #@! TD*
D22*
G04 #@! TO.P,U2,1*
G04 #@! TO.N,Net-(J5-Pad3)*
X64516000Y-77978000D03*
D23*
G04 #@! TO.P,U2,2*
G04 #@! TO.N,Net-(J5-Pad7)*
X64516000Y-80518000D03*
G04 #@! TO.P,U2,3*
G04 #@! TO.N,Net-(U2-Pad3)*
X64516000Y-83058000D03*
G04 #@! TO.P,U2,4*
G04 #@! TO.N,GND*
X64516000Y-85598000D03*
G04 #@! TO.P,U2,5*
G04 #@! TO.N,Net-(Q1-Pad1)*
X72136000Y-85598000D03*
G04 #@! TO.P,U2,6*
G04 #@! TO.N,GND*
X72136000Y-83058000D03*
G04 #@! TO.P,U2,7*
G04 #@! TO.N,Net-(J6-Pad6)*
X72136000Y-80518000D03*
G04 #@! TO.P,U2,8*
G04 #@! TO.N,+5V*
X72136000Y-77978000D03*
G04 #@! TD*
D10*
G04 #@! TO.P,REF1,1*
G04 #@! TO.N,N/C*
X42926000Y-36830000D03*
G04 #@! TD*
D24*
G04 #@! TO.N,Net-(J5-Pad3)*
X102965700Y-54246300D02*
X102965700Y-54613600D01*
X102965700Y-54613600D02*
X81215100Y-76364200D01*
X81215100Y-76364200D02*
X67293300Y-76364200D01*
X67293300Y-76364200D02*
X65679500Y-77978000D01*
X104141000Y-54246300D02*
X102965700Y-54246300D01*
X64516000Y-77978000D02*
X65679500Y-77978000D01*
D25*
G04 #@! TO.N,GND*
X64516000Y-85598000D02*
X67056000Y-83058000D01*
X67056000Y-83058000D02*
X72136000Y-83058000D01*
X117094000Y-44196000D02*
X118644300Y-44196000D01*
X124460000Y-46308000D02*
X120756300Y-46308000D01*
X120756300Y-46308000D02*
X118644300Y-44196000D01*
D24*
G04 #@! TO.N,Net-(Q1-Pad1)*
X99354000Y-49818400D02*
X99354000Y-44738400D01*
G04 #@! TO.N,Net-(J6-Pad6)*
X96521000Y-89806300D02*
X95345700Y-89806300D01*
X72136000Y-80518000D02*
X86424700Y-80518000D01*
X86424700Y-80518000D02*
X95345700Y-89439000D01*
X95345700Y-89439000D02*
X95345700Y-89806300D01*
D25*
G04 #@! TO.N,+5V*
X80655600Y-45195500D02*
X80655600Y-44637700D01*
X56926300Y-64770000D02*
X75128600Y-46567700D01*
X75128600Y-46567700D02*
X79283400Y-46567700D01*
X79283400Y-46567700D02*
X80655600Y-45195500D01*
X80655600Y-45195500D02*
X87392500Y-45195500D01*
X87392500Y-45195500D02*
X88646000Y-43942000D01*
X55626000Y-64770000D02*
X56926300Y-64770000D01*
X88646000Y-43942000D02*
X89896300Y-43942000D01*
X109221000Y-54246300D02*
X106825200Y-51850500D01*
X106825200Y-51850500D02*
X97804800Y-51850500D01*
X97804800Y-51850500D02*
X89896300Y-43942000D01*
G04 #@! TO.N,+15V*
X58166000Y-44450000D02*
X56415700Y-44450000D01*
X44196000Y-51562000D02*
X49303700Y-51562000D01*
X49303700Y-51562000D02*
X56415700Y-44450000D01*
X104434000Y-44738400D02*
X102384300Y-42688700D01*
X102384300Y-42688700D02*
X77524600Y-42688700D01*
X77524600Y-42688700D02*
X75575600Y-44637700D01*
X75575600Y-44637700D02*
X74172800Y-44637700D01*
X69850000Y-44450000D02*
X73985100Y-44450000D01*
X73985100Y-44450000D02*
X74172800Y-44637700D01*
D24*
G04 #@! TO.N,Net-(C4-Pad1)*
X124460000Y-54356000D02*
X124460000Y-56532700D01*
X124460000Y-56532700D02*
X126492000Y-58564700D01*
X124460000Y-51308000D02*
X124460000Y-54356000D01*
X124460000Y-54356000D02*
X117094000Y-54356000D01*
X117094000Y-54356000D02*
X115668700Y-54356000D01*
X55626000Y-77470000D02*
X56801300Y-77470000D01*
X56801300Y-77470000D02*
X58472800Y-79141500D01*
X58472800Y-79141500D02*
X90883200Y-79141500D01*
X90883200Y-79141500D02*
X115668700Y-54356000D01*
X126492000Y-59690000D02*
X126492000Y-58564700D01*
G04 #@! TO.N,Net-(J4-Pad5)*
X55626000Y-74930000D02*
X80039700Y-74930000D01*
X80039700Y-74930000D02*
X100331000Y-54638700D01*
X100331000Y-54638700D02*
X100331000Y-53756800D01*
X100331000Y-53756800D02*
X101016900Y-53070900D01*
X101016900Y-53070900D02*
X104629800Y-53070900D01*
X104629800Y-53070900D02*
X105411000Y-53852100D01*
X105411000Y-53852100D02*
X105411000Y-54735100D01*
X105411000Y-54735100D02*
X106097600Y-55421700D01*
X106097600Y-55421700D02*
X110235100Y-55421700D01*
X110235100Y-55421700D02*
X110396400Y-55260400D01*
X110396400Y-55260400D02*
X110396400Y-53240800D01*
X110396400Y-53240800D02*
X106974000Y-49818400D01*
X106974000Y-49818400D02*
X101894000Y-44738400D01*
G04 #@! TO.N,Net-(J4-Pad3)*
X55626000Y-69850000D02*
X80109400Y-69850000D01*
X96521000Y-54246300D02*
X95345700Y-54246300D01*
X95345700Y-54246300D02*
X95345700Y-54613700D01*
X95345700Y-54613700D02*
X80109400Y-69850000D01*
G04 #@! TO.N,Net-(J4-Pad4)*
X97885700Y-54246300D02*
X97885700Y-54613700D01*
X97885700Y-54613700D02*
X80109400Y-72390000D01*
X80109400Y-72390000D02*
X55626000Y-72390000D01*
X99061000Y-54246300D02*
X97885700Y-54246300D01*
G04 #@! TD*
M02*
