M48
;DRILL file {KiCad 5.0.2+dfsg1-1~bpo9+1} date Mon 27 May 2019 08:17:10 IST
;FORMAT={3:3/ absolute / metric / suppress leading zeros}
FMAT,2
METRIC,TZ
T1C0.800
T2C1.000
T3C1.100
T4C1.118
T5C1.300
T6C1.600
T7C2.700
%
G90
G05
T1
X59690Y-85090
X59690Y-87090
X67310Y-69850
X67310Y-71850
X59690Y-75010
X59690Y-80010
X113030Y-48300
X113030Y-50800
X69850Y-57150
X77470Y-57150
T2
X87630Y-52070
X90170Y-52070
X92710Y-52070
X95250Y-52070
X97790Y-52070
X100330Y-52070
X116840Y-68580
X116840Y-71120
X116840Y-73660
X116840Y-76200
X116840Y-78740
X116840Y-81280
X116840Y-83820
X116840Y-86360
X81280Y-68580
X81280Y-71120
X81280Y-73660
X81280Y-76200
X81280Y-78740
X81280Y-81280
X81280Y-83820
X81280Y-86360
T3
X54610Y-63500
X54610Y-66040
X54610Y-68580
X69850Y-52070
X72390Y-52070
X74930Y-52070
X63500Y-63500
X73660Y-63500
X87630Y-57150
X97790Y-57150
T4
X95250Y-78740
X95250Y-81280
X95250Y-83820
X95250Y-86360
X102870Y-78740
X102870Y-81280
X102870Y-83820
X102870Y-86360
T5
X52150Y-49530
X57150Y-49530
X124460Y-48340
X124460Y-53340
T6
X46070Y-83820
X49070Y-88520
X52070Y-83820
T7
X43180Y-36830
X43180Y-90170
X127000Y-36830
X127000Y-90170
T0
M30
