M48
;DRILL file {KiCad 5.0.2+dfsg1-1~bpo9+1} date Thu 13 Jun 2019 13:06:12 IST
;FORMAT={3:3/ absolute / metric / suppress leading zeros}
FMAT,2
METRIC,TZ
T1C0.800
T2C1.000
T3C1.100
T4C1.118
T5C1.300
T6C1.600
T7C2.700
%
G90
G05
T1
X75830Y-50226
X67850Y-44450
X69850Y-44450
X123992Y-59690
X126492Y-59690
X86646Y-43942
X88646Y-43942
X99354Y-49818
X106974Y-49818
X80830Y-50226
T2
X55626Y-64770
X55626Y-67310
X55626Y-69850
X55626Y-72390
X55626Y-74930
X55626Y-77470
X91441Y-89806
X93981Y-89806
X96521Y-89806
X99061Y-89806
X101601Y-89806
X104141Y-89806
X106681Y-89806
X109221Y-89806
X91441Y-54246
X93981Y-54246
X96521Y-54246
X99061Y-54246
X101601Y-54246
X104141Y-54246
X106681Y-54246
X109221Y-54246
T3
X75576Y-44638
X78116Y-44638
X80656Y-44638
X117094Y-44196
X117094Y-54356
X99354Y-44738
X101894Y-44738
X104434Y-44738
T4
X64516Y-77978
X64516Y-80518
X64516Y-83058
X64516Y-85598
X72136Y-77978
X72136Y-80518
X72136Y-83058
X72136Y-85598
T5
X44196Y-46562
X44196Y-51562
X124460Y-46308
X124460Y-51308
T6
X53466Y-41450
X58166Y-38450
X58166Y-44450
T7
X42672Y-90678
X126746Y-36830
X126746Y-90678
X42926Y-36830
T0
M30
